<svg width="1150" height="599" viewBox="0 0 1150 599" fill="none" xmlns="http://www.w3.org/2000/svg">
<g style="mix-blend-mode:multiply">
<path d="M699.933 351.236C707.815 355.786 720.589 355.786 728.471 351.236C736.354 346.686 736.354 339.307 728.471 334.764C720.589 330.214 707.815 330.214 699.933 334.764C692.05 339.314 692.05 346.693 699.933 351.236Z" fill="#E0E6F9"/>
</g>
<path d="M712.123 261.194C711.973 261.927 714.742 263.846 718.075 261.96L718.212 259.269L718.507 253.364C717.564 255.321 715.181 256.971 712.857 257.436C712.817 257.639 712.778 257.842 712.739 258.065C712.496 259.335 712.208 260.801 712.136 261.194H712.123Z" fill="white" stroke="#263994" stroke-miterlimit="10"/>
<path d="M710.297 257.39C711.082 257.613 711.96 257.613 712.85 257.436C715.174 256.978 717.557 255.321 718.5 253.364C718.546 253.278 718.585 253.18 718.618 253.095C717.787 252.578 716.589 251.439 716.418 250.908C716.183 250.169 716.444 247.432 716.444 247.432C716.444 247.432 714.323 248.434 711.848 248.434C711.056 248.434 710.382 248.165 709.891 247.733C709.891 247.733 707.062 256.493 710.29 257.397L710.297 257.39Z" fill="white" stroke="#263994" stroke-miterlimit="10"/>
<path d="M709.897 247.733C710.388 248.165 711.063 248.434 711.855 248.434C714.33 248.434 716.451 247.432 716.451 247.432C716.451 247.432 716.189 250.169 716.425 250.908C716.595 251.439 717.786 252.584 718.625 253.095C718.939 253.292 719.207 253.396 719.345 253.35C719.842 253.174 720.582 252.028 720.733 248.512C720.883 245.003 719.05 242.783 715.456 242.587C714.605 242.541 711.508 242.148 709.799 243.975C708.634 245.219 708.863 246.823 709.904 247.727L709.897 247.733Z" fill="#263994" stroke="#263994" stroke-miterlimit="10"/>
<path d="M709.524 340.06C709.642 340.145 709.76 340.224 709.884 340.289C712.575 341.874 716.189 340.473 716.189 340.473C719.901 327.503 718.31 319.129 718.31 319.129C718.31 319.129 720.085 314.468 721.702 310.101C722.566 307.763 723.384 305.511 723.856 304.09C725.211 300.025 724.779 295.723 724.779 295.723C721.833 297.308 714.585 299.861 706.859 292.384C706.859 292.384 706.329 304.562 711.285 313.918C711.128 316.314 711.03 318.664 711.063 320.596C711.181 327.614 709.531 340.054 709.531 340.054L709.524 340.06Z" fill="#80C1FF" stroke="#263994" stroke-miterlimit="10"/>
<path d="M718.31 319.123L728.805 329.205H728.812L732.864 325.434C732.943 325.244 733.002 325.048 733.048 324.845C733.048 324.845 725.558 312.746 721.695 310.101C720.084 314.468 718.304 319.129 718.304 319.129L718.31 319.123Z" fill="#80C1FF" stroke="#263994" stroke-miterlimit="10"/>
<path d="M704.005 351.616C705.458 352.401 710.369 351.734 712.411 349.062C714.454 346.391 716.34 345.881 716.7 345.272C717.053 344.656 716.189 340.473 716.189 340.473C716.189 340.473 712.575 341.88 709.884 340.289C709.884 340.289 708.679 343.163 705.615 346.699C702.551 350.234 702.551 350.824 704.005 351.609V351.616Z" fill="white" stroke="#263994" stroke-miterlimit="10"/>
<path d="M728.687 341.71C731.398 342.182 733.997 335.975 734.495 333.258C734.992 330.541 736.433 328.898 736.118 328.309C735.804 327.719 732.871 325.434 732.871 325.434C730.638 327.51 729.192 328.832 728.818 329.205H728.812C728.812 329.205 728.694 332.04 728.38 333.297C728.065 334.554 725.983 341.239 728.694 341.704L728.687 341.71Z" fill="white" stroke="#263994" stroke-miterlimit="10"/>
<path d="M688.2 289.877C689.536 293.203 692.881 291.638 692.881 291.638C694.852 290.61 695.69 287.035 695.69 287.035L693.53 284.292C693.53 284.292 686.871 286.551 688.2 289.877Z" fill="white" stroke="#263994" stroke-miterlimit="10"/>
<path d="M734.128 296.98C737.677 297.491 737.997 293.811 737.997 293.811C738.096 291.585 735.418 289.078 735.418 289.078L731.797 290.708C731.575 292.692 731.49 296.601 734.128 296.974V296.98Z" fill="white" stroke="#263994" stroke-miterlimit="10"/>
<path d="M724.942 262.929C722.651 260.762 720.143 260.212 718.212 259.269L718.075 261.96C714.742 263.845 711.973 261.927 712.123 261.194C712.202 260.794 712.483 259.334 712.726 258.064C712.398 258.064 712.058 258.077 711.704 258.097C710.591 258.162 709.727 258.667 709.059 259.478C703.854 264.048 701.366 274.425 700.188 276.259C699.121 277.908 693.523 284.292 693.523 284.292L695.683 287.035C695.683 287.035 703.101 283.14 704.791 281.097C705.498 280.233 706.866 278.38 707.403 275.676C707.403 274.903 707.37 274.209 707.305 273.633C706.951 270.504 706.584 266.733 707.841 263.204C706.584 266.739 706.951 270.504 707.305 273.633C707.37 274.216 707.403 274.903 707.403 275.676C707.403 281.378 705.812 291.317 705.812 291.317C706.159 291.697 706.512 292.05 706.859 292.391C714.585 299.867 721.833 297.314 724.779 295.73C725.669 295.252 726.167 294.859 726.167 294.859C724.798 291.396 724.216 283.519 724.942 278.046C725.545 278.786 725.997 279.355 726.16 279.689C727.162 281.693 731.791 290.715 731.791 290.715L735.411 289.084C735.411 289.084 733.414 280.599 731.359 274.956C727.889 265.449 724.936 262.935 724.936 262.935L724.942 262.929Z" fill="#3795FC"/>
<path d="M707.403 275.676C706.866 278.38 705.498 280.233 704.791 281.097C703.101 283.14 695.683 287.035 695.683 287.035L693.523 284.292C693.523 284.292 699.121 277.908 700.188 276.259C701.366 274.425 703.854 264.048 709.059 259.478C709.727 258.667 710.591 258.162 711.704 258.097C712.058 258.077 712.398 258.064 712.726 258.064C712.483 259.334 712.202 260.794 712.123 261.194C711.973 261.927 714.742 263.845 718.075 261.96L718.212 259.269C720.143 260.212 722.651 260.762 724.942 262.929L724.936 262.935C724.936 262.935 727.889 265.449 731.359 274.956C733.414 280.599 735.411 289.084 735.411 289.084L731.791 290.715C731.791 290.715 727.162 281.693 726.16 279.689C725.997 279.355 725.545 278.786 724.942 278.046C724.216 283.519 724.798 291.395 726.167 294.859C726.167 294.859 725.669 295.252 724.779 295.73C721.833 297.314 714.585 299.867 706.859 292.391C706.512 292.05 706.159 291.697 705.812 291.317C705.812 291.317 707.403 281.378 707.403 275.676ZM707.403 275.676C707.403 274.903 707.37 274.209 707.305 273.633M707.403 275.676C707.403 274.903 707.37 274.216 707.305 273.633M707.305 273.633C706.951 270.504 706.584 266.733 707.841 263.204C706.584 266.739 706.951 270.504 707.305 273.633Z" stroke="#263994" stroke-miterlimit="10"/>
<path d="M708.275 246.324L717.133 251.444V241.21L708.275 236.097V246.324Z" fill="#80C1FF"/>
<path d="M699.417 241.257L708.275 246.37V236.144L699.417 231.03V241.257Z" fill="#E0E7F7"/>
<path d="M690.558 236.189L699.417 241.302V231.076L690.558 225.956V236.189Z" fill="#3795FC"/>
<path d="M708.275 256.596L717.133 261.709V251.476L708.275 246.363V256.596Z" fill="#E0E7F7"/>
<path d="M699.417 251.523L708.275 256.636V246.409L699.417 241.296V251.523Z" fill="white"/>
<path d="M690.558 246.455L699.417 251.568V241.342L690.558 236.229V246.455Z" fill="#E0E7F7"/>
<path d="M708.275 266.862L717.133 271.975V261.749L708.275 256.629V266.862Z" fill="#3795FC"/>
<path d="M699.417 261.788L708.275 266.901V256.675L699.417 251.562V261.788Z" fill="#80C1FF"/>
<path d="M690.558 256.721L699.417 261.834V251.608L690.558 246.494V256.721Z" fill="white"/>
<path d="M717.133 241.211L690.558 225.956V256.721L717.133 271.976V241.211Z" stroke="#263994" stroke-miterlimit="10"/>
<path d="M709.12 233.643L719.667 239.731V251.916" stroke="#263994" stroke-miterlimit="10"/>
<path d="M719.667 264.139V276.362L709.12 270.273" stroke="#263994" stroke-miterlimit="10"/>
<path d="M698.572 264.237L688.025 258.201V245.977" stroke="#263994" stroke-miterlimit="10"/>
<path d="M688.025 233.747V221.57L698.572 227.606" stroke="#263994" stroke-miterlimit="10"/>
<g style="mix-blend-mode:multiply">
<path d="M474.84 196.403L431.764 171.536C427.671 169.175 428.182 165.048 432.909 162.319L534.203 103.835C538.93 101.107 546.078 100.809 550.171 103.175L593.247 128.042C597.34 130.403 596.829 134.531 592.102 137.259L490.808 195.743C486.081 198.471 478.933 198.769 474.84 196.403Z" fill="#E0E6F9"/>
</g>
<path d="M469.116 118.667C469.548 118.007 469.657 117.179 469.384 116.44C468.858 115.006 467.499 112.858 464.027 112.337C461.244 111.921 459.701 112.119 458.863 112.407C458.277 112.605 457.871 113.141 457.841 113.761C457.776 115.051 457.985 117.709 460.381 119.58C463.65 122.134 468.183 124.456 468.183 124.456L469.657 122.982L467.425 121.256L469.121 118.667H469.116Z" fill="white" stroke="#263994" stroke-miterlimit="10"/>
<path d="M441.05 141.267C441.05 141.267 461.14 126.385 461.963 125.626C462.003 125.592 474.974 112.446 480.52 107.873C495.124 95.8435 512.828 89.7074 517.049 88.8988C522.61 87.8323 529.892 87.8472 535.373 88.2639C541.599 88.7351 540.314 89.0823 545.642 88.4028C559.675 86.6021 575.028 97.8376 584.274 103.924C589.78 107.55 590.232 123.315 584.79 127.635C578.753 132.427 543.335 149.814 519.45 165.707C511.201 171.198 489.791 182.136 483.189 184.552C477.053 186.794 469.85 188.173 461.457 184.056C456.898 181.824 448.426 176.66 441.298 171.64C437.627 169.05 436.233 165.737 436.367 160.851C436.407 159.412 436.352 152.874 436.357 152.423C436.387 147.482 438.832 142.859 441.045 141.267H441.05Z" fill="white" stroke="#263994" stroke-miterlimit="10"/>
<path d="M455.157 173.411L445.554 166.922C445.554 166.922 444.016 166.416 443.956 168.475C443.927 169.571 444.304 171.928 445.127 172.319C446.784 173.108 452.627 176.561 454.076 177.692C454.339 177.895 455.896 178.699 456.144 177.121C456.229 176.576 456.368 175.633 456.368 175.633C456.368 175.633 456.492 174.234 455.157 173.411Z" fill="#3795FC" stroke="#263994" stroke-linecap="round" stroke-linejoin="round"/>
<path d="M455.281 172.855L445.951 167.22C445.951 167.22 444.705 166.104 444.656 168.034C444.626 169.06 444.894 171.159 445.708 171.729C446.526 172.305 454.914 177.344 454.914 177.344C454.914 177.344 456.001 178.083 456.189 176.804C456.263 176.293 456.457 174.948 456.457 174.948C456.457 174.948 456.536 173.629 455.286 172.855H455.281Z" fill="white" stroke="#263994" stroke-miterlimit="10"/>
<path d="M521.717 149.685C521.687 150.245 522.506 149.923 522.932 149.665L524.688 148.608C525.373 148.137 525.641 147.552 525.715 147.219C525.914 146.351 524.971 146.912 524.54 147.17L522.863 148.221C522.431 148.479 521.767 148.985 521.732 149.437L521.722 149.685H521.717Z" fill="#3795FC"/>
<path d="M550.185 134.808C550.146 135.369 550.969 135.051 551.401 134.798L553.162 133.757C553.846 133.295 554.119 132.71 554.203 132.378C554.412 131.514 553.459 132.065 553.028 132.323L551.336 133.355C550.905 133.608 550.235 134.104 550.195 134.56V134.813L550.185 134.808Z" fill="#3795FC"/>
<path d="M437.786 145.825C437.999 146.069 438.153 146.302 438.153 146.302C438.153 146.302 439.854 148.772 440.757 149.804C441.655 150.836 441.238 152.686 441.288 153.926C441.362 155.652 441.486 157.686 441.486 157.686C441.486 157.686 441.436 160.504 438.996 158.013C437.766 156.758 436.803 155.583 436.372 153.842C436.372 152.329 436.461 151.356 436.516 150.558C436.674 148.316 437.344 147.095 437.791 145.825H437.786Z" fill="#3795FC" stroke="#263994" stroke-linecap="round" stroke-linejoin="round"/>
<path d="M465.912 173.619C466.298 172.245 466.74 171.67 467.901 169.81C468.739 168.465 469.761 167.607 471.953 167.637C477.678 167.721 480.396 167.334 480.396 167.334C480.396 167.334 481.894 167.716 481.15 169.165C480.813 169.819 478.129 174.041 475.818 175.083C474.399 175.722 472.583 176.159 469.617 175.851C466.512 175.524 465.495 175.102 465.912 173.614V173.619Z" fill="#3795FC" stroke="#263994" stroke-linecap="round" stroke-linejoin="round"/>
<path d="M499.921 164.264C499.921 164.264 502.733 163.475 504.648 166.481C506.746 169.76 506.186 174.145 503.84 178.609C501.498 183.079 498.125 185.986 495.079 187.345C492.039 188.704 489.687 187.96 488.407 187.29C485.808 185.936 484.92 183.843 484.92 183.843C484.92 183.843 486.909 174.378 494.241 167.964C497.525 165.087 499.916 164.259 499.916 164.259L499.921 164.264Z" fill="#3795FC" stroke="#263994" stroke-miterlimit="10"/>
<path d="M498.274 172.429C496.453 173.48 494.539 176.779 494.062 178.46C493.591 180.142 493.606 181.591 494.628 182.3C495.655 183.009 498.433 182.106 500.154 180.008C501.875 177.91 502.629 175.4 502.674 174.244C502.714 173.088 501.836 170.37 498.274 172.429Z" fill="white"/>
<path d="M572.87 118.721C572.87 118.721 575.355 117.595 577.518 120.09C579.874 122.809 579.928 126.936 578.346 131.385C576.769 135.835 574.035 138.995 571.406 140.686C568.777 142.373 567.101 142.14 565.796 141.882C563.817 141.495 562.592 140.498 562.592 140.498C562.562 140.106 561.867 130.646 568.113 122.943C570.905 119.495 572.865 118.721 572.865 118.721H572.87Z" fill="#3795FC" stroke="#263994" stroke-miterlimit="10"/>
<path d="M572.408 127.01C570.861 128.241 569.521 131.564 569.303 133.181C569.085 134.798 569.526 135.905 570.563 136.416C571.605 136.926 573.817 135.924 575.132 133.742C576.446 131.554 576.565 129.322 576.555 128.241C576.54 127.04 575.429 124.595 572.408 127.005V127.01Z" fill="white"/>
<path d="M510.442 145.652C510.442 145.652 510.427 138.786 519.034 128.97C519.034 128.97 523.017 124.718 527.928 121.39C529.083 120.606 531.008 119.475 532.67 118.538C533.821 117.893 535.249 118.493 535.636 119.783C536.058 121.177 536.519 123.007 536.871 124.877C537.308 127.194 537.596 129.595 537.725 131.336C537.784 132.169 537.368 132.958 536.658 133.36L512.615 147.026C512.342 147.18 512.039 147.279 511.732 147.289C511.122 147.309 510.273 147.085 510.447 145.652H510.442Z" fill="#80C1FF" stroke="#263994" stroke-miterlimit="10"/>
<path d="M540.071 123.553C539.595 121.097 538.94 119.009 538.409 117.575C538.032 116.554 538.464 115.398 539.411 114.912C541.48 113.845 544 112.987 545.567 112.585C548.072 111.95 553.301 110.839 557.949 111.762C562.254 112.62 564.993 113.766 566.019 114.991C567.135 116.315 565.965 117.436 565.503 117.794C565.414 117.863 565.325 117.923 565.226 117.977L543.776 129.639C542.502 130.334 540.949 129.505 540.761 128.027C540.567 126.529 540.359 125.036 540.066 123.543L540.071 123.553Z" fill="#80C1FF" stroke="#263994" stroke-miterlimit="10"/>
<path d="M568.906 104.792C566.744 103.091 547.1 91.8105 539.193 89.4047C538.513 89.1963 535.393 89.0922 532.839 88.9136C522.759 88.2141 517.957 89.3352 513.636 90.7043C512.754 90.9226 511.126 91.4533 508.616 92.3909C500.749 95.4416 493.413 99.281 487.063 103.924C484.945 105.501 482.495 107.6 482.495 107.6C482.495 107.6 478.109 111.33 472.281 117.337C467.117 122.685 465.877 124.143 465.877 124.143C465.877 124.143 463.56 126.34 465.574 128.474C467.32 130.309 470.56 133.201 477.45 137.353C490.099 144.903 498.805 146.604 500.853 145.796C501.597 145.528 501.989 144.67 501.989 144.67C507.654 136.053 518.126 123.974 534.337 114.882C550.414 105.864 567.994 109.787 570.821 109.018C572.939 108.443 571.888 107.044 568.906 104.787V104.792ZM517.927 124.565C517.268 125.125 516.489 125.254 515.655 125.031C489.042 117.813 484.221 106.88 485.491 105.854C488.407 103.577 493.671 99.916 501.463 96.1857C508.14 92.9564 513.21 91.24 515.11 90.7936C516.533 90.4563 522.684 91.7956 529.52 94.6479C534.753 96.8305 547.586 103.651 551.559 107.193C551.773 107.382 551.688 107.749 551.411 107.803C535.061 111.067 523.344 120.795 517.922 124.565H517.927Z" fill="#80C1FF" stroke="#263994" stroke-miterlimit="10"/>
<path d="M459.711 162.85L448.406 155.856C448.406 155.856 444.77 154.119 444.676 157.631C444.626 159.507 445.112 162.036 446.595 163.073C448.084 164.12 457.087 169.457 457.087 169.457C457.087 169.457 460.128 171.318 461.313 169.423C462.062 168.227 461.849 166.66 461.849 166.66C461.849 166.66 461.993 164.254 459.716 162.85H459.711Z" fill="#80C1FF" stroke="#263994" stroke-miterlimit="10"/>
<path d="M512.952 145.731C513.438 144.933 514.286 144.417 515.219 144.372C516.757 144.298 519.103 144.734 520.938 147.487C522.764 150.211 523.106 151.768 523.101 152.572C523.101 152.983 522.878 153.355 522.521 153.559C521.519 154.139 518.86 155.345 515.948 153.876C513.379 152.582 510.65 150.692 509.222 149.655C508.616 149.218 508.378 148.435 508.631 147.73L508.666 147.626C508.795 147.264 509.217 147.095 509.559 147.274L511.424 148.226L512.952 145.736V145.731Z" fill="white" stroke="#263994" stroke-miterlimit="10"/>
<path d="M453.063 163.578L462.001 168.738V158.417L453.063 153.257V163.578Z" fill="#80C1FF"/>
<path d="M444.122 158.46L453.063 163.62V153.299L444.122 148.139V158.46Z" fill="#E0E7F7"/>
<path d="M435.185 153.346L444.122 158.506V148.185L435.185 143.025V153.346Z" fill="#3795FC"/>
<path d="M453.063 173.938L462.001 179.098V168.777L453.063 163.617V173.938Z" fill="#E0E7F7"/>
<path d="M444.122 168.82L453.063 173.984V163.66L444.122 158.499V168.82Z" fill="white"/>
<path d="M435.185 163.706L444.122 168.867V158.546L435.185 153.385V163.706Z" fill="#E0E7F7"/>
<path d="M453.063 184.298L462.001 189.459V179.138L453.063 173.977V184.298Z" fill="#3795FC"/>
<path d="M444.122 179.18L453.063 184.344V174.02L444.122 168.859V179.18Z" fill="#80C1FF"/>
<path d="M435.185 174.066L444.122 179.227V168.906L435.185 163.745V174.066Z" fill="white"/>
<path d="M462.001 158.418L435.185 143.025V174.066L462.001 189.459V158.418Z" stroke="#263994" stroke-miterlimit="10"/>
<path d="M453.913 150.778L464.558 156.923V169.215" stroke="#263994" stroke-miterlimit="10"/>
<path d="M464.558 181.549V193.887L453.913 187.741" stroke="#263994" stroke-miterlimit="10"/>
<path d="M443.272 181.649L432.627 175.56V163.222" stroke="#263994" stroke-miterlimit="10"/>
<path d="M432.627 150.885V138.597L443.272 144.689" stroke="#263994" stroke-miterlimit="10"/>
<g style="mix-blend-mode:multiply">
<path d="M639.596 315.686C647.479 320.237 660.252 320.237 668.135 315.686C676.017 311.136 676.017 303.758 668.135 299.214C660.252 294.664 647.479 294.664 639.596 299.214C631.713 303.764 631.713 311.143 639.596 315.686Z" fill="#E0E6F9"/>
</g>
<path d="M651.066 222.554C651.584 222.966 652.265 223.156 653.011 223.195C653.384 223.222 653.777 223.202 654.176 223.156C656.605 222.901 659.218 221.65 659.218 221.65C659.139 221.251 659.06 221.015 659.06 221.015C661.214 220.426 662.432 218.704 661.064 217.329C659.689 215.961 658.203 218.449 658.203 218.449C655.027 216.91 652.664 214.9 651.721 213.421C650.942 215.562 649.194 221.041 651.073 222.554H651.066Z" fill="white" stroke="#263994" stroke-miterlimit="10"/>
<path d="M647.309 312.819C647.623 313.782 648.526 313.605 650.412 313.605C652.297 313.605 655.132 310.796 655.682 310.285C656.232 309.775 658.831 308.969 658.831 307.536C658.831 306.102 657.581 303.634 657.581 303.634H653.685C653.685 303.634 652.644 305.002 652.311 306.357C651.977 307.712 647.001 311.863 647.315 312.826L647.309 312.819Z" fill="white" stroke="#263994" stroke-miterlimit="10"/>
<path d="M651.715 213.427C652.664 214.914 655.027 216.924 658.196 218.456C658.196 218.456 659.682 215.968 661.057 217.336C662.426 218.711 661.208 220.433 659.054 221.022C659.054 221.022 659.132 221.258 659.211 221.657C659.434 222.731 659.689 224.99 658.452 226.829C657.921 227.622 657.417 228.237 656.959 228.82C655.964 230.096 655.185 231.223 654.838 233.704C654.838 233.704 656.134 232.329 658.412 230.954C659.218 230.47 660.455 229.579 661.365 228.067C661.719 227.478 662.026 226.784 662.236 225.991L662.589 228.8C662.956 229.069 663.349 229.402 663.715 229.828C664.612 229.965 665.326 230.568 665.896 231.458C665.889 231.288 665.725 228.433 665.221 226.888C664.704 225.297 664.102 220.8 663.886 217.585C663.84 215.876 663.729 214.121 662.236 212.308C662.007 212.026 660.193 210.187 657.666 209.853C656.946 209.755 654.058 209.525 651.839 211.241C651.597 211.431 651.472 211.62 651.361 211.797C651.132 212.157 651.263 212.74 651.708 213.427H651.715Z" fill="#263994" stroke="#263994" stroke-miterlimit="10"/>
<path d="M637.514 254C639.21 257.156 642.359 255.237 642.359 255.237C644.205 253.993 644.637 250.353 644.637 250.353L642.189 247.865C642.189 247.865 635.818 250.844 637.508 254H637.514Z" fill="white" stroke="#263994" stroke-miterlimit="10"/>
<path d="M644.277 274.256C644.716 277.085 653.672 285.419 653.672 285.419C653.928 292.752 653.672 303.613 653.672 303.613H657.568C659.237 297.662 660.016 292.896 660.311 289.203C660.887 282.015 659.65 278.892 659.65 278.892C659.65 278.892 659.722 278.682 659.853 278.296C660.514 276.325 662.648 269.857 663.755 264.933C662.877 265.601 661.444 266.171 659.741 264.855C656.913 262.655 661.516 257.345 661.516 257.345C661.895 256.055 662.177 254.517 662.4 252.959C661.81 251.832 661.221 250.831 660.848 249.901C660.848 249.901 653.613 252.179 648.664 246.673C648.664 246.673 643.596 268.907 644.271 274.25L644.277 274.256Z" fill="#80C1FF" stroke="#263994" stroke-miterlimit="10"/>
<path d="M654.176 223.163L654.621 227.36C654.621 227.36 655.407 228.833 656.959 228.826C657.417 228.244 657.921 227.628 658.452 226.836C659.689 224.996 659.434 222.738 659.211 221.664C659.211 221.664 656.599 222.921 654.17 223.17L654.176 223.163Z" fill="white" stroke="#263994" stroke-miterlimit="10"/>
<path d="M659.748 264.862C661.45 266.178 662.884 265.608 663.761 264.94C664.344 264.501 664.678 264.017 664.678 264.017C665.863 262.131 664.77 258.622 664.77 258.622L664.357 258.465L661.522 257.352C661.522 257.352 656.92 262.662 659.748 264.862Z" fill="white" stroke="#263994" stroke-miterlimit="10"/>
<path d="M642.195 247.865L642.208 247.846C642.49 247.407 647.151 240.238 648.258 236.958C647.603 236.408 646.765 235.452 646.765 234.143C646.765 231.989 650.032 228.479 650.418 226.568C650.791 224.702 652.893 223.281 653.011 223.202C653.384 223.229 653.777 223.209 654.176 223.163L654.622 227.36C654.622 227.36 655.407 228.833 656.959 228.826C655.964 230.103 655.185 231.229 654.838 233.71C654.838 233.71 656.134 232.336 658.412 230.961C659.218 230.476 660.455 229.586 661.365 228.073C661.719 227.484 662.026 226.79 662.236 225.998L662.589 228.807C662.956 229.075 663.349 229.409 663.715 229.835C664.612 229.972 665.326 230.574 665.896 231.465C667.899 234.614 668.102 241.436 668.037 245.076C667.958 249.751 664.756 258.629 664.756 258.629L664.344 258.472L661.509 257.359C661.889 256.069 662.17 254.53 662.393 252.972C662.956 248.9 663.028 244.736 663.028 244.736C663.028 244.736 662.576 243.125 662.066 241.2C661.031 244.284 660.239 247.492 660.848 249.921C660.848 249.921 653.613 252.199 648.664 246.693C648.664 246.693 648.664 246.438 648.664 246.006L644.631 250.36L642.182 247.872L642.195 247.865Z" fill="#3795FC" stroke="#263994" stroke-miterlimit="10"/>
<path d="M664.305 302.501C666.635 302.619 668.056 296.759 668.141 294.278C668.233 291.79 669.235 290.147 668.901 289.656C668.567 289.165 665.837 287.449 665.837 287.449L662.884 291.299C662.884 291.299 663.133 293.846 663.021 295.011C662.917 296.177 661.98 302.396 664.305 302.508V302.501Z" fill="white" stroke="#263994" stroke-miterlimit="10"/>
<path d="M660.318 289.204L662.884 291.292L665.837 287.442C665.837 287.442 663.604 282.467 659.859 278.296C659.728 278.682 659.656 278.892 659.656 278.892C659.656 278.892 660.894 282.015 660.318 289.197V289.204Z" fill="#80C1FF" stroke="#263994" stroke-miterlimit="10"/>
<path d="M652.972 217.577L659.976 221.621V213.533L652.972 209.489V217.577Z" fill="#80C1FF"/>
<path d="M645.966 213.566L652.972 217.61V209.522L645.966 205.478V213.566Z" fill="#E0E7F7"/>
<path d="M638.961 209.559L645.965 213.603V205.514L638.961 201.47V209.559Z" fill="#3795FC"/>
<path d="M652.972 225.696L659.976 229.74V221.652L652.972 217.607V225.696Z" fill="#E0E7F7"/>
<path d="M645.966 221.685L652.972 225.732V217.641L645.966 213.597V221.685Z" fill="white"/>
<path d="M638.961 217.677L645.965 221.722V213.633L638.961 209.589V217.677Z" fill="#E0E7F7"/>
<path d="M652.972 233.815L659.976 237.859V229.771L652.972 225.727V233.815Z" fill="#3795FC"/>
<path d="M645.966 229.804L652.972 233.851V225.76L645.966 221.716V229.804Z" fill="#80C1FF"/>
<path d="M638.961 225.796L645.965 229.84V221.752L638.961 217.708V225.796Z" fill="white"/>
<path d="M659.976 213.533L638.961 201.47V225.796L659.976 237.859V213.533Z" stroke="#263994" stroke-miterlimit="10"/>
<path d="M653.638 207.546L661.98 212.362V221.994" stroke="#263994" stroke-miterlimit="10"/>
<path d="M661.98 231.66V241.329L653.638 236.513" stroke="#263994" stroke-miterlimit="10"/>
<path d="M645.299 231.739L636.958 226.967V217.298" stroke="#263994" stroke-miterlimit="10"/>
<path d="M636.958 207.63V198L645.299 202.774" stroke="#263994" stroke-miterlimit="10"/>
<path d="M962.012 24.8898C962.012 15.0714 954.052 7.11829 944.24 7.11829C941.907 7.11829 939.683 7.57397 937.642 8.38812C932.332 3.80701 925.266 1.0061 917.495 1.0061C904.766 1.0061 893.909 8.52178 889.625 19.0936C880.803 20.1325 873.956 27.636 873.956 36.7375C873.956 38.0134 874.096 39.2589 874.351 40.4558C866.179 42.0537 860.006 49.2535 860.006 57.8932C860.006 67.7115 867.965 75.6647 877.778 75.6647C884.643 75.6647 890.597 71.7701 893.556 66.0711C898.265 69.431 904.019 71.4117 910.24 71.4117C920.83 71.4117 930.078 65.6883 935.072 57.1641C943.797 56.593 950.796 49.7274 951.586 41.0634C957.734 38.2686 962.012 32.0774 962.012 24.8776V24.8898Z" fill="white"/>
<path d="M872.394 41.8959C872.394 41.8959 876.775 40.3466 881.423 41.3126C881.423 41.3126 878.13 39.259 873.828 39.7633L872.394 41.8959Z" fill="#E0E7F7"/>
<path d="M883.786 21.7788C886.812 20.187 893.593 20.266 896.46 22.7084C896.46 22.7084 894.717 20.1141 890.336 18.3704L883.786 21.7788Z" fill="#E0E7F7"/>
<path d="M936.451 8.54599C937.666 9.59102 938.626 10.9277 939.215 12.4162C940.995 9.71253 944.337 8.16322 947.575 8.31511C946.622 7.29439 945.303 6.89339 943.906 6.85694C942.508 6.82048 941.135 7.16073 939.774 7.49489C938.608 7.78045 937.623 8.26043 936.451 8.55207V8.54599Z" fill="#E0E7F7"/>
<path d="M961.058 30.6558C959.466 35.2915 956.009 39.0646 951.586 41.0756C950.796 49.7396 943.79 56.5991 935.072 57.1763C930.071 65.6945 920.83 71.4178 910.234 71.4178C904.013 71.4178 898.259 69.4372 893.544 66.0834C890.585 71.7824 884.631 75.6769 877.765 75.6769C876.058 75.6769 874.412 75.4339 872.85 74.9843C876.234 73.7631 879.886 71.8857 883.355 68.9875C888.422 64.7649 891.199 59.9833 892.651 56.8968C893.514 57.4194 903.612 63.3553 914.05 58.4522C920.593 55.3718 923.546 49.7822 924.433 47.9108C925.776 48.1417 932.095 49.0652 937.921 44.9641C941.949 42.1267 943.663 38.3537 944.276 36.7497C945.534 37.1082 949.514 38.0682 954.046 36.288C958.105 34.684 960.286 31.798 961.051 30.6618H961.058V30.6558Z" fill="#E0E7F7"/>
<path d="M958.311 35.735C958.342 35.6924 958.378 35.6499 958.409 35.6074C958.652 35.2914 958.883 34.9633 959.101 34.6292C959.314 34.3072 959.514 33.973 959.703 33.6328C959.733 33.5781 959.763 33.5295 959.794 33.4748C960.177 32.7761 960.517 32.0531 960.809 31.3057C960.827 31.2632 960.839 31.2268 960.851 31.1842C960.918 31.008 960.991 30.8318 961.052 30.6496H961.045C961.045 30.6496 961.033 30.6678 961.027 30.6739C961.653 28.8572 962.005 26.913 962.005 24.8837C962.005 15.0653 954.046 7.11219 944.234 7.11219C941.901 7.11219 939.677 7.56787 937.636 8.38201C932.325 3.80091 925.259 1 917.489 1C904.76 1 893.903 8.51568 889.619 19.0875C880.797 20.1264 873.95 27.6299 873.95 36.7314C873.95 38.0073 874.09 39.2528 874.345 40.4497C866.173 42.0476 860 49.2474 860 57.8871C860 65.9982 865.438 72.8334 872.862 74.966C872.881 74.966 872.893 74.972 872.911 74.9781C873.263 75.0753 873.622 75.1665 873.98 75.2454C874.011 75.2515 874.041 75.2576 874.071 75.2697C874.442 75.3487 874.819 75.4156 875.195 75.4702C875.268 75.4824 875.347 75.4885 875.42 75.5006C875.718 75.5431 876.022 75.5735 876.325 75.5978C876.429 75.6039 876.532 75.6161 876.635 75.6221C877.012 75.6464 877.383 75.6647 877.765 75.6647C884.631 75.6647 890.579 71.7701 893.544 66.0711C894.48 66.7394 895.458 67.347 896.467 67.8999C900.555 70.1357 905.24 71.4116 910.228 71.4116C915.216 71.4116 920.156 70.0628 924.324 67.7115C928.765 65.2083 932.483 61.5629 935.06 57.1701C936.518 57.0729 937.927 56.7995 939.27 56.3681C945.443 54.4057 950.158 49.1623 951.355 42.6856C951.452 42.157 951.525 41.6163 951.579 41.0694C951.604 41.0573 951.634 41.0451 951.658 41.033C951.968 40.8872 952.278 40.7353 952.582 40.5712C952.685 40.5166 952.782 40.4619 952.886 40.4072C953.141 40.2674 953.39 40.1156 953.633 39.9637C953.712 39.9151 953.785 39.8725 953.864 39.8239C954.18 39.6234 954.484 39.4108 954.787 39.186C954.842 39.1495 954.891 39.107 954.945 39.0645C955.201 38.87 955.45 38.6695 955.693 38.469C955.76 38.4083 955.832 38.3536 955.899 38.2928C956.477 37.7885 957.023 37.2478 957.534 36.6767C957.576 36.6281 957.625 36.5734 957.667 36.5248C957.892 36.2696 958.105 36.0023 958.311 35.735Z" stroke="#263994" stroke-linecap="round" stroke-linejoin="round"/>
<path d="M1096.42 400.61L1037 365.99L1092.18 335.37L1149.28 368.76L1096.42 400.61Z" fill="#E0E7F7"/>
<path d="M1037.29 335.2L1082.23 361.14L1136.27 329.94L1091.33 304L1037.29 335.2Z" fill="white" stroke="#263994" stroke-linecap="round" stroke-linejoin="round"/>
<path d="M1136.27 329.94V360.69L1082.23 391.89V361.14L1136.27 329.94Z" fill="#E0E7F7" stroke="#263994" stroke-linejoin="round"/>
<path d="M1037.29 335.2L1082.23 361.14V391.89L1037.29 365.95V335.2Z" fill="white" stroke="#263994" stroke-linecap="round" stroke-linejoin="round"/>
<path d="M984.05 479.77L915.76 440.11L952.35 422.49L1017.16 460.26L984.05 479.77Z" fill="#E0E7F7"/>
<path d="M1004.64 421.22L971.52 440.34L919.35 410.22L914 407.13L947.12 388L985.59 410.22L1004.64 421.22Z" fill="white" stroke="#263994" stroke-linecap="round" stroke-linejoin="round"/>
<path d="M914 439V407.13L971.52 440.34V472.21L914 439Z" fill="white" stroke="#263994" stroke-linecap="round" stroke-linejoin="round"/>
<path d="M1004.64 421.22V453.09L971.52 472.21V440.34L1004.64 421.22Z" fill="#E0E7F7" stroke="#263994" stroke-linejoin="round"/>
<path d="M1074.43 452.03L1015 417.41L1069.26 387.81L1126.36 421.2L1074.43 452.03Z" fill="#E0E7F7"/>
<path d="M1040.23 355.36L969 314.23L1021.37 284L1092.6 325.13L1040.23 355.36Z" fill="white" stroke="#263994" stroke-linecap="round" stroke-linejoin="round"/>
<path d="M1092.6 325.13V401.55L1040.23 431.79V355.36L1092.6 325.13Z" fill="#E0E7F7" stroke="#263994" stroke-linejoin="round"/>
<path d="M969 314.23L1040.23 355.36V431.79L969 390.66V314.23Z" fill="white" stroke="#263994" stroke-linecap="round" stroke-linejoin="round"/>
<path d="M946.41 569.67L794 482.06L857.52 449.92L1005.46 535.71L946.41 569.67Z" fill="#E0E7F7"/>
<path d="M912.54 176.22L853.27 142L794 176.22L853.27 210.44L912.54 176.22Z" fill="white" stroke="#263994" stroke-linecap="round" stroke-linejoin="round"/>
<path d="M912.54 481.95L853.27 516.17V210.44L912.54 176.22V481.95Z" fill="#E0E7F7" stroke="#263994" stroke-linejoin="round"/>
<path d="M794 176.22L853.27 210.44V516.17L794 481.95V176.22Z" fill="white" stroke="#263994" stroke-linecap="round" stroke-linejoin="round"/>
<g style="mix-blend-mode:multiply">
<path d="M165.432 597.18L3.14599 502.488C-1.51379 499.792 -0.929986 495.1 4.45158 491.99L24.0248 480.686C29.4063 477.576 37.5477 477.236 42.2075 479.932L204.493 574.624C209.153 577.32 208.569 582.012 203.187 585.122L183.614 596.427C178.233 599.537 170.091 599.876 165.432 597.18Z" fill="#E0E6F9"/>
</g>
<path d="M140.753 299.719C126.689 302.553 100.258 304.262 67.1304 289.518C57.8745 285.4 49.351 289.348 47.2494 298.615L30.5421 372.545C12.1259 454.033 72.979 535.011 95.0784 547.77C117.178 560.528 196.362 560.401 214.779 478.913L231.486 404.983C233.577 395.716 228.599 383.966 219.831 377.682C188.465 355.19 168.818 326.871 159.127 310.333C154.743 302.85 147.111 298.445 140.742 299.719H140.753Z" fill="white" stroke="#263994" stroke-miterlimit="10"/>
<path d="M98.4008 533.068C93.5712 530.277 75.5159 512.826 60.0717 481.269C48.2684 457.153 36.0617 420.151 44.9354 380.867L61.6427 306.936C61.9399 305.641 62.8846 304.813 64.1053 304.792C64.5511 304.792 65.0287 304.888 65.4958 305.1C101.585 321.16 130.786 319.334 144.977 316.818C146.389 316.564 148.045 317.53 149.032 319.154C158.946 335.585 180.663 366.813 214.821 391.311C216.519 392.511 217.506 394.825 217.093 396.693L200.385 470.623C191.501 509.907 167.321 525.893 148.597 532.389C124.099 540.881 103.23 535.871 98.4008 533.09V533.068ZM67.6611 313.539L51.5801 384.698C43.2371 421.626 54.7114 456.431 65.8248 479.115C80.0801 508.241 96.5539 524.333 99.9399 526.286C103.326 528.239 122.432 532.686 145.041 524.842C162.651 518.739 185.398 503.698 193.751 466.77L209.832 395.61C177.468 371.643 156.186 342.166 145.455 324.907C130.308 327.231 102.148 328.155 67.6717 313.528L67.6611 313.539Z" fill="#80C1FF" stroke="#263994" stroke-miterlimit="10"/>
<path d="M255.04 382.862L230.329 391.704C228.344 386.259 224.671 381.143 219.842 377.693C188.476 355.19 168.828 326.881 159.137 310.344C154.753 302.86 147.122 298.455 140.753 299.729C126.689 302.563 100.258 304.272 67.1411 289.529C63.012 287.692 59.0422 287.459 55.7092 288.595L78.9657 280.273C82.5534 278.521 87.0964 278.521 91.8305 280.623C124.958 295.356 151.389 293.647 165.453 290.824C171.822 289.539 179.453 293.944 183.837 301.438C193.528 317.976 213.165 346.295 244.542 368.787C249.382 372.258 253.076 377.406 255.04 382.873V382.862Z" fill="white" stroke="#263994" stroke-miterlimit="10"/>
<path d="M256.186 396.067L239.479 469.997C234.946 490.037 226.741 505.163 216.604 516.382C206.478 527.602 194.42 534.915 182.192 539.342H182.181C182.181 539.342 182.139 539.363 182.118 539.373L159.732 547.409C183.37 538.132 205.979 517.773 214.768 478.913L231.475 404.983C232.42 400.811 231.921 396.141 230.308 391.693L255.018 382.852C256.621 387.278 257.099 391.927 256.165 396.067H256.186Z" fill="#E0E7F7" stroke="#263994" stroke-miterlimit="10"/>
<path d="M208.42 319.218C208.569 319.409 223.578 338.706 234.193 347.951" stroke="#263994" stroke-miterlimit="10"/>
<path d="M234.224 337.241C234.362 337.369 247.779 350.202 255.114 355.764" stroke="#263994" stroke-miterlimit="10"/>
<path d="M18.3142 417.635C16.584 402.701 17.4969 390.154 18.5689 382.257C19.7365 373.67 21.2863 368.692 21.3606 368.49" stroke="#263994" stroke-miterlimit="10"/>
<path d="M248.533 472.226C243.172 495.96 236.963 504.452 236.698 504.802" stroke="#263994" stroke-miterlimit="10"/>
<path d="M137.738 410.566L161.791 424.259L167.99 396.863L143.926 383.17L137.738 410.566Z" fill="#80C1FF"/>
<path d="M113.654 396.99L137.706 410.683L143.905 383.287L119.842 369.594L113.654 396.99Z" fill="#E0E7F7"/>
<path d="M89.5589 383.414L113.622 397.107L119.81 369.711L95.7578 356.018L89.5589 383.414Z" fill="#3795FC"/>
<path d="M131.518 438.058L155.581 451.75L161.77 424.365L137.717 410.662L131.518 438.058Z" fill="#E0E7F7"/>
<path d="M107.434 424.482L131.497 438.174L137.685 410.789L113.622 397.085L107.434 424.482Z" fill="white"/>
<path d="M83.3494 410.906L107.413 424.598L113.601 397.213L89.5376 383.51L83.3494 410.906Z" fill="#E0E7F7"/>
<path d="M125.309 465.549L149.361 479.242L155.56 451.856L131.497 438.153L125.309 465.549Z" fill="#3795FC"/>
<path d="M101.224 451.974L125.277 465.666L131.476 438.281L107.413 424.578L101.224 451.974Z" fill="#80C1FF"/>
<path d="M77.1293 438.397L101.192 452.09L107.381 424.705L83.3282 411.001L77.1293 438.397Z" fill="white"/>
<path d="M167.99 396.863L95.7578 356.018L77.1293 438.397L149.361 479.242L167.99 396.863Z" stroke="#263994" stroke-miterlimit="10"/>
<path d="M148.003 376.599L176.651 392.903L169.274 425.522" stroke="#263994" stroke-miterlimit="10"/>
<path d="M161.876 458.257L154.477 490.992L125.829 474.688" stroke="#263994" stroke-miterlimit="10"/>
<path d="M97.1483 458.522L68.4678 442.357L75.8662 409.621" stroke="#263994" stroke-miterlimit="10"/>
<path d="M83.2751 376.886L90.6416 344.268L119.322 360.434" stroke="#263994" stroke-miterlimit="10"/>
<path d="M1001.99 30.8982C1001.99 32.6226 1001.67 34.274 1001.08 35.7913C999.55 39.7582 996.205 42.8293 992.068 43.981C989.959 51.9391 982.714 57.795 974.098 57.795C970.667 57.795 967.462 56.8688 964.701 55.2479C962.849 58.0631 959.668 59.9156 956.049 59.9156C953.599 59.9156 951.344 59.0625 949.571 57.6366C947.207 55.7354 945.696 52.8227 945.696 49.5566C945.696 44.0236 950.04 39.5022 955.5 39.2158V39.2037C955.5 28.93 963.824 20.6062 974.098 20.6062C975.755 20.6062 977.364 20.8256 978.893 21.2338C981.343 18.8208 984.707 17.3279 988.424 17.3279C995.925 17.3279 1002 23.4092 1002 30.9043L1001.99 30.8982Z" fill="#E0E7F7"/>
<path d="M1001.99 30.8982C1001.99 32.6226 1001.67 34.274 1001.08 35.7913C997.869 39.4718 993.146 41.7934 987.875 41.7934C986.73 41.7934 985.615 41.6837 984.53 41.4704C981.776 47.5396 975.664 51.7563 968.565 51.7563C966.907 51.7563 965.305 51.5309 963.787 51.0982C961.764 55.1992 957.542 58.0205 952.661 58.0205C951.594 58.0205 950.552 57.8864 949.565 57.6305C947.201 55.7293 945.69 52.8166 945.69 49.5505C945.69 44.0175 950.034 39.4961 955.494 39.2097V39.1976C955.494 28.9239 963.818 20.6001 974.092 20.6001C975.749 20.6001 977.358 20.8195 978.887 21.2277C981.337 18.8147 984.7 17.3218 988.418 17.3218C995.919 17.3218 1001.99 23.4031 1001.99 30.8982Z" fill="white"/>
<path d="M976.937 21.3799C978.51 21.6237 981.575 22.361 983.561 23.7564C983.561 23.7564 982.336 22.2513 978.753 20.6731L976.937 21.386V21.3799Z" fill="#E0E7F7"/>
<path d="M953.904 39.9472C955.513 39.5511 958.864 39.7156 959.632 40.2701C959.632 40.2701 958.236 38.9905 954.952 38.7102L953.904 39.9472Z" fill="#E0E7F7"/>
<path d="M1001.99 30.8982C1001.99 37.1318 997.789 42.3845 992.068 43.9749C989.959 51.933 982.714 57.7889 974.098 57.7889C970.667 57.7889 967.462 56.8627 964.701 55.2418C962.849 58.057 959.668 59.9095 956.049 59.9095C950.333 59.9095 945.69 55.2723 945.69 49.5505C945.69 43.8286 950.034 39.4961 955.494 39.2097V39.1976C955.494 28.9239 963.818 20.6001 974.092 20.6001C975.749 20.6001 977.358 20.8195 978.887 21.2277C981.337 18.8147 984.7 17.3218 988.418 17.3218C995.919 17.3218 1001.99 23.4031 1001.99 30.8982Z" stroke="#263994" stroke-linecap="round" stroke-linejoin="round"/>
</svg>
