<svg width="1404" height="736" viewBox="0 0 1404 736" fill="none" xmlns="http://www.w3.org/2000/svg">
<path d="M132.198 318.24L2.74854 246L85.7185 198.69L210.688 269.12L132.198 318.24Z" fill="#E0E7F7"/>
<path d="M149.179 98.5699L84.0985 61L1.19849 108.86L66.2786 146.43L149.179 98.5699Z" fill="white" stroke="#263994" stroke-linecap="round" stroke-linejoin="round"/>
<path d="M1.19849 108.86V244.17L66.2786 281.74V146.43L1.19849 108.86Z" fill="white" stroke="#263994" stroke-linecap="round" stroke-linejoin="round"/>
<path d="M149.179 98.5698L66.2786 146.43V281.74L149.179 233.88V98.5698Z" fill="#E0E7F7" stroke="#263994" stroke-linejoin="round"/>
<path d="M52.7086 111.25L35.1587 101.12L53.0187 90.8L70.5686 100.93L52.7086 111.25Z" fill="white" stroke="#263994" stroke-linecap="round" stroke-linejoin="round"/>
<path d="M35.1587 101.12V110.7L52.7086 120.83V111.25L35.1587 101.12Z" fill="white" stroke="#263994" stroke-linecap="round" stroke-linejoin="round"/>
<path d="M73.7185 112.46L55.8585 122.77L52.7085 120.83L70.5685 110.51L73.7185 112.46Z" fill="#E0E7F7"/>
<path d="M70.5685 100.93L52.7085 111.25V120.83L70.5685 110.51V100.93Z" fill="#E0E7F7" stroke="#263994" stroke-linejoin="round"/>
<path d="M1267.21 426.43L1193.2 384L1269.27 342.04L1340.41 383.58L1267.21 426.43Z" fill="#E0E7F7"/>
<path d="M1330.68 352.64L1256.68 395.36L1193.2 358.71L1245.25 328.66L1267.2 316L1289.02 328.59L1330.68 352.64Z" fill="white" stroke="#263994" stroke-linecap="round" stroke-linejoin="round"/>
<path d="M1330.67 352.64V377.65L1256.69 420.36V395.36L1330.67 352.64Z" fill="#E0E7F7" stroke="#263994" stroke-linejoin="round"/>
<path d="M1193.21 358.7L1256.69 395.36V420.36L1193.21 383.71V358.7Z" fill="white" stroke="#263994" stroke-linecap="round" stroke-linejoin="round"/>
<path d="M1281.95 359.05L1247.85 339.36L1265.71 329.05L1299.82 348.74L1281.95 359.05Z" fill="white" stroke="#263994" stroke-linecap="round" stroke-linejoin="round"/>
<path d="M1247.85 339.36V348.94L1281.95 368.63V359.05L1247.85 339.36Z" fill="white" stroke="#263994" stroke-linecap="round" stroke-linejoin="round"/>
<path d="M1303.43 360.44L1285.57 370.76L1281.95 368.63L1299.82 358.32L1303.43 360.44Z" fill="#E0E7F7"/>
<path d="M1299.82 348.74L1281.95 359.05V368.63L1299.82 358.32V348.74Z" fill="#E0E7F7" stroke="#263994" stroke-linejoin="round"/>
<path d="M1250.34 525.91L1097.93 438.3L1139.99 416.87L1287.93 502.67L1250.34 525.91Z" fill="#E0E7F7"/>
<path d="M1097.93 367.78L1071.2 352.35L1108.78 330.66L1135.51 346.09L1097.93 367.78Z" fill="white" stroke="#263994" stroke-linecap="round" stroke-linejoin="round"/>
<path d="M1071.2 352.35V422.8L1097.93 438.23V367.78L1071.2 352.35Z" fill="white" stroke="#263994" stroke-linecap="round" stroke-linejoin="round"/>
<path d="M1135.51 346.09L1097.93 367.78V438.23L1135.51 416.54V346.09Z" fill="#E0E7F7" stroke="#263994" stroke-linejoin="round"/>
<path d="M1135.84 367.78L1109.11 352.35L1146.69 330.66L1173.42 346.09L1135.84 367.78Z" fill="white" stroke="#263994" stroke-linecap="round" stroke-linejoin="round"/>
<path d="M1109.11 352.35V445.95L1135.84 461.38V367.78L1109.11 352.35Z" fill="white" stroke="#263994" stroke-linecap="round" stroke-linejoin="round"/>
<path d="M1173.42 346.09L1135.84 367.78V461.38L1173.42 439.69V346.09Z" fill="#E0E7F7" stroke="#263994" stroke-linejoin="round"/>
<path d="M1195.5 316.9L1156.62 294.45L1195.5 272L1234.38 294.45L1195.5 316.9Z" fill="white" stroke="#263994" stroke-linecap="round" stroke-linejoin="round"/>
<path d="M1156.62 294.45V471.25L1195.5 493.7V316.9L1156.62 294.45Z" fill="white" stroke="#263994" stroke-linecap="round" stroke-linejoin="round"/>
<path d="M1234.38 294.45V471.25L1195.5 493.7V316.9L1234.38 294.45Z" fill="#E0E7F7" stroke="#263994" stroke-linejoin="round"/>
<g style="mix-blend-mode:multiply">
<path d="M1089.73 691.504C1081.37 696.329 1067.82 696.329 1059.47 691.504C1051.11 686.68 1051.11 678.857 1059.47 674.039C1067.82 669.215 1081.37 669.215 1089.73 674.039C1098.08 678.864 1098.08 686.687 1089.73 691.504Z" fill="#E0E6F9"/>
</g>
<path d="M1078.69 593.544C1078.14 593.982 1077.42 594.183 1076.63 594.232C1076.23 594.252 1075.81 594.232 1075.4 594.19C1072.82 593.919 1070.05 592.593 1070.05 592.593C1070.14 592.17 1070.22 591.92 1070.22 591.92C1067.94 591.295 1066.64 589.47 1068.1 588.019C1069.55 586.561 1071.13 589.206 1071.13 589.206C1074.5 587.575 1076.99 585.444 1078 583.875C1078.83 586.152 1080.69 591.948 1078.69 593.544Z" fill="white" stroke="#263994" stroke-miterlimit="10"/>
<path d="M1082.94 634.146C1082.76 643.711 1081.51 650.716 1081.51 650.716C1081.01 653.964 1079.44 666.716 1079.76 673.283C1079.76 673.283 1076.81 674.06 1075.79 673.47C1075.74 673.442 1075.68 673.38 1075.63 673.304C1074.62 671.749 1073.4 661.295 1074.13 655.311C1073.65 656.63 1073.17 657.914 1072.89 659.032C1072.14 661.975 1071.78 680.474 1071.78 680.474C1071.45 680.905 1071.02 681.12 1070.57 681.217C1070.57 681.217 1070.56 681.217 1070.55 681.217C1070.36 681.231 1070.16 681.259 1069.96 681.279H1069.93C1069.07 681.279 1068.32 680.967 1068.32 680.967C1068.32 680.967 1065.26 667.528 1065.11 661.774C1064.96 656.026 1067.75 652.27 1067.94 651.021C1068.12 649.82 1066.92 646.551 1065.61 638.727C1066.55 639.304 1067.91 639.609 1069.49 638.38C1072.5 636.055 1067.62 630.418 1067.62 630.418C1067.22 629.072 1066.92 627.461 1066.69 625.83C1067.32 624.344 1067.98 623.268 1068.32 622.526C1068.32 622.526 1075.99 624.941 1081.24 619.11C1081.24 619.11 1083.14 624.566 1082.95 634.132L1082.94 634.146Z" fill="#80C1FF" stroke="#263994" stroke-miterlimit="10"/>
<path d="M1074.13 688.297C1073.58 688.929 1068.82 689.297 1067.7 687.506C1066.57 685.715 1068.32 680.981 1068.32 680.981C1068.32 680.981 1069.26 681.335 1069.93 681.293H1069.94C1069.94 681.293 1069.94 681.293 1069.95 681.293C1071.37 681.113 1071.77 680.481 1071.77 680.481C1071.9 680.875 1072.04 681.236 1072.18 681.564C1072.61 682.557 1073.24 683.05 1073.75 684.001C1074.19 684.82 1075.18 687.069 1074.12 688.297H1074.13Z" fill="white" stroke="#263994" stroke-miterlimit="10"/>
<path d="M1086.51 683.036C1086.18 684.056 1085.22 683.869 1083.22 683.869C1081.22 683.869 1078.22 680.891 1077.63 680.349C1077.05 679.808 1074.29 678.954 1074.29 677.434C1074.29 675.914 1075.54 673.456 1075.62 673.304C1075.68 673.387 1075.73 673.442 1075.78 673.47C1076.81 674.067 1079.75 673.283 1079.75 673.283C1079.75 673.283 1080.85 674.74 1081.21 676.177C1081.56 677.614 1086.83 682.015 1086.5 683.036H1086.51Z" fill="white" stroke="#263994" stroke-miterlimit="10"/>
<path d="M1078 583.875C1076.99 585.444 1074.49 587.575 1071.13 589.206C1071.13 589.206 1069.55 586.561 1068.1 588.019C1066.64 589.47 1067.94 591.302 1070.22 591.92C1070.22 591.92 1070.14 592.177 1070.05 592.593C1069.82 593.739 1069.55 596.127 1070.86 598.077C1071.42 598.917 1071.95 599.577 1072.44 600.194C1073.5 601.548 1074.32 602.742 1074.7 605.373C1074.7 605.373 1073.32 603.915 1070.9 602.457C1069.71 601.742 1067.64 600.194 1066.85 597.196L1066.48 600.174C1066.09 600.451 1065.67 600.812 1065.28 601.257C1064.33 601.402 1063.58 602.041 1062.97 602.992C1062.97 602.992 1063.13 599.833 1063.68 598.14C1064.24 596.453 1064.87 591.684 1065.1 588.276C1065.15 586.464 1065.26 584.604 1066.85 582.681C1067.1 582.375 1069.02 580.425 1071.69 580.071C1072.45 579.967 1075.52 579.731 1077.87 581.542C1078.13 581.744 1078.26 581.952 1078.38 582.139C1078.63 582.521 1078.49 583.139 1078.01 583.875H1078Z" fill="#263994" stroke="#263994" stroke-miterlimit="10"/>
<path d="M1099.07 618.527C1098.87 622.324 1094.98 621.901 1094.98 621.901C1092.65 621.547 1090.59 618.236 1090.59 618.236L1091.81 614.744C1091.81 614.744 1099.27 614.73 1099.07 618.52V618.527Z" fill="white" stroke="#263994" stroke-miterlimit="10"/>
<path d="M1075.4 594.19L1074.93 598.639C1074.93 598.639 1074.09 600.201 1072.44 600.194C1071.95 599.577 1071.42 598.917 1070.86 598.077C1069.55 596.127 1069.82 593.739 1070.05 592.593C1070.05 592.593 1072.82 593.926 1075.4 594.19Z" fill="white" stroke="#263994" stroke-miterlimit="10"/>
<path d="M1069.48 638.394C1067.91 639.623 1066.54 639.31 1065.6 638.741C1064.76 638.228 1064.26 637.506 1064.26 637.506C1063 635.506 1064.16 631.793 1064.16 631.793L1065.24 631.369L1067.61 630.432C1067.61 630.432 1072.49 636.069 1069.48 638.394Z" fill="white" stroke="#263994" stroke-miterlimit="10"/>
<path d="M1091.81 614.751C1091.81 614.751 1084.68 611.28 1081.45 608.99C1082.16 608.448 1083.26 607.365 1083.26 605.824C1083.26 603.54 1079.78 599.827 1079.38 597.793C1078.97 595.759 1076.63 594.225 1076.63 594.225C1076.23 594.246 1075.81 594.225 1075.4 594.183L1074.93 598.633C1074.93 598.633 1074.09 600.195 1072.44 600.188C1073.5 601.541 1074.32 602.735 1074.7 605.366C1074.7 605.366 1073.32 603.908 1070.9 602.451C1069.71 601.736 1067.64 600.188 1066.85 597.189L1066.48 600.167C1066.09 600.444 1065.67 600.805 1065.28 601.25C1064.33 601.395 1063.58 602.034 1062.97 602.985C1060.84 606.324 1060.63 613.55 1060.7 617.41C1060.78 622.373 1064.17 631.786 1064.17 631.786L1065.25 631.362L1067.62 630.425C1067.23 629.079 1066.92 627.468 1066.7 625.837C1066.1 621.498 1066.02 617.042 1066.02 617.042C1066.02 617.042 1066.5 615.334 1067.04 613.293C1068.14 616.556 1068.98 619.964 1068.33 622.54C1068.33 622.54 1076 624.955 1081.25 619.124C1081.25 619.124 1081.25 617.611 1081.21 615.709C1082.67 616.959 1090.61 618.243 1090.61 618.243L1091.84 614.751H1091.81Z" fill="#3795FC" stroke="#263994" stroke-miterlimit="10"/>
<g style="mix-blend-mode:multiply">
<path d="M1147.78 731.485C1139.42 736.31 1125.88 736.31 1117.52 731.485C1109.17 726.661 1109.17 718.837 1117.52 714.02C1125.88 709.203 1139.42 709.196 1147.78 714.02C1156.14 718.844 1156.14 726.668 1147.78 731.485Z" fill="#E0E6F9"/>
</g>
<path d="M1145.38 670.614C1145.38 670.614 1144.55 671.961 1143.14 672.391C1142.94 671.447 1142.68 670.663 1142.45 670.052C1143.16 669.566 1143.57 669.247 1143.57 669.247C1143.57 668.032 1143.35 666.276 1143.07 664.193L1145.17 664.894C1145.17 664.894 1146.53 668.546 1145.37 670.614H1145.38Z" fill="white" stroke="#263994" stroke-miterlimit="10"/>
<path d="M1136.47 634.643C1135.88 635.767 1130.64 637.551 1130.07 636.337C1129.98 636.156 1129.93 635.906 1129.89 635.608C1129.76 634.664 1129.82 633.261 1129.91 632.192C1131.72 631.693 1133.41 630.561 1133.51 630.492C1134.29 631.061 1135.11 631.394 1135.85 631.116C1135.88 631.103 1135.92 631.089 1135.95 631.075C1136.19 631.887 1136.38 632.685 1136.48 633.338C1136.57 633.942 1136.59 634.414 1136.46 634.643H1136.47Z" fill="white" stroke="#263994" stroke-miterlimit="10"/>
<path d="M1133.52 630.485C1133.41 630.554 1131.73 631.693 1129.92 632.185C1128.01 632.713 1125.97 632.519 1125.53 629.61C1124.66 623.862 1126.84 621.19 1126.84 621.19C1126.94 621.239 1127.04 621.287 1127.14 621.343C1127.85 622.266 1128.7 622.856 1128.7 622.856C1127.7 624.564 1128.62 627.229 1128.62 627.229C1128.62 627.229 1129.53 626.896 1130.41 627.479C1130.73 627.694 1131.28 628.347 1131.95 629.048C1132.43 629.548 1132.96 630.068 1133.52 630.478V630.485Z" fill="white" stroke="#263994" stroke-miterlimit="10"/>
<path d="M1135.97 631.075C1135.97 631.075 1135.9 631.103 1135.86 631.116C1135.11 631.394 1134.29 631.054 1133.52 630.492C1132.97 630.082 1132.43 629.561 1131.95 629.062C1131.29 628.361 1130.74 627.708 1130.41 627.493C1129.54 626.91 1128.62 627.243 1128.62 627.243C1128.62 627.243 1127.71 624.577 1128.71 622.87C1128.71 622.87 1127.86 622.28 1127.14 621.357C1126.26 620.211 1125.6 618.552 1127 616.872C1128.73 614.797 1136.58 616.581 1138.46 620.579C1140.31 624.515 1137.99 630.186 1135.97 631.082L1135.97 631.075Z" fill="#263994" stroke="#263994" stroke-miterlimit="10"/>
<path d="M1143.21 718.261C1140.74 717.845 1138.27 717.428 1135.8 717.012C1135.63 720.406 1135.45 722.884 1135.45 722.884C1132.05 724.002 1129.89 722.648 1128.88 721.704C1128.88 721.704 1128.88 721.704 1128.87 721.704C1128.42 721.274 1128.2 720.927 1128.2 720.927C1128.53 707.925 1126.53 699.755 1125.28 690.335C1124.06 681.11 1124.59 673.911 1124.61 673.62C1128.01 677.861 1135.53 674.335 1140.01 671.628C1141 671.031 1141.84 670.475 1142.46 670.052C1142.69 670.656 1142.94 671.447 1143.14 672.391C1143.34 673.28 1143.48 674.307 1143.49 675.438C1143.52 678.319 1142.71 680.443 1142.46 681.165C1140.44 686.989 1143.38 693.292 1144.28 702.004C1144.95 708.418 1143.21 718.261 1143.21 718.261Z" fill="#80C1FF" stroke="#263994" stroke-miterlimit="10"/>
<path d="M1133.99 729.93C1132.44 731.02 1128.15 727.889 1126.73 727.806C1122.15 727.348 1119.89 722.78 1120.53 721.468C1121.55 719.344 1128.57 721.607 1128.87 721.704H1128.88C1129.89 722.649 1132.05 724.002 1135.45 722.885C1135.95 726.223 1135.53 728.84 1133.99 729.923V729.93Z" fill="white" stroke="#263994" stroke-miterlimit="10"/>
<path d="M1142.86 724.016C1141.65 725.89 1135.45 722.892 1135.45 722.892C1135.45 722.892 1135.63 720.413 1135.81 717.019C1138.28 717.436 1140.74 717.852 1143.21 718.269C1143.21 718.269 1143.54 722.975 1142.86 724.016Z" fill="white" stroke="#263994" stroke-miterlimit="10"/>
<path d="M1117.04 670.08C1117.04 670.08 1116.61 673.953 1114.65 675.272C1114.65 675.272 1111.31 677.32 1109.51 673.981C1107.7 670.642 1114.43 667.456 1114.43 667.456L1117.04 670.08H1117.04Z" fill="white" stroke="#263994" stroke-miterlimit="10"/>
<path d="M1145.85 650.018C1145.3 644.229 1144.44 637.871 1142.29 635.261C1141.79 634.483 1141.08 633.858 1140.04 633.407C1139.22 633.053 1137.96 633.067 1136.49 633.338C1136.59 633.942 1136.6 634.414 1136.47 634.643C1135.88 635.767 1130.64 637.551 1130.07 636.337C1129.98 636.156 1129.93 635.906 1129.89 635.608C1127.44 636.781 1125.35 638.169 1124.6 639.287C1124.59 639.314 1124.56 639.342 1124.56 639.37C1123.06 640.46 1121.45 642.889 1121.09 647.158C1120.72 651.671 1120.65 656.544 1120.65 656.544C1120.65 656.544 1120.59 661.757 1114.44 667.449L1117.04 670.073C1117.04 670.073 1121.32 667.352 1124.71 663.263C1124.47 667.74 1123.86 672.405 1123.86 672.405C1124.08 672.863 1124.33 673.259 1124.61 673.613C1128.01 677.854 1135.53 674.328 1140.01 671.621C1141 671.024 1141.84 670.468 1142.46 670.045C1143.17 669.559 1143.58 669.24 1143.58 669.24C1143.58 668.025 1143.35 666.269 1143.08 664.186L1145.18 664.887C1145.18 664.887 1146.4 655.926 1145.85 650.005V650.018Z" fill="#3795FC" stroke="#263994" stroke-miterlimit="10"/>
<path d="M1135.81 717.012C1135.81 717.012 1136.97 702.372 1136.11 698.061C1135.25 693.757 1134.75 683.06 1134.98 682.2C1135.22 681.339 1137.57 680.79 1138.12 679.222" fill="#80C1FF"/>
<path d="M1135.81 717.012C1135.81 717.012 1136.97 702.372 1136.11 698.061C1135.25 693.757 1134.75 683.06 1134.98 682.2C1135.22 681.339 1137.57 680.79 1138.12 679.222" stroke="#263994" stroke-miterlimit="10"/>
<path d="M1076.37 586.867L1066.38 592.638V581.103L1076.37 575.339V586.867Z" fill="#80C1FF"/>
<path d="M1086.36 581.155L1076.37 586.919V575.39L1086.36 569.626V581.155Z" fill="#E0E7F7"/>
<path d="M1096.34 575.442L1086.36 581.206V569.678L1096.34 563.906V575.442Z" fill="#3795FC"/>
<path d="M1076.37 598.447L1066.38 604.211V592.675L1076.37 586.911V598.447Z" fill="#E0E7F7"/>
<path d="M1086.36 592.727L1076.37 598.491V586.963L1086.36 581.199V592.727Z" fill="white"/>
<path d="M1096.34 587.014L1086.36 592.779V581.25L1096.34 575.486V587.014Z" fill="#E0E7F7"/>
<path d="M1076.37 610.019L1066.38 615.783V604.255L1076.37 598.484V610.019Z" fill="#3795FC"/>
<path d="M1086.36 604.3L1076.37 610.064V598.536L1086.36 592.771V604.3Z" fill="#80C1FF"/>
<path d="M1096.34 598.587L1086.36 604.351V592.823L1096.34 587.059V598.587Z" fill="white"/>
<path d="M1066.38 581.103L1096.34 563.906V598.587L1066.38 615.784V581.103Z" stroke="#263994" stroke-miterlimit="10"/>
<path d="M1075.42 572.571L1063.53 579.435V593.17" stroke="#263994" stroke-miterlimit="10"/>
<path d="M1063.53 606.949V620.729L1075.42 613.865" stroke="#263994" stroke-miterlimit="10"/>
<path d="M1087.31 607.06L1099.2 600.255V586.476" stroke="#263994" stroke-miterlimit="10"/>
<path d="M1099.2 572.689V558.961L1087.31 565.766" stroke="#263994" stroke-miterlimit="10"/>
<g style="mix-blend-mode:multiply">
<path d="M73.2485 561.629C82.6485 567.059 97.8885 567.059 107.288 561.629C116.688 556.199 116.688 547.409 107.288 541.979C97.8885 536.549 82.6485 536.549 73.2485 541.979C63.8485 547.409 63.8485 556.199 73.2485 561.629Z" fill="#E0E6F9"/>
</g>
<path d="M78.2584 537.969C78.4684 538.599 78.8285 539.229 79.3285 539.829C79.9285 540.529 80.7285 541.189 81.7385 541.769C86.6885 544.629 94.6985 544.629 99.6485 541.769C100.658 541.179 101.468 540.519 102.058 539.829C102.588 539.199 102.958 538.539 103.158 537.869C103.288 537.449 103.348 537.019 103.348 536.599C103.348 534.729 102.118 532.859 99.6385 531.439C94.6885 528.579 86.6784 528.579 81.7284 531.439C78.6584 533.209 77.4985 535.669 78.2485 537.969H78.2584Z" stroke="#263994" stroke-linecap="round" stroke-linejoin="round"/>
<path d="M79.3284 539.829C79.9284 540.529 80.7284 541.189 81.7384 541.769C86.6884 544.629 94.6984 544.629 99.6484 541.769C100.658 541.179 101.468 540.519 102.058 539.829C101.618 538.599 100.568 537.419 98.9084 536.459C94.3784 533.839 87.0184 533.839 82.4684 536.459C80.8084 537.419 79.7584 538.589 79.3184 539.829H79.3284Z" fill="#3795FC" stroke="#263994" stroke-linecap="round" stroke-linejoin="round"/>
<path d="M78.2585 537.969L81.1285 551.659C81.2785 552.949 82.2085 554.219 83.9185 555.209C87.6685 557.369 93.7386 557.369 97.4886 555.209C99.0486 554.309 99.9586 553.169 100.219 551.999L100.259 551.819L103.179 537.879C102.749 539.309 101.579 540.679 99.6685 541.779C94.7285 544.639 86.7085 544.639 81.7585 541.779C79.8885 540.699 78.7286 539.369 78.2686 537.969H78.2585Z" fill="#E0E7F7" stroke="#263994" stroke-linecap="round" stroke-linejoin="round"/>
<path d="M104.229 522.309C97.0885 527.919 80.9885 527.269 75.3985 519.919C74.8885 519.249 74.4685 518.529 74.1485 517.749C71.9985 512.489 75.3385 507.899 79.5585 504.279C81.5585 502.559 82.9385 500.509 82.2485 498.019C81.6185 495.749 79.3285 494.039 78.3885 491.859C77.3385 489.429 77.6685 486.869 79.0185 484.579C80.2285 482.549 82.0485 480.849 82.2785 478.489C82.5285 475.949 81.6685 473.529 83.0185 471.079C84.0785 469.159 85.8685 467.999 88.1485 467.439C89.1585 466.929 90.4485 466.809 91.8585 467.369C94.9885 468.629 96.4685 471.079 96.3585 473.929C96.2485 476.979 95.2285 478.949 98.4485 481.089C100.879 482.699 103.069 484.199 103.859 486.829C104.719 489.689 103.519 492.219 102.449 494.889C100.109 500.739 104.679 504.079 107.409 509.039C107.609 509.399 107.779 509.759 107.929 510.129C109.749 514.479 108.329 519.099 104.239 522.309H104.229Z" fill="#80C1FF"/>
<path d="M104.229 522.309C97.0885 527.919 80.9885 527.269 75.3985 519.919C74.8885 519.249 74.4685 518.529 74.1485 517.749C71.9985 512.489 75.3385 507.899 79.5585 504.279C81.5585 502.559 82.9385 500.509 82.2485 498.019C81.6185 495.749 79.3285 494.039 78.3885 491.859C77.3385 489.429 77.6685 486.869 79.0185 484.579C80.2285 482.549 82.0485 480.849 82.2785 478.489C82.5285 475.949 81.6685 473.529 83.0185 471.079C84.0785 469.159 85.8685 467.999 88.1485 467.439C89.1585 466.929 90.4485 466.809 91.8585 467.369C94.9885 468.629 96.4685 471.079 96.3585 473.929C96.2485 476.979 95.2285 478.949 98.4485 481.089C100.879 482.699 103.069 484.199 103.859 486.829C104.719 489.689 103.519 492.219 102.449 494.889C100.109 500.739 104.679 504.079 107.409 509.039C107.609 509.399 107.779 509.759 107.929 510.129C109.749 514.479 108.329 519.099 104.239 522.309H104.229Z" stroke="#263994" stroke-linecap="round" stroke-linejoin="round"/>
<path d="M90.5684 540.659C90.5684 540.659 89.9384 533.189 91.5584 520.619C93.1784 508.049 93.0284 506.989 90.0284 495.509C87.0284 484.029 89.3384 475.669 89.3384 475.669" stroke="#263994" stroke-linecap="round" stroke-linejoin="round"/>
<path d="M89.7585 494.419C89.7585 494.419 92.7985 490.469 97.5985 489.409" stroke="#263994" stroke-miterlimit="10"/>
<path d="M92.3086 514.329C92.3086 514.329 94.5286 511.309 98.7586 509.489" stroke="#263994" stroke-miterlimit="10"/>
<path d="M92.5885 509.489C92.5885 509.489 88.6685 507.569 83.6785 506.899" stroke="#263994" stroke-miterlimit="10"/>
<g style="mix-blend-mode:multiply">
<path d="M1249.83 654.149C1241.22 659.119 1227.27 659.119 1218.66 654.149C1210.05 649.179 1210.05 641.119 1218.66 636.159C1227.27 631.189 1241.22 631.189 1249.83 636.159C1258.44 641.129 1258.44 649.189 1249.83 654.149Z" fill="#E0E6F9"/>
</g>
<path d="M1245.24 632.489C1245.05 633.069 1244.72 633.639 1244.26 634.189C1243.71 634.829 1242.98 635.439 1242.05 635.969C1237.52 638.589 1230.18 638.589 1225.65 635.969C1224.72 635.429 1223.98 634.829 1223.44 634.189C1222.95 633.619 1222.62 633.009 1222.43 632.399C1222.31 632.009 1222.26 631.619 1222.26 631.229C1222.26 629.519 1223.39 627.809 1225.65 626.499C1230.18 623.879 1237.52 623.879 1242.05 626.499C1244.86 628.129 1245.93 630.379 1245.24 632.479V632.489Z" stroke="#263994" stroke-linecap="round" stroke-linejoin="round"/>
<path d="M1244.26 634.189C1243.71 634.829 1242.98 635.439 1242.05 635.969C1237.52 638.589 1230.18 638.589 1225.65 635.969C1224.72 635.429 1223.98 634.829 1223.44 634.189C1223.84 633.059 1224.8 631.979 1226.33 631.099C1230.48 628.699 1237.22 628.699 1241.38 631.099C1242.9 631.979 1243.87 633.049 1244.27 634.189H1244.26Z" fill="#3795FC" stroke="#263994" stroke-linecap="round" stroke-linejoin="round"/>
<path d="M1245.24 632.479L1242.61 645.009C1242.48 646.189 1241.62 647.359 1240.06 648.259C1236.63 650.239 1231.07 650.239 1227.63 648.259C1226.2 647.439 1225.37 646.399 1225.13 645.319L1225.1 645.159L1222.43 632.389C1222.82 633.699 1223.9 634.949 1225.65 635.959C1230.18 638.579 1237.52 638.579 1242.05 635.959C1243.76 634.969 1244.83 633.749 1245.24 632.469V632.479Z" fill="#E0E7F7" stroke="#263994" stroke-linecap="round" stroke-linejoin="round"/>
<path d="M1238.82 619.539C1232.89 621.029 1225.21 621.879 1219.6 618.749C1218.59 618.189 1217.65 617.499 1216.8 616.659C1212.67 612.039 1215.53 605.529 1219.53 601.859C1219.1 601.409 1218.7 600.959 1218.35 600.499C1205.76 584.529 1236.33 567.279 1243.45 589.779C1244.14 589.779 1244.81 589.829 1245.47 589.919C1249.95 591.169 1252.32 594.129 1253.05 597.739C1254.71 605.849 1248.13 617.199 1238.81 619.549L1238.82 619.539Z" fill="#80C1FF"/>
<path d="M1238.82 619.539C1232.89 621.029 1225.21 621.879 1219.6 618.749C1218.59 618.189 1217.65 617.499 1216.8 616.659C1212.67 612.039 1215.53 605.529 1219.53 601.859C1219.1 601.409 1218.7 600.959 1218.35 600.499C1205.76 584.529 1236.33 567.279 1243.45 589.779C1244.14 589.779 1244.81 589.829 1245.47 589.919C1249.95 591.169 1252.32 594.129 1253.05 597.739C1254.71 605.849 1248.13 617.199 1238.81 619.549L1238.82 619.539Z" stroke="#263994" stroke-linecap="round" stroke-linejoin="round"/>
<path d="M1233.83 633.219C1233.83 633.219 1235.01 630.299 1235.12 619.589C1235.12 619.589 1235.38 606.559 1230.28 592.649" stroke="#263994" stroke-miterlimit="10"/>
<path d="M1234.68 628.479L1242.43 618.119" stroke="#263994" stroke-miterlimit="10"/>
<path d="M1234.68 628.479L1228.39 620.879" stroke="#263994" stroke-miterlimit="10"/>
<path d="M1233.11 602.359C1233.11 602.359 1240 596.629 1241.24 594.529" stroke="#263994" stroke-miterlimit="10"/>
<path d="M1234.49 610.229C1234.49 610.229 1228.03 610.539 1223.44 608.119" stroke="#263994" stroke-miterlimit="10"/>
<path d="M1235.19 51.6358C1235.19 53.7489 1234.8 55.7724 1234.07 57.6316C1232.2 62.4924 1228.1 66.2557 1223.03 67.6669C1220.44 77.4184 1211.57 84.5939 1201.01 84.5939C1196.8 84.5939 1192.88 83.459 1189.49 81.4729C1187.22 84.9225 1183.33 87.1924 1178.89 87.1924C1175.89 87.1924 1173.13 86.147 1170.95 84.3998C1168.06 82.0702 1166.21 78.5011 1166.21 74.4989C1166.21 67.7192 1171.53 62.1788 1178.22 61.8279V61.813C1178.22 49.2241 1188.42 39.0245 1201.01 39.0245C1203.04 39.0245 1205.01 39.2933 1206.88 39.7936C1209.89 36.8368 1214.01 35.0074 1218.56 35.0074C1227.75 35.0074 1235.2 42.4592 1235.2 51.6433L1235.19 51.6358Z" fill="#E0E7F7"/>
<path d="M1235.19 51.6359C1235.19 53.7489 1234.8 55.7724 1234.07 57.6316C1230.14 62.1415 1224.35 64.9864 1217.89 64.9864C1216.49 64.9864 1215.12 64.852 1213.79 64.5906C1210.42 72.0275 1202.93 77.1944 1194.23 77.1944C1192.2 77.1944 1190.23 76.9182 1188.37 76.388C1185.9 81.4131 1180.72 84.8702 1174.74 84.8702C1173.43 84.8702 1172.16 84.706 1170.95 84.3924C1168.05 82.0628 1166.2 78.4937 1166.2 74.4915C1166.2 67.7117 1171.52 62.1714 1178.21 61.8205V61.8055C1178.21 49.2166 1188.41 39.0171 1201 39.0171C1203.03 39.0171 1205 39.2859 1206.88 39.7862C1209.88 36.8293 1214 35 1218.56 35C1227.75 35 1235.19 42.4518 1235.19 51.6359Z" fill="white"/>
<path d="M1204.49 39.9728C1206.41 40.2715 1210.17 41.175 1212.6 42.8848C1212.6 42.8848 1211.1 41.0406 1206.71 39.1067L1204.49 39.9803V39.9728Z" fill="#E0E7F7"/>
<path d="M1176.26 62.724C1178.23 62.2387 1182.34 62.4403 1183.28 63.1197C1183.28 63.1197 1181.57 61.5517 1177.55 61.2083L1176.26 62.724Z" fill="#E0E7F7"/>
<path d="M1235.19 51.6359C1235.19 59.2743 1230.04 65.7106 1223.03 67.6594C1220.44 77.411 1211.57 84.5865 1201.01 84.5865C1196.8 84.5865 1192.88 83.4516 1189.49 81.4654C1187.22 84.915 1183.33 87.1849 1178.89 87.1849C1171.89 87.1849 1166.2 81.5027 1166.2 74.4915C1166.2 67.4802 1171.52 62.1714 1178.21 61.8205V61.8055C1178.21 49.2166 1188.41 39.0171 1201 39.0171C1203.03 39.0171 1205 39.2859 1206.88 39.7862C1209.88 36.8293 1214 35 1218.56 35C1227.75 35 1235.19 42.4518 1235.19 51.6359Z" stroke="#263994" stroke-linecap="round" stroke-linejoin="round"/>
<path d="M211.599 195.28C211.599 198.11 211.069 200.82 210.099 203.31C207.589 209.82 202.098 214.86 195.308 216.75C191.848 229.81 179.958 239.42 165.818 239.42C160.188 239.42 154.928 237.9 150.398 235.24C147.358 239.86 142.138 242.9 136.198 242.9C132.178 242.9 128.478 241.5 125.568 239.16C121.688 236.04 119.208 231.26 119.208 225.9C119.208 216.82 126.338 209.4 135.298 208.93V208.91C135.298 192.05 148.958 178.39 165.818 178.39C168.538 178.39 171.178 178.75 173.688 179.42C177.708 175.46 183.228 173.01 189.328 173.01C201.638 173.01 211.609 182.99 211.609 195.29L211.599 195.28Z" fill="#E0E7F7"/>
<path d="M211.599 195.28C211.599 198.11 211.069 200.82 210.099 203.31C204.829 209.35 197.078 213.16 188.428 213.16C186.548 213.16 184.718 212.98 182.938 212.63C178.418 222.59 168.389 229.51 156.739 229.51C154.019 229.51 151.388 229.14 148.898 228.43C145.578 235.16 138.648 239.79 130.638 239.79C128.888 239.79 127.178 239.57 125.558 239.15C121.678 236.03 119.198 231.25 119.198 225.89C119.198 216.81 126.328 209.39 135.288 208.92V208.9C135.288 192.04 148.948 178.38 165.808 178.38C168.528 178.38 171.168 178.74 173.678 179.41C177.698 175.45 183.218 173 189.318 173C201.628 173 211.599 182.98 211.599 195.28Z" fill="white"/>
<path d="M170.479 179.66C173.059 180.06 178.089 181.27 181.349 183.56C181.349 183.56 179.338 181.09 173.458 178.5L170.479 179.67V179.66Z" fill="#E0E7F7"/>
<path d="M132.678 210.13C135.318 209.48 140.818 209.75 142.078 210.66C142.078 210.66 139.788 208.56 134.398 208.1L132.678 210.13Z" fill="#E0E7F7"/>
<path d="M211.599 195.28C211.599 205.51 204.698 214.13 195.308 216.74C191.848 229.8 179.958 239.41 165.818 239.41C160.188 239.41 154.928 237.89 150.398 235.23C147.358 239.85 142.138 242.89 136.198 242.89C126.818 242.89 119.198 235.28 119.198 225.89C119.198 216.5 126.328 209.39 135.288 208.92V208.9C135.288 192.04 148.948 178.38 165.808 178.38C168.528 178.38 171.168 178.74 173.678 179.41C177.698 175.45 183.218 173 189.318 173C201.628 173 211.599 182.98 211.599 195.28Z" stroke="#263994" stroke-linecap="round" stroke-linejoin="round"/>
</svg>
