<svg width="1404" height="736" viewBox="0 0 1404 736" fill="none" xmlns="http://www.w3.org/2000/svg">
<path d="M211.4 195.28C211.4 198.11 210.87 200.82 209.9 203.31C207.39 209.82 201.9 214.86 195.11 216.75C191.65 229.81 179.76 239.42 165.62 239.42C159.99 239.42 154.73 237.9 150.2 235.24C147.16 239.86 141.94 242.9 136 242.9C131.98 242.9 128.28 241.5 125.37 239.16C121.49 236.04 119.01 231.26 119.01 225.9C119.01 216.82 126.14 209.4 135.1 208.93V208.91C135.1 192.05 148.76 178.39 165.62 178.39C168.34 178.39 170.98 178.75 173.49 179.42C177.51 175.46 183.03 173.01 189.13 173.01C201.44 173.01 211.41 182.99 211.41 195.29L211.4 195.28Z" fill="#E0E7F7"/>
<path d="M211.4 195.28C211.4 198.11 210.87 200.82 209.9 203.31C204.63 209.35 196.88 213.16 188.23 213.16C186.35 213.16 184.52 212.98 182.74 212.63C178.22 222.59 168.19 229.51 156.54 229.51C153.82 229.51 151.19 229.14 148.7 228.43C145.38 235.16 138.45 239.79 130.44 239.79C128.69 239.79 126.98 239.57 125.36 239.15C121.48 236.03 119 231.25 119 225.89C119 216.81 126.13 209.39 135.09 208.92V208.9C135.09 192.04 148.75 178.38 165.61 178.38C168.33 178.38 170.97 178.74 173.48 179.41C177.5 175.45 183.02 173 189.12 173C201.43 173 211.4 182.98 211.4 195.28Z" fill="white"/>
<path d="M170.28 179.66C172.86 180.06 177.89 181.27 181.15 183.56C181.15 183.56 179.14 181.09 173.26 178.5L170.28 179.67V179.66Z" fill="#E0E7F7"/>
<path d="M132.48 210.13C135.12 209.48 140.62 209.75 141.88 210.66C141.88 210.66 139.59 208.56 134.2 208.1L132.48 210.13Z" fill="#E0E7F7"/>
<path d="M211.4 195.28C211.4 205.51 204.5 214.13 195.11 216.74C191.65 229.8 179.76 239.41 165.62 239.41C159.99 239.41 154.73 237.89 150.2 235.23C147.16 239.85 141.94 242.89 136 242.89C126.62 242.89 119 235.28 119 225.89C119 216.5 126.13 209.39 135.09 208.92V208.9C135.09 192.04 148.75 178.38 165.61 178.38C168.33 178.38 170.97 178.74 173.48 179.41C177.5 175.45 183.02 173 189.12 173C201.43 173 211.4 182.98 211.4 195.28Z" stroke="#263994" stroke-linecap="round" stroke-linejoin="round"/>
<path d="M132 318.24L2.55005 246L85.52 198.69L210.49 269.12L132 318.24Z" fill="#E0E7F7"/>
<path d="M148.98 98.5699L83.9 61L1 108.86L66.0801 146.43L148.98 98.5699Z" fill="white" stroke="#263994" stroke-linecap="round" stroke-linejoin="round"/>
<path d="M1 108.86V244.17L66.0801 281.74V146.43L1 108.86Z" fill="white" stroke="#263994" stroke-linecap="round" stroke-linejoin="round"/>
<path d="M148.98 98.5698L66.0801 146.43V281.74L148.98 233.88V98.5698Z" fill="#E0E7F7" stroke="#263994" stroke-linejoin="round"/>
<path d="M52.51 111.25L34.9601 101.12L52.8201 90.8L70.37 100.93L52.51 111.25Z" fill="white" stroke="#263994" stroke-linecap="round" stroke-linejoin="round"/>
<path d="M34.9601 101.12V110.7L52.51 120.83V111.25L34.9601 101.12Z" fill="white" stroke="#263994" stroke-linecap="round" stroke-linejoin="round"/>
<path d="M73.52 112.46L55.66 122.77L52.51 120.83L70.37 110.51L73.52 112.46Z" fill="#E0E7F7"/>
<path d="M70.37 100.93L52.51 111.25V120.83L70.37 110.51V100.93Z" fill="#E0E7F7" stroke="#263994" stroke-linejoin="round"/>
<path d="M1330.01 421.43L1256 379L1332.07 337.04L1403.21 378.58L1330.01 421.43Z" fill="#E0E7F7"/>
<path d="M1393.48 347.64L1319.48 390.36L1256 353.71L1308.05 323.66L1330 311L1351.82 323.59L1393.48 347.64Z" fill="white" stroke="#263994" stroke-linecap="round" stroke-linejoin="round"/>
<path d="M1393.47 347.64V372.65L1319.49 415.36V390.36L1393.47 347.64Z" fill="#E0E7F7" stroke="#263994" stroke-linejoin="round"/>
<path d="M1256.01 353.7L1319.49 390.36V415.36L1256.01 378.71V353.7Z" fill="white" stroke="#263994" stroke-linecap="round" stroke-linejoin="round"/>
<path d="M1344.75 354.05L1310.65 334.36L1328.51 324.05L1362.62 343.74L1344.75 354.05Z" fill="white" stroke="#263994" stroke-linecap="round" stroke-linejoin="round"/>
<path d="M1310.65 334.36V343.94L1344.75 363.63V354.05L1310.65 334.36Z" fill="white" stroke="#263994" stroke-linecap="round" stroke-linejoin="round"/>
<path d="M1366.23 355.44L1348.37 365.76L1344.75 363.63L1362.62 353.32L1366.23 355.44Z" fill="#E0E7F7"/>
<path d="M1362.62 343.74L1344.75 354.05V363.63L1362.62 353.32V343.74Z" fill="#E0E7F7" stroke="#263994" stroke-linejoin="round"/>
<path d="M1291.14 520.91L1138.73 433.3L1180.79 411.87L1328.73 497.67L1291.14 520.91Z" fill="#E0E7F7"/>
<path d="M1138.73 362.78L1112 347.35L1149.58 325.66L1176.31 341.09L1138.73 362.78Z" fill="white" stroke="#263994" stroke-linecap="round" stroke-linejoin="round"/>
<path d="M1112 347.35V417.8L1138.73 433.23V362.78L1112 347.35Z" fill="white" stroke="#263994" stroke-linecap="round" stroke-linejoin="round"/>
<path d="M1176.31 341.09L1138.73 362.78V433.23L1176.31 411.54V341.09Z" fill="#E0E7F7" stroke="#263994" stroke-linejoin="round"/>
<path d="M1176.64 362.78L1149.91 347.35L1187.49 325.66L1214.22 341.09L1176.64 362.78Z" fill="white" stroke="#263994" stroke-linecap="round" stroke-linejoin="round"/>
<path d="M1149.91 347.35V440.95L1176.64 456.38V362.78L1149.91 347.35Z" fill="white" stroke="#263994" stroke-linecap="round" stroke-linejoin="round"/>
<path d="M1214.22 341.09L1176.64 362.78V456.38L1214.22 434.69V341.09Z" fill="#E0E7F7" stroke="#263994" stroke-linejoin="round"/>
<path d="M1236.3 311.9L1197.42 289.45L1236.3 267L1275.18 289.45L1236.3 311.9Z" fill="white" stroke="#263994" stroke-linecap="round" stroke-linejoin="round"/>
<path d="M1197.42 289.45V466.25L1236.3 488.7V311.9L1197.42 289.45Z" fill="white" stroke="#263994" stroke-linecap="round" stroke-linejoin="round"/>
<path d="M1275.18 289.45V466.25L1236.3 488.7V311.9L1275.18 289.45Z" fill="#E0E7F7" stroke="#263994" stroke-linejoin="round"/>
<g style="mix-blend-mode:multiply">
<path d="M1089.53 691.504C1081.17 696.329 1067.63 696.329 1059.27 691.504C1050.91 686.68 1050.91 678.857 1059.27 674.039C1067.63 669.215 1081.17 669.215 1089.53 674.039C1097.88 678.864 1097.88 686.687 1089.53 691.504Z" fill="#E0E6F9"/>
</g>
<path d="M1078.49 593.544C1077.94 593.982 1077.22 594.183 1076.43 594.232C1076.03 594.252 1075.62 594.232 1075.2 594.19C1072.62 593.919 1069.85 592.593 1069.85 592.593C1069.94 592.17 1070.02 591.92 1070.02 591.92C1067.74 591.295 1066.45 589.47 1067.9 588.019C1069.35 586.561 1070.93 589.206 1070.93 589.206C1074.3 587.575 1076.8 585.444 1077.8 583.875C1078.64 586.152 1080.49 591.948 1078.49 593.544Z" fill="white" stroke="#263994" stroke-miterlimit="10"/>
<path d="M1082.74 634.146C1082.56 643.711 1081.31 650.716 1081.31 650.716C1080.81 653.964 1079.25 666.716 1079.56 673.283C1079.56 673.283 1076.62 674.06 1075.59 673.47C1075.54 673.442 1075.48 673.38 1075.43 673.304C1074.42 671.749 1073.2 661.295 1073.94 655.311C1073.45 656.63 1072.97 657.914 1072.69 659.032C1071.94 661.975 1071.58 680.474 1071.58 680.474C1071.25 680.905 1070.83 681.12 1070.37 681.217C1070.37 681.217 1070.36 681.217 1070.35 681.217C1070.16 681.231 1069.96 681.259 1069.76 681.279H1069.73C1068.88 681.279 1068.12 680.967 1068.12 680.967C1068.12 680.967 1065.06 667.528 1064.91 661.774C1064.77 656.026 1067.55 652.27 1067.74 651.021C1067.92 649.82 1066.72 646.551 1065.41 638.727C1066.35 639.304 1067.71 639.609 1069.29 638.38C1072.3 636.055 1067.42 630.418 1067.42 630.418C1067.02 629.072 1066.72 627.461 1066.49 625.83C1067.13 624.344 1067.79 623.268 1068.13 622.526C1068.13 622.526 1075.8 624.941 1081.04 619.11C1081.04 619.11 1082.94 624.566 1082.75 634.132L1082.74 634.146Z" fill="#80C1FF" stroke="#263994" stroke-miterlimit="10"/>
<path d="M1073.93 688.297C1073.38 688.929 1068.63 689.297 1067.5 687.506C1066.38 685.715 1068.12 680.981 1068.12 680.981C1068.12 680.981 1069.06 681.335 1069.73 681.293H1069.74C1069.74 681.293 1069.74 681.293 1069.75 681.293C1071.17 681.113 1071.57 680.481 1071.58 680.481C1071.71 680.875 1071.84 681.236 1071.99 681.564C1072.42 682.557 1073.04 683.05 1073.55 684.001C1073.99 684.82 1074.98 687.069 1073.92 688.297H1073.93Z" fill="white" stroke="#263994" stroke-miterlimit="10"/>
<path d="M1086.31 683.036C1085.98 684.056 1085.02 683.869 1083.02 683.869C1081.02 683.869 1078.02 680.891 1077.43 680.349C1076.85 679.808 1074.1 678.954 1074.1 677.434C1074.1 675.914 1075.35 673.456 1075.42 673.304C1075.48 673.387 1075.53 673.442 1075.58 673.47C1076.62 674.067 1079.55 673.283 1079.55 673.283C1079.55 673.283 1080.66 674.74 1081.01 676.177C1081.36 677.614 1086.63 682.015 1086.3 683.036H1086.31Z" fill="white" stroke="#263994" stroke-miterlimit="10"/>
<path d="M1077.8 583.875C1076.79 585.444 1074.29 587.575 1070.93 589.206C1070.93 589.206 1069.35 586.561 1067.9 588.019C1066.45 589.47 1067.74 591.302 1070.02 591.92C1070.02 591.92 1069.94 592.177 1069.85 592.593C1069.62 593.739 1069.35 596.127 1070.66 598.077C1071.22 598.917 1071.76 599.577 1072.24 600.194C1073.3 601.548 1074.12 602.742 1074.5 605.373C1074.5 605.373 1073.12 603.915 1070.7 602.457C1069.51 601.742 1067.45 600.194 1066.65 597.196L1066.28 600.174C1065.89 600.451 1065.47 600.812 1065.09 601.257C1064.13 601.402 1063.38 602.041 1062.77 602.992C1062.77 602.992 1062.93 599.833 1063.48 598.14C1064.04 596.453 1064.67 591.684 1064.9 588.276C1064.95 586.464 1065.06 584.604 1066.65 582.681C1066.9 582.375 1068.82 580.425 1071.49 580.071C1072.26 579.967 1075.32 579.731 1077.67 581.542C1077.93 581.744 1078.06 581.952 1078.18 582.139C1078.43 582.521 1078.29 583.139 1077.81 583.875H1077.8Z" fill="#263994" stroke="#263994" stroke-miterlimit="10"/>
<path d="M1098.87 618.527C1098.67 622.324 1094.78 621.901 1094.78 621.901C1092.45 621.547 1090.39 618.236 1090.39 618.236L1091.62 614.744C1091.62 614.744 1099.07 614.73 1098.87 618.52V618.527Z" fill="white" stroke="#263994" stroke-miterlimit="10"/>
<path d="M1075.2 594.19L1074.73 598.639C1074.73 598.639 1073.89 600.201 1072.24 600.194C1071.76 599.577 1071.22 598.917 1070.66 598.077C1069.35 596.127 1069.62 593.739 1069.85 592.593C1069.85 592.593 1072.62 593.926 1075.2 594.19Z" fill="white" stroke="#263994" stroke-miterlimit="10"/>
<path d="M1069.29 638.394C1067.71 639.623 1066.34 639.31 1065.4 638.741C1064.56 638.228 1064.06 637.506 1064.06 637.506C1062.8 635.506 1063.96 631.793 1063.96 631.793L1065.04 631.369L1067.41 630.432C1067.41 630.432 1072.29 636.069 1069.29 638.394Z" fill="white" stroke="#263994" stroke-miterlimit="10"/>
<path d="M1091.62 614.751C1091.62 614.751 1084.48 611.28 1081.25 608.99C1081.96 608.448 1083.06 607.365 1083.06 605.824C1083.06 603.54 1079.59 599.827 1079.18 597.793C1078.77 595.759 1076.43 594.225 1076.43 594.225C1076.03 594.246 1075.62 594.225 1075.2 594.183L1074.73 598.633C1074.73 598.633 1073.89 600.195 1072.24 600.188C1073.3 601.541 1074.12 602.735 1074.5 605.366C1074.5 605.366 1073.12 603.908 1070.7 602.451C1069.51 601.736 1067.45 600.188 1066.65 597.189L1066.28 600.167C1065.89 600.444 1065.47 600.805 1065.09 601.25C1064.13 601.395 1063.38 602.034 1062.77 602.985C1060.64 606.324 1060.43 613.55 1060.5 617.41C1060.58 622.373 1063.97 631.786 1063.97 631.786L1065.05 631.362L1067.42 630.425C1067.03 629.079 1066.72 627.468 1066.5 625.837C1065.9 621.498 1065.82 617.042 1065.82 617.042C1065.82 617.042 1066.3 615.334 1066.84 613.293C1067.94 616.556 1068.78 619.964 1068.13 622.54C1068.13 622.54 1075.8 624.955 1081.05 619.124C1081.05 619.124 1081.05 617.611 1081.01 615.709C1082.47 616.959 1090.41 618.243 1090.41 618.243L1091.64 614.751H1091.62Z" fill="#3795FC" stroke="#263994" stroke-miterlimit="10"/>
<g style="mix-blend-mode:multiply">
<path d="M1147.58 731.485C1139.23 736.31 1125.68 736.31 1117.32 731.485C1108.97 726.661 1108.97 718.837 1117.32 714.02C1125.68 709.203 1139.23 709.196 1147.58 714.02C1155.94 718.844 1155.94 726.668 1147.58 731.485Z" fill="#E0E6F9"/>
</g>
<path d="M1145.18 670.614C1145.18 670.614 1144.35 671.961 1142.94 672.391C1142.74 671.447 1142.48 670.663 1142.25 670.052C1142.96 669.566 1143.37 669.247 1143.37 669.247C1143.37 668.032 1143.15 666.276 1142.87 664.193L1144.97 664.894C1144.97 664.894 1146.33 668.546 1145.17 670.614H1145.18Z" fill="white" stroke="#263994" stroke-miterlimit="10"/>
<path d="M1136.28 634.643C1135.68 635.767 1130.44 637.551 1129.87 636.337C1129.79 636.156 1129.73 635.906 1129.69 635.608C1129.56 634.664 1129.63 633.261 1129.72 632.192C1131.52 631.693 1133.21 630.561 1133.31 630.492C1134.09 631.061 1134.91 631.394 1135.65 631.116C1135.69 631.103 1135.72 631.089 1135.75 631.075C1135.99 631.887 1136.19 632.685 1136.28 633.338C1136.37 633.942 1136.39 634.414 1136.26 634.643H1136.28Z" fill="white" stroke="#263994" stroke-miterlimit="10"/>
<path d="M1133.32 630.485C1133.21 630.554 1131.53 631.693 1129.72 632.185C1127.81 632.713 1125.77 632.519 1125.34 629.61C1124.46 623.862 1126.64 621.19 1126.64 621.19C1126.74 621.239 1126.84 621.287 1126.94 621.343C1127.65 622.266 1128.5 622.856 1128.5 622.856C1127.5 624.564 1128.42 627.229 1128.42 627.229C1128.42 627.229 1129.33 626.896 1130.21 627.479C1130.53 627.694 1131.08 628.347 1131.75 629.048C1132.23 629.548 1132.76 630.068 1133.32 630.478V630.485Z" fill="white" stroke="#263994" stroke-miterlimit="10"/>
<path d="M1135.77 631.075C1135.77 631.075 1135.7 631.103 1135.66 631.116C1134.91 631.394 1134.1 631.054 1133.33 630.492C1132.77 630.082 1132.24 629.561 1131.76 629.062C1131.09 628.361 1130.54 627.708 1130.22 627.493C1129.34 626.91 1128.42 627.243 1128.42 627.243C1128.42 627.243 1127.51 624.577 1128.51 622.87C1128.51 622.87 1127.66 622.28 1126.95 621.357C1126.06 620.211 1125.4 618.552 1126.8 616.872C1128.53 614.797 1136.38 616.581 1138.26 620.579C1140.11 624.515 1137.8 630.186 1135.78 631.082L1135.77 631.075Z" fill="#263994" stroke="#263994" stroke-miterlimit="10"/>
<path d="M1143.01 718.261C1140.54 717.845 1138.07 717.428 1135.6 717.012C1135.43 720.406 1135.25 722.884 1135.25 722.884C1131.85 724.002 1129.69 722.648 1128.68 721.704C1128.68 721.704 1128.68 721.704 1128.67 721.704C1128.22 721.274 1128 720.927 1128 720.927C1128.33 707.925 1126.34 699.755 1125.09 690.335C1123.86 681.11 1124.39 673.911 1124.41 673.62C1127.81 677.861 1135.33 674.335 1139.82 671.628C1140.8 671.031 1141.64 670.475 1142.26 670.052C1142.49 670.656 1142.75 671.447 1142.95 672.391C1143.14 673.28 1143.28 674.307 1143.29 675.438C1143.32 678.319 1142.51 680.443 1142.26 681.165C1140.25 686.989 1143.18 693.292 1144.08 702.004C1144.75 708.418 1143.01 718.261 1143.01 718.261Z" fill="#80C1FF" stroke="#263994" stroke-miterlimit="10"/>
<path d="M1133.79 729.93C1132.24 731.02 1127.95 727.889 1126.54 727.806C1121.95 727.348 1119.69 722.78 1120.33 721.468C1121.35 719.344 1128.37 721.607 1128.67 721.704H1128.68C1129.69 722.649 1131.85 724.002 1135.25 722.885C1135.75 726.223 1135.33 728.84 1133.79 729.923V729.93Z" fill="white" stroke="#263994" stroke-miterlimit="10"/>
<path d="M1142.66 724.016C1141.45 725.89 1135.26 722.892 1135.26 722.892C1135.26 722.892 1135.44 720.413 1135.61 717.019C1138.08 717.436 1140.54 717.852 1143.02 718.269C1143.02 718.269 1143.34 722.975 1142.66 724.016Z" fill="white" stroke="#263994" stroke-miterlimit="10"/>
<path d="M1116.85 670.08C1116.85 670.08 1116.41 673.953 1114.45 675.272C1114.45 675.272 1111.11 677.32 1109.31 673.981C1107.5 670.642 1114.24 667.456 1114.24 667.456L1116.84 670.08H1116.85Z" fill="white" stroke="#263994" stroke-miterlimit="10"/>
<path d="M1145.65 650.018C1145.11 644.229 1144.24 637.871 1142.09 635.261C1141.59 634.483 1140.88 633.858 1139.84 633.407C1139.02 633.053 1137.76 633.067 1136.3 633.338C1136.39 633.942 1136.4 634.414 1136.28 634.643C1135.68 635.767 1130.44 637.551 1129.87 636.337C1129.79 636.156 1129.73 635.906 1129.69 635.608C1127.24 636.781 1125.15 638.169 1124.41 639.287C1124.39 639.314 1124.36 639.342 1124.36 639.37C1122.86 640.46 1121.25 642.889 1120.89 647.158C1120.52 651.671 1120.46 656.544 1120.46 656.544C1120.46 656.544 1120.39 661.757 1114.24 667.449L1116.85 670.073C1116.85 670.073 1121.12 667.352 1124.52 663.263C1124.27 667.74 1123.66 672.405 1123.66 672.405C1123.88 672.863 1124.13 673.259 1124.41 673.613C1127.81 677.854 1135.33 674.328 1139.82 671.621C1140.8 671.024 1141.64 670.468 1142.26 670.045C1142.97 669.559 1143.38 669.24 1143.38 669.24C1143.38 668.025 1143.15 666.269 1142.88 664.186L1144.98 664.887C1144.98 664.887 1146.2 655.926 1145.65 650.005V650.018Z" fill="#3795FC" stroke="#263994" stroke-miterlimit="10"/>
<path d="M1135.61 717.012C1135.61 717.012 1136.77 702.372 1135.91 698.061C1135.05 693.757 1134.55 683.06 1134.78 682.2C1135.02 681.339 1137.37 680.79 1137.92 679.222" fill="#80C1FF"/>
<path d="M1135.61 717.012C1135.61 717.012 1136.77 702.372 1135.91 698.061C1135.05 693.757 1134.55 683.06 1134.78 682.2C1135.02 681.339 1137.37 680.79 1137.92 679.222" stroke="#263994" stroke-miterlimit="10"/>
<path d="M1076.17 586.867L1066.19 592.638V581.103L1076.17 575.339V586.867Z" fill="#80C1FF"/>
<path d="M1086.16 581.155L1076.17 586.919V575.39L1086.16 569.626V581.155Z" fill="#E0E7F7"/>
<path d="M1096.14 575.442L1086.16 581.206V569.678L1096.14 563.906V575.442Z" fill="#3795FC"/>
<path d="M1076.17 598.447L1066.19 604.211V592.675L1076.17 586.911V598.447Z" fill="#E0E7F7"/>
<path d="M1086.16 592.727L1076.17 598.491V586.963L1086.16 581.199V592.727Z" fill="white"/>
<path d="M1096.14 587.014L1086.16 592.779V581.25L1096.14 575.486V587.014Z" fill="#E0E7F7"/>
<path d="M1076.17 610.019L1066.19 615.783V604.255L1076.17 598.484V610.019Z" fill="#3795FC"/>
<path d="M1086.16 604.3L1076.17 610.064V598.536L1086.16 592.771V604.3Z" fill="#80C1FF"/>
<path d="M1096.14 598.587L1086.16 604.351V592.823L1096.14 587.059V598.587Z" fill="white"/>
<path d="M1066.19 581.103L1096.14 563.906V598.587L1066.19 615.784V581.103Z" stroke="#263994" stroke-miterlimit="10"/>
<path d="M1075.22 572.571L1063.33 579.435V593.17" stroke="#263994" stroke-miterlimit="10"/>
<path d="M1063.33 606.949V620.729L1075.22 613.865" stroke="#263994" stroke-miterlimit="10"/>
<path d="M1087.11 607.06L1099 600.255V586.476" stroke="#263994" stroke-miterlimit="10"/>
<path d="M1099 572.689V558.961L1087.11 565.766" stroke="#263994" stroke-miterlimit="10"/>
<g style="mix-blend-mode:multiply">
<path d="M73.05 561.629C82.45 567.059 97.69 567.059 107.09 561.629C116.49 556.199 116.49 547.409 107.09 541.979C97.69 536.549 82.45 536.549 73.05 541.979C63.65 547.409 63.65 556.199 73.05 561.629Z" fill="#E0E6F9"/>
</g>
<path d="M78.06 537.969C78.27 538.599 78.63 539.229 79.13 539.829C79.73 540.529 80.53 541.189 81.54 541.769C86.49 544.629 94.5 544.629 99.45 541.769C100.46 541.179 101.27 540.519 101.86 539.829C102.39 539.199 102.76 538.539 102.96 537.869C103.09 537.449 103.15 537.019 103.15 536.599C103.15 534.729 101.92 532.859 99.44 531.439C94.49 528.579 86.48 528.579 81.53 531.439C78.46 533.209 77.3 535.669 78.05 537.969H78.06Z" stroke="#263994" stroke-linecap="round" stroke-linejoin="round"/>
<path d="M79.13 539.829C79.73 540.529 80.53 541.189 81.54 541.769C86.49 544.629 94.5 544.629 99.45 541.769C100.46 541.179 101.27 540.519 101.86 539.829C101.42 538.599 100.37 537.419 98.71 536.459C94.18 533.839 86.82 533.839 82.27 536.459C80.61 537.419 79.56 538.589 79.12 539.829H79.13Z" fill="#3795FC" stroke="#263994" stroke-linecap="round" stroke-linejoin="round"/>
<path d="M78.06 537.969L80.93 551.659C81.08 552.949 82.01 554.219 83.72 555.209C87.47 557.369 93.54 557.369 97.29 555.209C98.85 554.309 99.76 553.169 100.02 551.999L100.06 551.819L102.98 537.879C102.55 539.309 101.38 540.679 99.47 541.779C94.53 544.639 86.51 544.639 81.56 541.779C79.69 540.699 78.53 539.369 78.07 537.969H78.06Z" fill="#E0E7F7" stroke="#263994" stroke-linecap="round" stroke-linejoin="round"/>
<path d="M104.03 522.309C96.89 527.919 80.79 527.269 75.2 519.919C74.69 519.249 74.27 518.529 73.95 517.749C71.8 512.489 75.14 507.899 79.36 504.279C81.36 502.559 82.74 500.509 82.05 498.019C81.42 495.749 79.13 494.039 78.19 491.859C77.14 489.429 77.47 486.869 78.82 484.579C80.03 482.549 81.85 480.849 82.08 478.489C82.33 475.949 81.47 473.529 82.82 471.079C83.88 469.159 85.67 467.999 87.95 467.439C88.96 466.929 90.25 466.809 91.66 467.369C94.79 468.629 96.27 471.079 96.16 473.929C96.05 476.979 95.03 478.949 98.25 481.089C100.68 482.699 102.87 484.199 103.66 486.829C104.52 489.689 103.32 492.219 102.25 494.889C99.91 500.739 104.48 504.079 107.21 509.039C107.41 509.399 107.58 509.759 107.73 510.129C109.55 514.479 108.13 519.099 104.04 522.309H104.03Z" fill="#80C1FF"/>
<path d="M104.03 522.309C96.89 527.919 80.79 527.269 75.2 519.919C74.69 519.249 74.27 518.529 73.95 517.749C71.8 512.489 75.14 507.899 79.36 504.279C81.36 502.559 82.74 500.509 82.05 498.019C81.42 495.749 79.13 494.039 78.19 491.859C77.14 489.429 77.47 486.869 78.82 484.579C80.03 482.549 81.85 480.849 82.08 478.489C82.33 475.949 81.47 473.529 82.82 471.079C83.88 469.159 85.67 467.999 87.95 467.439C88.96 466.929 90.25 466.809 91.66 467.369C94.79 468.629 96.27 471.079 96.16 473.929C96.05 476.979 95.03 478.949 98.25 481.089C100.68 482.699 102.87 484.199 103.66 486.829C104.52 489.689 103.32 492.219 102.25 494.889C99.91 500.739 104.48 504.079 107.21 509.039C107.41 509.399 107.58 509.759 107.73 510.129C109.55 514.479 108.13 519.099 104.04 522.309H104.03Z" stroke="#263994" stroke-linecap="round" stroke-linejoin="round"/>
<path d="M90.37 540.659C90.37 540.659 89.74 533.189 91.36 520.619C92.98 508.049 92.83 506.989 89.83 495.509C86.83 484.029 89.14 475.669 89.14 475.669" stroke="#263994" stroke-linecap="round" stroke-linejoin="round"/>
<path d="M89.56 494.419C89.56 494.419 92.6 490.469 97.4 489.409" stroke="#263994" stroke-miterlimit="10"/>
<path d="M92.11 514.329C92.11 514.329 94.33 511.309 98.56 509.489" stroke="#263994" stroke-miterlimit="10"/>
<path d="M92.39 509.489C92.39 509.489 88.47 507.569 83.48 506.899" stroke="#263994" stroke-miterlimit="10"/>
<g style="mix-blend-mode:multiply">
<path d="M1249.63 654.149C1241.02 659.119 1227.07 659.119 1218.46 654.149C1209.85 649.179 1209.85 641.119 1218.46 636.159C1227.07 631.189 1241.02 631.189 1249.63 636.159C1258.24 641.129 1258.24 649.189 1249.63 654.149Z" fill="#E0E6F9"/>
</g>
<path d="M1245.04 632.489C1244.85 633.069 1244.52 633.639 1244.06 634.189C1243.51 634.829 1242.78 635.439 1241.85 635.969C1237.32 638.589 1229.98 638.589 1225.45 635.969C1224.52 635.429 1223.78 634.829 1223.24 634.189C1222.75 633.619 1222.42 633.009 1222.23 632.399C1222.11 632.009 1222.06 631.619 1222.06 631.229C1222.06 629.519 1223.19 627.809 1225.45 626.499C1229.98 623.879 1237.32 623.879 1241.85 626.499C1244.66 628.129 1245.73 630.379 1245.04 632.479V632.489Z" stroke="#263994" stroke-linecap="round" stroke-linejoin="round"/>
<path d="M1244.06 634.189C1243.51 634.829 1242.78 635.439 1241.85 635.969C1237.32 638.589 1229.98 638.589 1225.45 635.969C1224.52 635.429 1223.78 634.829 1223.24 634.189C1223.64 633.059 1224.6 631.979 1226.13 631.099C1230.28 628.699 1237.02 628.699 1241.18 631.099C1242.7 631.979 1243.67 633.049 1244.07 634.189H1244.06Z" fill="#3795FC" stroke="#263994" stroke-linecap="round" stroke-linejoin="round"/>
<path d="M1245.04 632.479L1242.41 645.009C1242.28 646.189 1241.42 647.359 1239.86 648.259C1236.43 650.239 1230.87 650.239 1227.43 648.259C1226 647.439 1225.17 646.399 1224.93 645.319L1224.9 645.159L1222.23 632.389C1222.62 633.699 1223.7 634.949 1225.45 635.959C1229.98 638.579 1237.32 638.579 1241.85 635.959C1243.56 634.969 1244.63 633.749 1245.04 632.469V632.479Z" fill="#E0E7F7" stroke="#263994" stroke-linecap="round" stroke-linejoin="round"/>
<path d="M1238.62 619.539C1232.69 621.029 1225.01 621.879 1219.4 618.749C1218.39 618.189 1217.45 617.499 1216.6 616.659C1212.47 612.039 1215.33 605.529 1219.33 601.859C1218.9 601.409 1218.5 600.959 1218.15 600.499C1205.56 584.529 1236.13 567.279 1243.25 589.779C1243.94 589.779 1244.61 589.829 1245.27 589.919C1249.75 591.169 1252.12 594.129 1252.85 597.739C1254.51 605.849 1247.93 617.199 1238.61 619.549L1238.62 619.539Z" fill="#80C1FF"/>
<path d="M1238.62 619.539C1232.69 621.029 1225.01 621.879 1219.4 618.749C1218.39 618.189 1217.45 617.499 1216.6 616.659C1212.47 612.039 1215.33 605.529 1219.33 601.859C1218.9 601.409 1218.5 600.959 1218.15 600.499C1205.56 584.529 1236.13 567.279 1243.25 589.779C1243.94 589.779 1244.61 589.829 1245.27 589.919C1249.75 591.169 1252.12 594.129 1252.85 597.739C1254.51 605.849 1247.93 617.199 1238.61 619.549L1238.62 619.539Z" stroke="#263994" stroke-linecap="round" stroke-linejoin="round"/>
<path d="M1233.63 633.219C1233.63 633.219 1234.81 630.299 1234.92 619.589C1234.92 619.589 1235.18 606.559 1230.08 592.649" stroke="#263994" stroke-miterlimit="10"/>
<path d="M1234.48 628.479L1242.23 618.119" stroke="#263994" stroke-miterlimit="10"/>
<path d="M1234.48 628.479L1228.19 620.879" stroke="#263994" stroke-miterlimit="10"/>
<path d="M1232.91 602.359C1232.91 602.359 1239.8 596.629 1241.04 594.529" stroke="#263994" stroke-miterlimit="10"/>
<path d="M1234.29 610.229C1234.29 610.229 1227.83 610.539 1223.24 608.119" stroke="#263994" stroke-miterlimit="10"/>
<path d="M1287.99 17.3435C1287.99 19.4566 1287.6 21.48 1286.87 23.3392C1285 28.2001 1280.9 31.9633 1275.83 33.3745C1273.25 43.1261 1264.37 50.3016 1253.81 50.3016C1249.61 50.3016 1245.68 49.1666 1242.3 47.1805C1240.03 50.6301 1236.13 52.9 1231.69 52.9C1228.69 52.9 1225.93 51.8546 1223.76 50.1074C1220.86 47.7778 1219.01 44.2087 1219.01 40.2066C1219.01 33.4268 1224.33 27.8865 1231.02 27.5356V27.5206C1231.02 14.9317 1241.22 4.73218 1253.81 4.73218C1255.84 4.73218 1257.81 5.00098 1259.69 5.50125C1262.69 2.54443 1266.81 0.715088 1271.36 0.715088C1280.56 0.715088 1288 8.16687 1288 17.3509L1287.99 17.3435Z" fill="#E0E7F7"/>
<path d="M1287.99 17.3434C1287.99 19.4565 1287.6 21.4799 1286.87 23.3392C1282.94 27.8491 1277.15 30.6939 1270.69 30.6939C1269.29 30.6939 1267.92 30.5595 1266.59 30.2981C1263.22 37.735 1255.73 42.902 1247.03 42.902C1245 42.902 1243.04 42.6257 1241.18 42.0956C1238.7 47.1207 1233.52 50.5777 1227.54 50.5777C1226.24 50.5777 1224.96 50.4135 1223.75 50.0999C1220.85 47.7703 1219 44.2012 1219 40.199C1219 33.4192 1224.32 27.8789 1231.01 27.528V27.5131C1231.01 14.9242 1241.21 4.72462 1253.8 4.72462C1255.83 4.72462 1257.8 4.99342 1259.68 5.49369C1262.68 2.53687 1266.8 0.70752 1271.36 0.70752C1280.55 0.70752 1287.99 8.15931 1287.99 17.3434Z" fill="white"/>
<path d="M1257.29 5.68035C1259.22 5.97902 1262.97 6.88249 1265.41 8.59237C1265.41 8.59237 1263.9 6.74809 1259.51 4.81421L1257.29 5.68781V5.68035Z" fill="#E0E7F7"/>
<path d="M1229.07 28.4315C1231.04 27.9462 1235.14 28.1478 1236.08 28.8273C1236.08 28.8273 1234.37 27.2592 1230.35 26.9158L1229.07 28.4315Z" fill="#E0E7F7"/>
<path d="M1287.99 17.3434C1287.99 24.9818 1282.84 31.4181 1275.83 33.367C1273.25 43.1185 1264.37 50.294 1253.81 50.294C1249.61 50.294 1245.68 49.1591 1242.3 47.1729C1240.03 50.6225 1236.13 52.8924 1231.69 52.8924C1224.69 52.8924 1219 47.2103 1219 40.199C1219 33.1878 1224.32 27.8789 1231.01 27.528V27.5131C1231.01 14.9242 1241.21 4.72462 1253.8 4.72462C1255.83 4.72462 1257.8 4.99342 1259.68 5.49369C1262.68 2.53687 1266.8 0.70752 1271.36 0.70752C1280.55 0.70752 1287.99 8.15931 1287.99 17.3434Z" stroke="#263994" stroke-linecap="round" stroke-linejoin="round"/>
</svg>
