<svg width="127" height="93" viewBox="0 0 127 93" fill="none" xmlns="http://www.w3.org/2000/svg">
<path d="M126 30.2735C126 18.2425 116.247 8.49715 104.224 8.49715C101.365 8.49715 98.64 9.05552 96.1385 10.0531C89.6317 4.43967 80.9733 1.00757 71.4512 1.00757C55.8541 1.00757 42.55 10.2169 37.3014 23.1711C26.4914 24.4441 18.101 33.6386 18.101 44.7911C18.101 46.3545 18.2722 47.8807 18.5849 49.3474C8.57151 51.3054 1.00745 60.1276 1.00745 70.7142C1.00745 82.7452 10.7603 92.4906 22.7838 92.4906C31.1966 92.4906 38.4926 87.7184 42.1183 80.7351C47.8881 84.8521 54.9384 87.2792 62.562 87.2792C75.5385 87.2792 86.8696 80.2661 92.9893 69.8209C103.68 69.121 112.257 60.7083 113.225 50.0919C120.759 46.6672 126 39.0808 126 30.2586V30.2735Z" fill="white"/>
<path d="M16.1875 51.1117C16.1875 51.1117 21.5553 49.2133 27.2506 50.397C27.2506 50.397 23.2155 47.8806 17.9445 48.4985L16.1875 51.1117Z" fill="#E0E7F7"/>
<path d="M30.1467 26.4615C33.8543 24.5109 42.1628 24.6077 45.6768 27.6006C45.6768 27.6006 43.5401 24.4216 38.1724 22.2849L30.1467 26.4615Z" fill="#E0E7F7"/>
<path d="M94.6792 10.2466C96.1682 11.5271 97.3445 13.165 98.0667 14.989C100.248 11.676 104.343 9.77754 108.311 9.96366C107.142 8.71291 105.526 8.22155 103.814 8.17688C102.102 8.13221 100.419 8.54913 98.7516 8.9586C97.3222 9.30851 96.1161 9.89666 94.6792 10.254V10.2466Z" fill="#E0E7F7"/>
<path d="M124.831 37.3386C122.88 43.0191 118.644 47.6424 113.224 50.1066C112.257 60.7231 103.673 69.1284 92.9892 69.8357C86.862 80.2734 75.5383 87.2865 62.5544 87.2865C54.9308 87.2865 47.8805 84.8595 42.1032 80.7499C38.4775 87.7332 31.1815 92.5054 22.7688 92.5054C20.6768 92.5054 18.6592 92.2076 16.7458 91.6567C20.8927 90.1603 25.3671 87.8598 29.6181 84.3086C35.8272 79.1343 39.2295 73.2752 41.0088 69.4932C42.066 70.1334 54.4394 77.4071 67.2298 71.3991C75.2479 67.6245 78.8662 60.7752 79.9531 58.4822C81.5985 58.7651 89.3412 59.8967 96.4809 54.8714C101.417 51.3946 103.516 46.7713 104.268 44.8059C105.809 45.2451 110.686 46.4214 116.24 44.2401C121.213 42.2746 123.886 38.7383 124.824 37.3461H124.831V37.3386Z" fill="#E0E7F7"/>
<path d="M121.466 43.5625C121.503 43.5104 121.548 43.4583 121.585 43.4062C121.883 43.0191 122.166 42.617 122.434 42.2076C122.694 41.813 122.94 41.4035 123.171 40.9866C123.208 40.9196 123.245 40.86 123.283 40.793C123.752 39.9369 124.169 39.0509 124.526 38.1352C124.548 38.0831 124.563 38.0384 124.578 37.9863C124.66 37.7704 124.749 37.5545 124.824 37.3312H124.816C124.816 37.3312 124.801 37.3535 124.794 37.3609C125.561 35.1349 125.993 32.7525 125.993 30.2659C125.993 18.235 116.24 8.48958 104.216 8.48958C101.357 8.48958 98.6325 9.04795 96.131 10.0456C89.6242 4.4321 80.9658 1 71.4437 1C55.8466 1 42.5426 10.2094 37.2939 23.1635C26.4839 24.4366 18.0935 33.631 18.0935 44.7835C18.0935 46.3469 18.2647 47.8732 18.5774 49.3398C8.56402 51.2978 1 60.12 1 70.7067C1 80.6456 7.66318 89.0212 16.7609 91.6343C16.7832 91.6343 16.7981 91.6418 16.8204 91.6492C17.2522 91.7683 17.6914 91.88 18.1307 91.9768C18.1679 91.9842 18.2052 91.9917 18.2424 92.0066C18.6965 92.1034 19.1581 92.1853 19.6197 92.2523C19.709 92.2671 19.8058 92.2746 19.8952 92.2895C20.26 92.3416 20.6322 92.3788 21.0045 92.4086C21.131 92.416 21.2576 92.4309 21.3842 92.4384C21.8457 92.4682 22.2999 92.4905 22.7689 92.4905C31.1817 92.4905 38.4702 87.7183 42.1033 80.735C43.2498 81.5539 44.4485 82.2984 45.6843 82.9759C50.6947 85.7156 56.4348 87.2791 62.5471 87.2791C68.6593 87.2791 74.712 85.6263 79.8193 82.7451C85.2615 79.6778 89.8178 75.2109 92.9744 69.8282C94.7612 69.7091 96.4884 69.3741 98.1337 68.8455C105.698 66.4408 111.475 60.0158 112.942 52.0795C113.061 51.4318 113.15 50.7692 113.217 50.0992C113.247 50.0843 113.284 50.0694 113.314 50.0545C113.694 49.8758 114.073 49.6897 114.446 49.4887C114.572 49.4217 114.691 49.3547 114.818 49.2877C115.13 49.1165 115.436 48.9303 115.733 48.7442C115.83 48.6847 115.92 48.6325 116.016 48.573C116.404 48.3273 116.776 48.0667 117.148 47.7913C117.215 47.7466 117.275 47.6945 117.342 47.6424C117.654 47.4041 117.96 47.1584 118.257 46.9128C118.339 46.8383 118.429 46.7713 118.51 46.6969C119.218 46.0789 119.888 45.4163 120.513 44.7165C120.565 44.6569 120.625 44.5899 120.677 44.5304C120.952 44.2177 121.213 43.8901 121.466 43.5625Z" stroke="#263994" stroke-linecap="round" stroke-linejoin="round"/>
</svg>
