<svg width="965" height="576" viewBox="0 0 965 576" fill="none" xmlns="http://www.w3.org/2000/svg">
<g style="mix-blend-mode:multiply">
<path d="M42.6012 530.703C33.9868 535.676 20.0276 535.676 11.4131 530.703C2.79865 525.731 2.79865 517.667 11.4131 512.702C20.0276 507.729 33.9868 507.729 42.6012 512.702C51.2157 517.674 51.2157 525.738 42.6012 530.703Z" fill="#E0E6F9"/>
</g>
<path d="M29.2789 432.302C29.4434 433.104 26.4169 435.2 22.7751 433.139L22.6248 430.199L22.3029 423.745C23.3332 425.884 25.9375 427.687 28.4775 428.195C28.5205 428.417 28.5634 428.639 28.6063 428.882C28.871 430.27 29.1859 431.873 29.2646 432.302H29.2789Z" fill="white" stroke="#263994" stroke-miterlimit="10"/>
<path d="M31.2751 428.145C30.4165 428.389 29.4577 428.389 28.4847 428.195C25.9447 427.694 23.3403 425.884 22.31 423.745C22.2599 423.652 22.217 423.545 22.1812 423.452C23.0899 422.886 24.3992 421.641 24.5853 421.062C24.8428 420.253 24.5567 417.263 24.5567 417.263C24.5567 417.263 26.8748 418.357 29.5794 418.357C30.4451 418.357 31.182 418.064 31.7187 417.592C31.7187 417.592 34.8096 427.165 31.2822 428.152L31.2751 428.145Z" fill="white" stroke="#263994" stroke-miterlimit="10"/>
<path d="M31.7116 417.592C31.175 418.064 30.438 418.358 29.5723 418.358C26.8677 418.358 24.5496 417.263 24.5496 417.263C24.5496 417.263 24.8358 420.254 24.5782 421.062C24.3922 421.642 23.09 422.894 22.1741 423.452C21.8307 423.666 21.5374 423.781 21.3871 423.731C20.8433 423.538 20.0348 422.286 19.8703 418.443C19.7057 414.608 21.7091 412.183 25.6371 411.968C26.5672 411.918 29.9515 411.489 31.8189 413.485C33.0925 414.844 32.8421 416.597 31.7044 417.585L31.7116 417.592Z" fill="#263994" stroke="#263994" stroke-miterlimit="10"/>
<path d="M32.1194 518.49C31.9906 518.583 31.8618 518.669 31.7259 518.74C28.7852 520.472 24.8357 518.941 24.8357 518.941C20.7789 504.767 22.5176 495.616 22.5176 495.616C22.5176 495.616 20.5786 490.522 18.8113 485.749C17.8669 483.195 16.9725 480.734 16.4574 479.181C14.9763 474.738 15.4485 470.037 15.4485 470.037C18.6682 471.769 26.5887 474.559 35.0314 466.388C35.0314 466.388 35.611 479.696 30.1947 489.921C30.3664 492.539 30.4738 495.108 30.438 497.219C30.3092 504.889 32.1122 518.483 32.1122 518.483L32.1194 518.49Z" fill="#80C1FF" stroke="#263994" stroke-miterlimit="10"/>
<path d="M22.5175 495.608L11.0483 506.627H11.0411L6.61222 502.506C6.52637 502.298 6.46197 502.084 6.41189 501.862C6.41189 501.862 14.5971 488.64 18.8184 485.749C20.5785 490.521 22.5247 495.616 22.5247 495.616L22.5175 495.608Z" fill="#80C1FF" stroke="#263994" stroke-miterlimit="10"/>
<path d="M38.151 531.118C36.5626 531.977 31.1964 531.247 28.9641 528.328C26.7318 525.409 24.6712 524.85 24.2777 524.185C23.8913 523.513 24.8357 518.941 24.8357 518.941C24.8357 518.941 28.7852 520.479 31.7259 518.74C31.7259 518.74 33.0424 521.881 36.3909 525.745C39.7393 529.608 39.7393 530.252 38.151 531.111V531.118Z" fill="white" stroke="#263994" stroke-miterlimit="10"/>
<path d="M11.1771 520.293C8.21503 520.808 5.37455 514.025 4.83078 511.056C4.28701 508.087 2.71292 506.291 3.05636 505.647C3.39979 505.003 6.60517 502.506 6.60517 502.506C9.04498 504.774 10.6262 506.219 11.034 506.627H11.0412C11.0412 506.627 11.17 509.725 11.5134 511.099C11.8569 512.473 14.1321 519.778 11.17 520.286L11.1771 520.293Z" fill="white" stroke="#263994" stroke-miterlimit="10"/>
<path d="M55.4228 463.648C53.9632 467.283 50.3071 465.573 50.3071 465.573C48.1535 464.449 47.2377 460.543 47.2377 460.543L49.5988 457.545C49.5988 457.545 56.8753 460.013 55.4228 463.648Z" fill="white" stroke="#263994" stroke-miterlimit="10"/>
<path d="M5.23136 471.411C1.35341 471.969 1.00282 467.948 1.00282 467.948C0.8955 465.515 3.82185 462.775 3.82185 462.775L7.77849 464.556C8.02176 466.724 8.11477 470.996 5.23136 471.404V471.411Z" fill="white" stroke="#263994" stroke-miterlimit="10"/>
<path d="M15.2697 434.198C17.7739 431.83 20.5142 431.229 22.6249 430.199L22.7751 433.139C26.4169 435.2 29.4435 433.104 29.2789 432.302C29.193 431.866 28.8854 430.27 28.6207 428.882C28.9784 428.882 29.3505 428.897 29.7368 428.918C30.9531 428.99 31.8976 429.541 32.6274 430.428C38.3155 435.422 41.0344 446.762 42.3222 448.766C43.4885 450.569 49.6059 457.545 49.6059 457.545L47.2448 460.543C47.2448 460.543 39.1383 456.285 37.2924 454.053C36.5196 453.109 35.0243 451.084 34.4376 448.129C34.4376 447.285 34.4733 446.526 34.5449 445.897C34.9313 442.477 35.3319 438.355 33.9582 434.499C35.3319 438.363 34.9313 442.477 34.5449 445.897C34.4733 446.533 34.4376 447.285 34.4376 448.129C34.4376 454.361 36.1762 465.222 36.1762 465.222C35.797 465.637 35.4106 466.023 35.0314 466.395C26.5887 474.566 18.6682 471.776 15.4485 470.044C14.4755 469.522 13.9317 469.093 13.9317 469.093C15.4271 465.308 16.0639 456.7 15.2697 450.719C14.6114 451.527 14.1177 452.15 13.9388 452.515C12.8441 454.704 7.78567 464.564 7.78567 464.564L3.82903 462.782C3.82903 462.782 6.01126 453.509 8.25789 447.342C12.05 436.953 15.2768 434.206 15.2768 434.206L15.2697 434.198Z" fill="#3795FC"/>
<path d="M34.4376 448.129C35.0243 451.084 36.5196 453.109 37.2924 454.053C39.1383 456.285 47.2448 460.543 47.2448 460.543L49.6059 457.545C49.6059 457.545 43.4885 450.569 42.3222 448.766C41.0344 446.762 38.3155 435.422 32.6274 430.428C31.8976 429.541 30.9531 428.99 29.7368 428.918C29.3505 428.897 28.9784 428.882 28.6207 428.882C28.8854 430.27 29.193 431.866 29.2789 432.302C29.4435 433.104 26.4169 435.2 22.7751 433.139L22.6249 430.199C20.5142 431.229 17.7739 431.83 15.2697 434.198L15.2768 434.206C15.2768 434.206 12.05 436.953 8.25789 447.342C6.01126 453.509 3.82902 462.782 3.82902 462.782L7.78567 464.564C7.78567 464.564 12.8441 454.704 13.9388 452.515C14.1177 452.15 14.6114 451.527 15.2697 450.719C16.0639 456.7 15.4271 465.308 13.9317 469.093C13.9317 469.093 14.4755 469.522 15.4485 470.044C18.6682 471.776 26.5887 474.566 35.0314 466.395C35.4106 466.023 35.797 465.637 36.1762 465.222C36.1762 465.222 34.4376 454.361 34.4376 448.129ZM34.4376 448.129C34.4376 447.285 34.4733 446.526 34.5449 445.897M34.4376 448.129C34.4376 447.285 34.4733 446.533 34.5449 445.897M34.5449 445.897C34.9313 442.477 35.3319 438.355 33.9582 434.499C35.3319 438.363 34.9313 442.477 34.5449 445.897Z" stroke="#263994" stroke-miterlimit="10"/>
<path d="M33.4845 416.053L23.8039 421.648V410.465L33.4845 404.877V416.053Z" fill="#80C1FF"/>
<path d="M43.165 410.515L33.4845 416.103V404.927L43.165 399.339V410.515Z" fill="#E0E7F7"/>
<path d="M52.8456 404.977L43.1651 410.565V399.389L52.8456 393.794V404.977Z" fill="#3795FC"/>
<path d="M33.4845 427.279L23.8039 432.867V421.684L33.4845 416.096V427.279Z" fill="#E0E7F7"/>
<path d="M43.165 421.734L33.4845 427.321V416.146L43.165 410.558V421.734Z" fill="white"/>
<path d="M52.8456 416.196L43.1651 421.784V410.608L52.8456 405.02V416.196Z" fill="#E0E7F7"/>
<path d="M33.4845 438.498L23.8039 444.085V432.91L33.4845 427.314V438.498Z" fill="#3795FC"/>
<path d="M43.165 432.953L33.4845 438.541V427.365L43.165 421.777V432.953Z" fill="#80C1FF"/>
<path d="M52.8456 427.415L43.1651 433.003V421.827L52.8456 416.239V427.415Z" fill="white"/>
<path d="M23.8039 410.465L52.8456 393.794V427.415L23.8039 444.086V410.465Z" stroke="#263994" stroke-miterlimit="10"/>
<path d="M32.5616 402.194L21.035 408.848V422.163" stroke="#263994" stroke-miterlimit="10"/>
<path d="M21.035 435.521V448.879L32.5616 442.225" stroke="#263994" stroke-miterlimit="10"/>
<path d="M44.0881 435.628L55.6146 429.031V415.673" stroke="#263994" stroke-miterlimit="10"/>
<path d="M55.6146 402.308V389L44.0881 395.597" stroke="#263994" stroke-miterlimit="10"/>
<g style="mix-blend-mode:multiply">
<path d="M420.461 362.612C429.075 367.584 443.035 367.584 451.649 362.612C460.263 357.639 460.263 349.575 451.649 344.61C443.035 339.637 429.075 339.637 420.461 344.61C411.846 349.582 411.846 357.646 420.461 362.612Z" fill="#E0E6F9"/>
</g>
<path d="M432.996 260.834C433.561 261.284 434.306 261.492 435.121 261.535C435.529 261.563 435.958 261.542 436.395 261.492C439.049 261.213 441.904 259.846 441.904 259.846C441.818 259.41 441.732 259.152 441.732 259.152C444.086 258.508 445.417 256.627 443.922 255.124C442.419 253.629 440.795 256.347 440.795 256.347C437.325 254.666 434.742 252.47 433.712 250.853C432.86 253.192 430.95 259.181 433.003 260.834H432.996Z" fill="white" stroke="#263994" stroke-miterlimit="10"/>
<path d="M428.889 359.478C429.233 360.53 430.22 360.336 432.281 360.336C434.341 360.336 437.439 357.267 438.04 356.709C438.641 356.151 441.482 355.271 441.482 353.704C441.482 352.137 440.115 349.439 440.115 349.439H435.858C435.858 349.439 434.721 350.935 434.356 352.416C433.991 353.897 428.553 358.433 428.897 359.485L428.889 359.478Z" fill="white" stroke="#263994" stroke-miterlimit="10"/>
<path d="M433.704 250.86C434.742 252.484 437.325 254.68 440.788 256.355C440.788 256.355 442.412 253.636 443.914 255.131C445.41 256.634 444.079 258.515 441.725 259.159C441.725 259.159 441.811 259.417 441.897 259.853C442.14 261.027 442.419 263.495 441.067 265.506C440.487 266.371 439.936 267.044 439.436 267.681C438.348 269.076 437.497 270.307 437.117 273.018C437.117 273.018 438.534 271.516 441.024 270.013C441.904 269.484 443.256 268.511 444.251 266.858C444.637 266.214 444.973 265.456 445.202 264.59L445.589 267.659C445.989 267.953 446.419 268.318 446.819 268.783C447.8 268.933 448.579 269.591 449.202 270.564C449.195 270.378 449.016 267.259 448.465 265.57C447.9 263.831 447.241 258.916 447.005 255.403C446.955 253.536 446.834 251.618 445.202 249.636C444.952 249.328 442.97 247.318 440.208 246.953C439.421 246.846 436.266 246.595 433.84 248.47C433.576 248.677 433.44 248.885 433.318 249.078C433.068 249.472 433.211 250.108 433.697 250.86H433.704Z" fill="#263994" stroke="#263994" stroke-miterlimit="10"/>
<path d="M418.186 295.198C420.039 298.647 423.48 296.551 423.48 296.551C425.498 295.191 425.97 291.213 425.97 291.213L423.294 288.494C423.294 288.494 416.332 291.75 418.178 295.198H418.186Z" fill="white" stroke="#263994" stroke-miterlimit="10"/>
<path d="M425.577 317.335C426.056 320.426 435.844 329.534 435.844 329.534C436.123 337.548 435.844 349.418 435.844 349.418H440.101C441.925 342.914 442.777 337.705 443.099 333.67C443.728 325.814 442.376 322.401 442.376 322.401C442.376 322.401 442.455 322.172 442.598 321.75C443.321 319.596 445.653 312.527 446.862 307.147C445.904 307.877 444.337 308.499 442.476 307.061C439.385 304.657 444.415 298.854 444.415 298.854C444.83 297.445 445.138 295.763 445.381 294.061C444.737 292.83 444.093 291.735 443.686 290.719C443.686 290.719 435.779 293.209 430.37 287.192C430.37 287.192 424.832 311.49 425.569 317.328L425.577 317.335Z" fill="#80C1FF" stroke="#263994" stroke-miterlimit="10"/>
<path d="M436.395 261.499L436.881 266.085C436.881 266.085 437.74 267.695 439.436 267.688C439.937 267.051 440.487 266.378 441.067 265.513C442.419 263.502 442.14 261.034 441.897 259.86C441.897 259.86 439.042 261.234 436.388 261.506L436.395 261.499Z" fill="white" stroke="#263994" stroke-miterlimit="10"/>
<path d="M442.484 307.068C444.344 308.507 445.911 307.884 446.869 307.154C447.506 306.675 447.871 306.145 447.871 306.145C449.166 304.085 447.971 300.25 447.971 300.25L447.521 300.078L444.422 298.862C444.422 298.862 439.393 304.664 442.484 307.068Z" fill="white" stroke="#263994" stroke-miterlimit="10"/>
<path d="M423.301 288.494L423.316 288.473C423.623 287.994 428.718 280.159 429.927 276.574C429.211 275.973 428.295 274.929 428.295 273.498C428.295 271.144 431.866 267.309 432.288 265.22C432.696 263.18 434.992 261.628 435.121 261.542C435.529 261.571 435.958 261.549 436.395 261.499L436.881 266.085C436.881 266.085 437.74 267.695 439.436 267.688C438.348 269.083 437.497 270.314 437.117 273.026C437.117 273.026 438.534 271.523 441.024 270.02C441.904 269.491 443.256 268.518 444.251 266.865C444.637 266.221 444.973 265.463 445.202 264.597L445.589 267.667C445.989 267.96 446.419 268.325 446.819 268.79C447.8 268.94 448.579 269.598 449.202 270.571C451.391 274.013 451.613 281.468 451.542 285.446C451.456 290.555 447.957 300.257 447.957 300.257L447.506 300.085L444.408 298.869C444.823 297.459 445.131 295.778 445.374 294.075C445.989 289.625 446.068 285.074 446.068 285.074C446.068 285.074 445.574 283.314 445.016 281.211C443.886 284.581 443.02 288.087 443.686 290.741C443.686 290.741 435.779 293.231 430.37 287.214C430.37 287.214 430.37 286.935 430.37 286.462L425.963 291.22L423.287 288.502L423.301 288.494Z" fill="#3795FC" stroke="#263994" stroke-miterlimit="10"/>
<path d="M447.463 348.201C450.01 348.33 451.563 341.927 451.656 339.215C451.756 336.496 452.851 334.7 452.486 334.164C452.121 333.627 449.138 331.752 449.138 331.752L445.911 335.96C445.911 335.96 446.183 338.743 446.061 340.016C445.946 341.29 444.923 348.087 447.463 348.209V348.201Z" fill="white" stroke="#263994" stroke-miterlimit="10"/>
<path d="M443.106 333.67L445.911 335.952L449.138 331.745C449.138 331.745 446.698 326.308 442.605 321.75C442.462 322.172 442.383 322.401 442.383 322.401C442.383 322.401 443.736 325.814 443.106 333.663V333.67Z" fill="#80C1FF" stroke="#263994" stroke-miterlimit="10"/>
<path d="M435.079 255.394L442.733 259.813V250.974L435.079 246.555V255.394Z" fill="#80C1FF"/>
<path d="M427.422 251.011L435.079 255.431V246.591L427.422 242.172V251.011Z" fill="#E0E7F7"/>
<path d="M419.767 246.631L427.422 251.051V242.212L419.767 237.792V246.631Z" fill="#3795FC"/>
<path d="M435.079 264.267L442.733 268.686V259.847L435.079 255.428V264.267Z" fill="#E0E7F7"/>
<path d="M427.422 259.884L435.079 264.306V255.464L427.422 251.044V259.884Z" fill="white"/>
<path d="M419.767 255.504L427.422 259.923V251.084L419.767 246.665V255.504Z" fill="#E0E7F7"/>
<path d="M435.079 273.139L442.733 277.559V268.72L435.079 264.3V273.139Z" fill="#3795FC"/>
<path d="M427.422 268.757L435.079 273.179V264.337L427.422 259.917V268.757Z" fill="#80C1FF"/>
<path d="M419.767 264.376L427.422 268.796V259.957L419.767 255.537V264.376Z" fill="white"/>
<path d="M442.733 250.975L419.767 237.792V264.376L442.733 277.559V250.975Z" stroke="#263994" stroke-miterlimit="10"/>
<path d="M435.807 244.432L444.923 249.695V260.222" stroke="#263994" stroke-miterlimit="10"/>
<path d="M444.923 270.785V281.351L435.807 276.088" stroke="#263994" stroke-miterlimit="10"/>
<path d="M426.694 270.87L417.577 265.656V255.089" stroke="#263994" stroke-miterlimit="10"/>
<path d="M417.577 244.524V234L426.694 239.218" stroke="#263994" stroke-miterlimit="10"/>
<path d="M693.012 31.8747C693.012 24.1175 686.723 17.8339 678.971 17.8339C677.128 17.8339 675.371 18.194 673.758 18.8372C669.562 15.2178 663.98 13.0049 657.84 13.0049C647.784 13.0049 639.205 18.9428 635.821 27.2953C628.851 28.1161 623.441 34.0444 623.441 41.2352C623.441 42.2433 623.552 43.2273 623.753 44.173C617.297 45.4354 612.42 51.1237 612.42 57.9497C612.42 65.7069 618.708 71.9905 626.461 71.9905C631.885 71.9905 636.589 68.9135 638.927 64.4109C642.647 67.0654 647.193 68.6303 652.109 68.6303C660.475 68.6303 667.781 64.1084 671.727 57.3737C678.62 56.9224 684.15 51.4982 684.774 44.653C689.632 42.4449 693.012 37.5534 693.012 31.8651V31.8747Z" fill="white"/>
<path d="M622.208 45.3109C622.208 45.3109 625.669 44.0868 629.341 44.85C629.341 44.85 626.739 43.2275 623.34 43.626L622.208 45.3109Z" fill="#E0E7F7"/>
<path d="M631.208 29.4166C633.599 28.1589 638.956 28.2213 641.221 30.151C641.221 30.151 639.844 28.1013 636.383 26.7236L631.208 29.4166Z" fill="#E0E7F7"/>
<path d="M672.817 18.9621C673.777 19.7877 674.535 20.8438 675.001 22.0199C676.407 19.8837 679.048 18.6597 681.606 18.7797C680.852 17.9732 679.811 17.6564 678.707 17.6276C677.603 17.5988 676.518 17.8676 675.443 18.1316C674.521 18.3573 673.743 18.7365 672.817 18.9669V18.9621Z" fill="#E0E7F7"/>
<path d="M692.258 36.4302C691 40.0928 688.269 43.0737 684.774 44.6626C684.15 51.5078 678.615 56.9273 671.727 57.3833C667.776 64.1133 660.475 68.6351 652.104 68.6351C647.188 68.6351 642.642 67.0702 638.917 64.4205C636.58 68.9231 631.875 72.0001 626.451 72.0001C625.102 72.0001 623.801 71.8081 622.568 71.4529C625.241 70.488 628.126 69.0047 630.867 66.715C634.871 63.3788 637.064 59.601 638.212 57.1625C638.893 57.5753 646.871 62.2652 655.118 58.3914C660.288 55.9576 662.621 51.5414 663.322 50.0629C664.383 50.2453 669.375 50.975 673.978 47.7348C677.161 45.4931 678.515 42.5121 678.999 41.2448C679.993 41.5281 683.137 42.2865 686.718 40.88C689.925 39.6127 691.648 37.3326 692.253 36.435H692.258V36.4302Z" fill="#E0E7F7"/>
<path d="M690.088 40.4431C690.112 40.4095 690.141 40.3759 690.165 40.3423C690.357 40.0927 690.539 39.8334 690.712 39.5694C690.88 39.315 691.039 39.051 691.187 38.7822C691.211 38.739 691.235 38.7006 691.259 38.6574C691.562 38.1054 691.831 37.5341 692.061 36.9437C692.075 36.9101 692.085 36.8813 692.095 36.8477C692.147 36.7085 692.205 36.5693 692.253 36.4253H692.248C692.248 36.4253 692.239 36.4397 692.234 36.4445C692.728 35.0092 693.007 33.4731 693.007 31.8698C693.007 24.1126 686.718 17.8291 678.966 17.8291C677.123 17.8291 675.366 18.1891 673.753 18.8323C669.557 15.2129 663.975 13 657.835 13C647.779 13 639.201 18.9379 635.816 27.2904C628.846 28.1112 623.437 34.0395 623.437 41.2303C623.437 42.2384 623.547 43.2224 623.749 44.1681C617.292 45.4306 612.415 51.1189 612.415 57.9448C612.415 64.3532 616.711 69.7535 622.577 71.4384C622.592 71.4384 622.601 71.4432 622.616 71.448C622.894 71.5248 623.177 71.5968 623.461 71.6592C623.485 71.664 623.509 71.6688 623.533 71.6784C623.825 71.7408 624.123 71.7936 624.421 71.8368C624.478 71.8464 624.541 71.8512 624.598 71.8608C624.833 71.8944 625.073 71.9184 625.313 71.9376C625.395 71.9424 625.477 71.952 625.558 71.9568C625.856 71.976 626.149 71.9904 626.451 71.9904C631.875 71.9904 636.575 68.9134 638.917 64.4108C639.657 64.9388 640.429 65.4188 641.226 65.8557C644.457 67.6222 648.158 68.6302 652.099 68.6302C656.04 68.6302 659.943 67.5646 663.235 65.7069C666.744 63.7291 669.682 60.849 671.718 57.3784C672.87 57.3016 673.983 57.0856 675.044 56.7448C679.921 55.1943 683.646 51.0517 684.592 45.9346C684.669 45.517 684.726 45.0897 684.769 44.6577C684.789 44.6481 684.813 44.6385 684.832 44.6289C685.077 44.5137 685.321 44.3937 685.562 44.2641C685.643 44.2209 685.72 44.1777 685.802 44.1345C686.003 44.0241 686.2 43.9041 686.392 43.7841C686.454 43.7457 686.512 43.7121 686.574 43.6737C686.824 43.5152 687.064 43.3472 687.304 43.1696C687.347 43.1408 687.386 43.1072 687.429 43.0736C687.63 42.92 687.827 42.7616 688.019 42.6032C688.072 42.5552 688.13 42.512 688.182 42.464C688.638 42.0656 689.07 41.6383 689.474 41.1871C689.507 41.1487 689.546 41.1055 689.579 41.0671C689.757 40.8655 689.925 40.6543 690.088 40.4431Z" stroke="#263994" stroke-linecap="round" stroke-linejoin="round"/>
<g style="mix-blend-mode:multiply">
<path d="M227.05 244.629C236.45 250.059 251.69 250.059 261.09 244.629C270.49 239.199 270.49 230.409 261.09 224.979C251.69 219.549 236.45 219.549 227.05 224.979C217.65 230.409 217.65 239.199 227.05 244.629Z" fill="#E0E6F9"/>
</g>
<path d="M232.06 220.969C232.27 221.599 232.63 222.229 233.13 222.829C233.73 223.529 234.53 224.189 235.54 224.769C240.49 227.629 248.5 227.629 253.45 224.769C254.46 224.179 255.27 223.519 255.86 222.829C256.39 222.199 256.76 221.539 256.96 220.869C257.09 220.449 257.15 220.019 257.15 219.599C257.15 217.729 255.92 215.859 253.44 214.439C248.49 211.579 240.48 211.579 235.53 214.439C232.46 216.209 231.3 218.669 232.05 220.969H232.06Z" stroke="#263994" stroke-linecap="round" stroke-linejoin="round"/>
<path d="M233.13 222.829C233.73 223.529 234.53 224.189 235.54 224.769C240.49 227.629 248.5 227.629 253.45 224.769C254.46 224.179 255.27 223.519 255.86 222.829C255.42 221.599 254.37 220.419 252.71 219.459C248.18 216.839 240.82 216.839 236.27 219.459C234.61 220.419 233.56 221.589 233.12 222.829H233.13Z" fill="#3795FC" stroke="#263994" stroke-linecap="round" stroke-linejoin="round"/>
<path d="M232.06 220.969L234.93 234.659C235.08 235.949 236.01 237.219 237.72 238.209C241.47 240.369 247.54 240.369 251.29 238.209C252.85 237.309 253.76 236.169 254.02 234.999L254.06 234.819L256.98 220.879C256.55 222.309 255.38 223.679 253.47 224.779C248.53 227.639 240.51 227.639 235.56 224.779C233.69 223.699 232.53 222.369 232.07 220.969H232.06Z" fill="#E0E7F7" stroke="#263994" stroke-linecap="round" stroke-linejoin="round"/>
<path d="M258.03 205.309C250.89 210.919 234.79 210.269 229.2 202.919C228.69 202.249 228.27 201.529 227.95 200.749C225.8 195.489 229.14 190.899 233.36 187.279C235.36 185.559 236.74 183.509 236.05 181.019C235.42 178.749 233.13 177.039 232.19 174.859C231.14 172.429 231.47 169.869 232.82 167.579C234.03 165.549 235.85 163.849 236.08 161.489C236.33 158.949 235.47 156.529 236.82 154.079C237.88 152.159 239.67 150.999 241.95 150.439C242.96 149.929 244.25 149.809 245.66 150.369C248.79 151.629 250.27 154.079 250.16 156.929C250.05 159.979 249.03 161.949 252.25 164.089C254.68 165.699 256.87 167.199 257.66 169.829C258.52 172.689 257.32 175.219 256.25 177.889C253.91 183.739 258.48 187.079 261.21 192.039C261.41 192.399 261.58 192.759 261.73 193.129C263.55 197.479 262.13 202.099 258.04 205.309H258.03Z" fill="#80C1FF"/>
<path d="M258.03 205.309C250.89 210.919 234.79 210.269 229.2 202.919C228.69 202.249 228.27 201.529 227.95 200.749C225.8 195.489 229.14 190.899 233.36 187.279C235.36 185.559 236.74 183.509 236.05 181.019C235.42 178.749 233.13 177.039 232.19 174.859C231.14 172.429 231.47 169.869 232.82 167.579C234.03 165.549 235.85 163.849 236.08 161.489C236.33 158.949 235.47 156.529 236.82 154.079C237.88 152.159 239.67 150.999 241.95 150.439C242.96 149.929 244.25 149.809 245.66 150.369C248.79 151.629 250.27 154.079 250.16 156.929C250.05 159.979 249.03 161.949 252.25 164.089C254.68 165.699 256.87 167.199 257.66 169.829C258.52 172.689 257.32 175.219 256.25 177.889C253.91 183.739 258.48 187.079 261.21 192.039C261.41 192.399 261.58 192.759 261.73 193.129C263.55 197.479 262.13 202.099 258.04 205.309H258.03Z" stroke="#263994" stroke-linecap="round" stroke-linejoin="round"/>
<path d="M244.37 223.659C244.37 223.659 243.74 216.189 245.36 203.619C246.98 191.049 246.83 189.989 243.83 178.509C240.83 167.029 243.14 158.669 243.14 158.669" stroke="#263994" stroke-linecap="round" stroke-linejoin="round"/>
<path d="M243.56 177.419C243.56 177.419 246.6 173.469 251.4 172.409" stroke="#263994" stroke-miterlimit="10"/>
<path d="M246.11 197.329C246.11 197.329 248.33 194.309 252.56 192.489" stroke="#263994" stroke-miterlimit="10"/>
<path d="M246.39 192.489C246.39 192.489 242.47 190.569 237.48 189.899" stroke="#263994" stroke-miterlimit="10"/>
<g style="mix-blend-mode:multiply">
<path d="M244.627 270.149C236.017 275.119 222.067 275.119 213.457 270.149C204.847 265.179 204.847 257.119 213.457 252.159C222.067 247.189 236.017 247.189 244.627 252.159C253.237 257.129 253.237 265.189 244.627 270.149Z" fill="#E0E6F9"/>
</g>
<path d="M240.037 248.489C239.847 249.069 239.517 249.639 239.057 250.189C238.507 250.829 237.777 251.439 236.847 251.969C232.317 254.589 224.977 254.589 220.447 251.969C219.517 251.429 218.777 250.829 218.237 250.189C217.747 249.619 217.417 249.009 217.227 248.399C217.107 248.009 217.057 247.619 217.057 247.229C217.057 245.519 218.187 243.809 220.447 242.499C224.977 239.879 232.317 239.879 236.847 242.499C239.657 244.129 240.727 246.379 240.037 248.479V248.489Z" stroke="#263994" stroke-linecap="round" stroke-linejoin="round"/>
<path d="M239.057 250.189C238.507 250.829 237.777 251.439 236.847 251.969C232.317 254.589 224.977 254.589 220.447 251.969C219.517 251.429 218.777 250.829 218.237 250.189C218.637 249.059 219.597 247.979 221.127 247.099C225.277 244.699 232.017 244.699 236.177 247.099C237.697 247.979 238.667 249.049 239.067 250.189H239.057Z" fill="#3795FC" stroke="#263994" stroke-linecap="round" stroke-linejoin="round"/>
<path d="M240.037 248.479L237.407 261.009C237.277 262.189 236.417 263.359 234.857 264.259C231.427 266.239 225.867 266.239 222.427 264.259C220.997 263.439 220.167 262.399 219.927 261.319L219.897 261.159L217.227 248.389C217.617 249.699 218.697 250.949 220.447 251.959C224.977 254.579 232.317 254.579 236.847 251.959C238.557 250.969 239.627 249.749 240.037 248.469V248.479Z" fill="#E0E7F7" stroke="#263994" stroke-linecap="round" stroke-linejoin="round"/>
<path d="M233.617 235.539C227.687 237.029 220.007 237.879 214.397 234.749C213.387 234.189 212.447 233.499 211.597 232.659C207.467 228.039 210.327 221.529 214.327 217.859C213.897 217.409 213.497 216.959 213.147 216.499C200.557 200.529 231.127 183.279 238.247 205.779C238.937 205.779 239.607 205.829 240.267 205.919C244.747 207.169 247.117 210.129 247.847 213.739C249.507 221.849 242.927 233.199 233.607 235.549L233.617 235.539Z" fill="#80C1FF"/>
<path d="M233.617 235.539C227.687 237.029 220.007 237.879 214.397 234.749C213.387 234.189 212.447 233.499 211.597 232.659C207.467 228.039 210.327 221.529 214.327 217.859C213.897 217.409 213.497 216.959 213.147 216.499C200.557 200.529 231.127 183.279 238.247 205.779C238.937 205.779 239.607 205.829 240.267 205.919C244.747 207.169 247.117 210.129 247.847 213.739C249.507 221.849 242.927 233.199 233.607 235.549L233.617 235.539Z" stroke="#263994" stroke-linecap="round" stroke-linejoin="round"/>
<path d="M228.628 249.218C228.628 249.218 229.808 246.298 229.918 235.588C229.918 235.588 230.178 222.558 225.078 208.648" stroke="#263994" stroke-miterlimit="10"/>
<path d="M229.477 244.479L237.227 234.119" stroke="#263994" stroke-miterlimit="10"/>
<path d="M229.477 244.479L223.188 236.879" stroke="#263994" stroke-miterlimit="10"/>
<path d="M227.907 218.359C227.907 218.359 234.797 212.629 236.037 210.529" stroke="#263994" stroke-miterlimit="10"/>
<path d="M229.287 226.229C229.287 226.229 222.827 226.539 218.237 224.119" stroke="#263994" stroke-miterlimit="10"/>
<path d="M376.145 206.456L273 146.91L416.855 63.8516L520 123.404L376.145 206.456Z" fill="#E0E7F7"/>
<path d="M376.145 184.478L273 124.932L416.855 41.873L520 101.426L376.145 184.478Z" fill="#E0E7F7" stroke="#263994" stroke-miterlimit="10"/>
<path d="M376.145 172.143L273 112.59L416.855 29.5381L520 89.084L376.145 172.143Z" fill="#E0E7F7" stroke="#263994" stroke-miterlimit="10"/>
<path d="M376.145 159.801L273 100.255L416.855 17.1963L520 76.7488L376.145 159.801Z" fill="white" stroke="#263994" stroke-linecap="round" stroke-linejoin="round"/>
<path d="M411.385 36.1523L448.555 57.6148" stroke="#263994" stroke-miterlimit="10"/>
<path d="M392.125 47.2705L465.236 89.4811" stroke="#263994" stroke-miterlimit="10"/>
<path d="M380.048 54.248L453.159 96.4586" stroke="#263994" stroke-miterlimit="10"/>
<path d="M367.97 61.2192L441.082 103.43" stroke="#263994" stroke-miterlimit="10"/>
<path d="M355.893 68.1904L429.005 110.401" stroke="#263994" stroke-miterlimit="10"/>
<path d="M343.816 75.1616L416.927 117.372" stroke="#263994" stroke-miterlimit="10"/>
<path d="M331.746 82.1328L386.252 113.602" stroke="#263994" stroke-miterlimit="10"/>
<path d="M340.383 118.523C340.383 118.523 362.95 125.666 372.838 119.33C375.57 117.379 361.72 112.517 354.392 124.343C349.894 131.605 373.625 132.836 374.955 129.912C375.755 128.166 368.559 124.542 367.97 133.9C367.382 143.259 389.373 140.091 391.424 136.718C393.474 133.345 379.399 127.816 375.061 137.148C369.743 148.583 354.293 138.457 352.044 129.462" stroke="#263994" stroke-miterlimit="10"/>
<path d="M388.883 58.1279L404.698 67.2575L388.883 76.3882L373.068 67.2586L388.883 58.1279Z" fill="#80C1FF"/>
<path d="M373.131 48.9545L388.949 58.0895L373.134 67.2203L357.316 58.0852L373.131 48.9545Z" fill="#E0E7F7"/>
<path d="M357.388 39.7841L373.202 48.9138L357.387 58.0445L341.573 48.9149L357.388 39.7841Z" fill="#3795FC"/>
<path d="M404.758 48.9624L420.572 58.092L404.757 67.2227L388.943 58.0931L404.758 48.9624Z" fill="#E0E7F7"/>
<path d="M389.006 39.7894L404.829 48.9213L389.009 58.0552L373.191 48.9202L389.006 39.7894Z" fill="white"/>
<path d="M373.263 30.6186L389.077 39.7482L373.262 48.879L357.448 39.7494L373.263 30.6186Z" fill="#E0E7F7"/>
<path d="M420.633 39.7968L436.447 48.9265L420.632 58.0572L404.818 48.9276L420.633 39.7968Z" fill="#3795FC"/>
<path d="M404.881 30.6239L420.704 39.7558L404.883 48.8897L389.066 39.7546L404.881 30.6239Z" fill="#80C1FF"/>
<path d="M389.137 21.4536L404.952 30.5832L389.137 39.7139L373.323 30.5843L389.137 21.4536Z" fill="white"/>
<path d="M388.883 76.3879L341.573 48.915L389.137 21.4536L436.447 48.9265L388.883 76.3879Z" stroke="#263994" stroke-miterlimit="10"/>
<path d="M370.022 70.7532L388.856 81.6271L407.69 70.7533" stroke="#263994" stroke-miterlimit="10"/>
<path d="M426.589 59.8418L445.494 48.9271L426.66 38.0532" stroke="#263994" stroke-miterlimit="10"/>
<path d="M407.911 27.1377L389.164 16.2134L370.259 27.1282" stroke="#263994" stroke-miterlimit="10"/>
<path d="M351.354 38.0427L332.526 48.9133L351.278 59.8344" stroke="#263994" stroke-miterlimit="10"/>
<path d="M574.203 248.53C570.532 246.41 567.371 249.65 559.122 251.046C554.573 251.816 537.8 251.33 526.826 249.794L515.431 243.21L494 255.588L502.198 260.325L505.39 262.168L505.437 262.141C505.437 262.141 508.288 264.486 512.27 267.667C519.655 273.57 530.928 282.363 535.097 284.42C541.518 287.589 547.977 283.802 546.861 281.659C548.712 282.616 551.38 282.818 553.511 282.168C555.432 281.577 556.618 280.391 556.579 279.108C558.384 279.831 560.736 279.858 562.486 279.19C564.742 278.322 564.769 276.763 564.761 276.596V276.584C564.761 276.584 568.203 277.121 570.528 275.779C571.765 275.063 572.372 274.266 572.407 273.418V273.232C572.325 271.707 570.458 270.027 567.18 268.371C566.993 268.277 566.799 268.176 566.601 268.075C561.242 265.33 552.161 260.294 552.161 260.294C552.161 260.294 566.294 259.846 571.197 256.98C571.256 256.949 571.31 256.918 571.365 256.883C574.308 255.051 576.109 253.088 576.163 251.361V251.202C576.136 250.21 575.518 249.296 574.2 248.538L574.203 248.53Z" fill="#E0E7F7"/>
<path d="M505.441 240.927V250.4L505.394 250.427L494 243.843V234.374L502.198 239.111H502.202L505.394 240.954L505.441 240.927Z" fill="#3795FC" stroke="#263994" stroke-miterlimit="10"/>
<path d="M576.167 229.984V230.143C576.113 231.87 574.316 233.834 571.368 235.665C571.314 235.7 571.26 235.731 571.201 235.763C566.297 238.629 552.165 239.076 552.165 239.076C552.165 239.076 561.246 244.116 566.605 246.857C566.803 246.959 566.997 247.06 567.184 247.153C570.458 248.81 572.329 250.49 572.411 252.014V252.201C572.376 253.048 571.769 253.846 570.532 254.561C568.207 255.903 564.765 255.366 564.765 255.366V255.378C564.773 255.549 564.746 257.105 562.49 257.972C560.74 258.641 558.387 258.613 556.583 257.89C556.626 259.173 555.44 260.359 553.515 260.951C551.38 261.6 548.712 261.398 546.865 260.441C547.981 262.584 541.522 266.372 535.101 263.202C530.932 261.145 519.659 252.352 512.274 246.449C508.295 243.268 505.441 240.923 505.441 240.923L518.624 233.309L526.822 228.576C537.796 230.112 554.569 230.598 559.119 229.828C567.367 228.432 570.528 225.193 574.199 227.312C575.518 228.07 576.136 228.984 576.163 229.976L576.167 229.984Z" fill="white" stroke="#263994" stroke-linejoin="round"/>
<path d="M526.826 228.58L518.628 233.313H518.624L505.441 240.927L505.394 240.954L502.202 239.111H502.198L494 234.374L515.431 222L526.826 228.58Z" fill="#80C1FF" stroke="#263994" stroke-miterlimit="10"/>
<path d="M572.407 252.204V261.678C572.372 262.525 571.765 263.323 570.529 264.038C568.203 265.38 564.761 264.843 564.761 264.843C564.769 264.944 564.796 266.562 562.486 267.445C560.736 268.118 558.384 268.09 556.579 267.363C556.622 268.646 555.436 269.836 553.511 270.424C551.376 271.077 548.708 270.875 546.861 269.914C547.977 272.061 541.518 275.849 535.097 272.679C528.681 269.51 505.437 250.4 505.437 250.4V240.927C505.437 240.927 508.288 243.272 512.27 246.453C519.655 252.356 530.928 261.149 535.097 263.206C541.518 266.375 547.977 262.588 546.861 260.445C548.712 261.401 551.38 261.604 553.511 260.954C555.432 260.363 556.618 259.177 556.579 257.894C558.384 258.617 560.736 258.644 562.486 257.975C564.742 257.108 564.769 255.549 564.761 255.382V255.37C564.761 255.37 568.203 255.907 570.529 254.565C571.765 253.849 572.372 253.052 572.407 252.204Z" fill="#E0E7F7" stroke="#263994" stroke-linejoin="round"/>
<path d="M576.167 230.143V239.616C576.113 241.343 574.316 243.307 571.368 245.138C570.229 245.85 568.53 246.41 566.605 246.861C561.246 244.116 552.165 239.08 552.165 239.08C552.165 239.08 566.297 238.632 571.201 235.766C571.26 235.735 571.314 235.704 571.368 235.669C574.312 233.837 576.113 231.874 576.167 230.147V230.143Z" fill="#E0E7F7" stroke="#263994" stroke-miterlimit="10"/>
<path d="M564.765 255.378V264.839" stroke="#263994" stroke-miterlimit="10"/>
<path d="M556.583 257.894V267.363" stroke="#263994" stroke-miterlimit="10"/>
<path d="M546.865 260.445V269.914" stroke="#263994" stroke-miterlimit="10"/>
<g style="mix-blend-mode:multiply">
<path d="M675.936 311.254L628.913 283.819C627.561 283.04 627.73 281.676 629.292 280.777L634.964 277.504C636.522 276.606 638.884 276.507 640.232 277.286L687.254 304.721C688.606 305.5 688.437 306.865 686.875 307.763L681.203 311.036C679.645 311.935 677.284 312.033 675.936 311.254Z" fill="#E0E6F9"/>
</g>
<path d="M689.657 239.553L653.401 218.622C652.643 218.185 651.884 217.856 651.138 217.625C649.143 217.007 647.247 217.122 645.693 217.88L644.964 218.301H644.955C643.591 219.224 642.573 220.708 642.128 222.687L633.756 259.722C632.585 264.891 635.743 271.445 640.805 274.367L648.562 278.844L654.683 291.572C655.709 293.703 657.865 294.944 659.506 294.354L669.303 290.818L677.061 295.298C680.012 297.001 682.959 297.091 685.136 295.842L685.309 295.743C686.776 294.837 687.869 293.303 688.334 291.23L688.371 291.069L696.702 254.199C697.872 249.03 694.715 242.472 689.657 239.549V239.553ZM685.358 262.809C685.045 264.887 684.212 266.544 683.025 267.718C682.498 268.242 681.9 268.667 681.245 268.992L665.569 277.508C663.619 278.567 661.142 278.077 659.019 276.552C657.655 275.571 656.435 274.165 655.602 272.463C655.45 272.158 655.31 271.836 655.186 271.515L646.534 248.96C645.784 247.105 645.363 245.163 645.363 243.292C645.363 243.247 645.363 243.197 645.363 243.152C645.376 242.068 645.528 241.008 645.837 240.003C645.986 239.52 646.171 239.063 646.386 238.643C647.973 235.485 651.245 234.051 654.881 234.813C655.755 234.995 656.649 235.304 657.548 235.745C662.189 238.032 665.573 243.012 666.381 247.933C668.974 244.978 673.565 244.599 678.046 247.583C683.017 250.889 686.158 257.443 685.354 262.818L685.358 262.809Z" fill="white" stroke="#263994" stroke-linecap="round" stroke-linejoin="round"/>
<path d="M685.358 262.809C685.045 264.887 684.213 266.544 683.025 267.719C682.498 268.242 681.9 268.667 681.245 268.992L665.569 277.508C663.619 278.567 661.142 278.077 659.019 276.552C657.655 275.571 656.435 274.165 655.602 272.463C655.45 272.158 655.31 271.836 655.186 271.515L646.534 248.96C645.784 247.105 645.364 245.163 645.364 243.292C645.364 243.247 645.364 243.197 645.364 243.152C645.376 242.068 645.528 241.009 645.838 240.003C645.986 239.521 646.171 239.063 646.386 238.643C647.973 235.485 651.245 234.051 654.881 234.813C655.755 234.995 656.649 235.304 657.548 235.745C662.189 238.033 665.573 243.012 666.381 247.933C668.974 244.978 673.566 244.599 678.046 247.583C683.017 250.889 686.158 257.443 685.354 262.818L685.358 262.809Z" fill="#FF70AB" stroke="#263994" stroke-miterlimit="10"/>
<path d="M705.758 248.972L697.386 286.003C696.875 288.262 695.626 289.882 693.953 290.748L685.305 295.743C686.772 294.836 687.864 293.303 688.33 291.23L688.367 291.069L696.698 254.199C697.868 249.03 694.711 242.472 689.653 239.549L653.397 218.618C652.639 218.181 651.88 217.852 651.134 217.621C649.139 217.002 647.243 217.118 645.689 217.876L654.069 213.033L654.098 213.017C656.299 211.594 659.374 211.615 662.453 213.392L698.709 234.323C703.767 237.245 706.924 243.803 705.758 248.972Z" fill="white" stroke="#263994" stroke-linecap="round" stroke-linejoin="round"/>
<g style="mix-blend-mode:multiply">
<path d="M549.623 373.372C541.243 378.209 527.664 378.209 519.285 373.372C510.905 368.535 510.905 360.691 519.285 355.861C527.664 351.024 541.243 351.024 549.623 355.861C558.003 360.698 558.003 368.542 549.623 373.372Z" fill="#E0E6F9"/>
</g>
<path d="M543.658 331.55C542.405 340.995 540.401 349.187 540.735 362.223C540.735 362.223 540.512 362.57 540.06 362.995H540.053C539.037 363.949 536.879 365.299 533.469 364.178C533.469 364.178 533.288 361.694 533.114 358.29C530.636 358.708 528.166 359.125 525.695 359.543C525.695 359.543 523.948 349.681 524.616 343.243C525.521 334.508 528.465 328.189 526.446 322.349C526.196 321.619 525.382 319.496 525.409 316.601C525.437 314.276 526.001 312.39 526.446 311.2C529.864 313.559 540.171 319.969 544.34 314.777C544.361 315.062 544.897 322.28 543.665 331.536L543.658 331.55Z" fill="#80C1FF" stroke="#263994" stroke-miterlimit="10"/>
<path d="M539.03 276.672C538.995 276.971 538.939 277.222 538.849 277.403C538.285 278.621 533.03 276.832 532.425 275.704C532.3 275.468 532.307 275.002 532.404 274.396C532.508 273.742 532.703 272.948 532.933 272.127C532.968 272.141 533.003 272.155 533.037 272.169C533.789 272.447 534.61 272.106 535.383 271.542C535.487 271.612 537.179 272.753 538.988 273.248C539.072 274.319 539.141 275.725 539.016 276.672H539.03Z" fill="white" stroke="#263994" stroke-miterlimit="10"/>
<path d="M543.408 270.672C542.962 273.588 540.916 273.776 539.009 273.247C537.199 272.746 535.501 271.612 535.404 271.542C535.961 271.132 536.497 270.61 536.977 270.109C537.645 269.406 538.195 268.758 538.522 268.536C539.399 267.951 540.317 268.285 540.317 268.285C540.317 268.285 541.243 265.606 540.234 263.9C540.234 263.9 541.083 263.309 541.8 262.383C541.897 262.327 542.002 262.279 542.099 262.23C542.099 262.23 544.285 264.903 543.408 270.672Z" fill="white" stroke="#263994" stroke-miterlimit="10"/>
<path d="M541.793 262.383C541.076 263.309 540.227 263.9 540.227 263.9C541.229 265.613 540.311 268.285 540.311 268.285C540.311 268.285 539.392 267.951 538.515 268.536C538.195 268.751 537.638 269.406 536.97 270.109C536.49 270.61 535.954 271.132 535.397 271.542C534.617 272.113 533.796 272.447 533.051 272.169C533.017 272.155 532.982 272.141 532.947 272.127C530.922 271.222 528.604 265.543 530.455 261.597C532.335 257.588 540.206 255.792 541.946 257.873C543.359 259.564 542.684 261.228 541.8 262.376L541.793 262.383Z" fill="#263994" stroke="#263994" stroke-miterlimit="10"/>
<path d="M570.537 287.766C568.923 289.492 565.018 289.318 565.018 289.318L562.833 286.325C562.833 286.325 567.05 280.158 570.078 282.476C573.098 284.794 570.544 287.772 570.544 287.772L570.537 287.766Z" fill="white" stroke="#263994" stroke-miterlimit="10"/>
<path d="M562.826 286.325C562.826 286.325 557.529 288.093 553.305 291.608C553.305 291.608 547.082 281.495 543.053 279.087C543.053 279.087 543.053 279.087 543.046 279.087C542.03 278.279 540.603 277.437 539.023 276.686C538.988 276.985 538.932 277.235 538.842 277.416C538.278 278.634 533.024 276.846 532.418 275.718C532.293 275.482 532.3 275.008 532.397 274.41C530.936 274.145 529.669 274.124 528.855 274.479C523.795 276.7 526.112 283.026 526.746 290.487C527.372 297.948 525.305 306.717 525.305 310.42C525.305 310.42 525.716 310.733 526.426 311.227C529.843 313.587 540.15 319.997 544.319 314.805C544.598 314.457 544.848 314.053 545.071 313.594C545.071 313.594 543.575 302.194 544.319 297.906C544.5 296.848 544.723 295.436 544.918 293.863C547.507 296.695 550.423 299.444 551.794 299.521C554.091 299.646 565.004 289.339 565.004 289.339L562.819 286.346L562.826 286.325Z" fill="#3795FC" stroke="#263994" stroke-miterlimit="10"/>
<path d="M533.462 364.185C533.462 364.185 527.261 367.192 526.036 365.312C525.354 364.268 525.688 359.55 525.688 359.55C528.159 359.132 530.629 358.714 533.107 358.297C533.281 361.7 533.462 364.185 533.462 364.185Z" fill="white" stroke="#263994" stroke-miterlimit="10"/>
<path d="M542.197 369.12C540.777 369.203 536.476 372.335 534.931 371.249C533.379 370.164 532.961 367.533 533.462 364.185C536.872 365.306 539.037 363.956 540.046 363.002C540.046 363.002 540.046 363.002 540.053 363.002C540.359 362.905 547.396 360.643 548.426 362.765C549.052 364.081 546.797 368.66 542.197 369.12Z" fill="white" stroke="#263994" stroke-miterlimit="10"/>
<path d="M533.1 358.297C533.1 358.297 531.938 343.619 532.801 339.297C533.664 334.982 534.165 324.257 533.928 323.394C533.692 322.53 531.332 321.981 530.782 320.408" fill="#80C1FF"/>
<path d="M533.1 358.297C533.1 358.297 531.938 343.619 532.801 339.297C533.664 334.982 534.165 324.257 533.928 323.394C533.692 322.53 531.332 321.981 530.782 320.408" stroke="#263994" stroke-miterlimit="10"/>
<path d="M892.78 374.66L773 307.29L851.84 261.33L952.76 318.29L902.56 350.27L917.03 358.82L892.78 374.66Z" fill="#E0E7F7"/>
<path d="M815.61 192.35L773 167.74L852.8 121.67L895.41 146.27L815.61 192.35Z" fill="white" stroke="#263994" stroke-linecap="round" stroke-linejoin="round"/>
<path d="M815.61 135.43L773 110.83L807.38 91L849.99 115.6L815.61 135.43Z" fill="white" stroke="#263994" stroke-linecap="round" stroke-linejoin="round"/>
<path d="M815.61 192.35V135.43L773 110.83V167.74V306.8L815.61 331.4V192.35Z" fill="white" stroke="#263994" stroke-linecap="round" stroke-linejoin="round"/>
<path d="M895.41 146.27L849.99 172.51V115.6L815.61 135.43V192.35V331.4L895.41 285.33V146.27Z" fill="#E0E7F7" stroke="#263994" stroke-linejoin="round"/>
<path d="M914.912 575.08L757.625 486.758L810.188 456.868L964.533 543.992L914.912 575.08Z" fill="#E0E7F7"/>
<path d="M790.259 199.22L757 180.015L808.997 150L842.256 169.205L790.259 199.22Z" fill="white" stroke="#263994" stroke-linecap="round" stroke-linejoin="round"/>
<path d="M757 180.015V485.936L790.265 505.141L790.259 199.22L757 180.015Z" fill="white" stroke="#263994" stroke-linecap="round" stroke-linejoin="round"/>
<path d="M842.256 169.205L790.259 199.22L790.265 505.141L842.256 475.12V169.205Z" fill="#E0E7F7" stroke="#263994" stroke-linejoin="round"/>
<path d="M808.523 171.231L796.976 164.567L808.734 157.783L820.28 164.448L808.523 171.231Z" fill="white" stroke="#263994" stroke-linecap="round" stroke-linejoin="round"/>
<path d="M796.976 164.567V170.87L808.523 177.535V171.232L796.976 164.567Z" fill="white" stroke="#263994" stroke-linecap="round" stroke-linejoin="round"/>
<path d="M822.445 172.087L810.694 178.87L808.523 177.535L820.28 170.745L822.445 172.087Z" fill="#E0E7F7"/>
<path d="M820.28 164.448L808.523 171.232V177.535L820.28 170.745V164.448Z" fill="#E0E7F7" stroke="#263994" stroke-linejoin="round"/>
</svg>
