<svg width="965" height="620" viewBox="0 0 965 620" fill="none" xmlns="http://www.w3.org/2000/svg">
<g style="mix-blend-mode:multiply">
<path d="M42.6012 574.703C33.9868 579.676 20.0276 579.676 11.4131 574.703C2.79865 569.731 2.79865 561.667 11.4131 556.702C20.0276 551.729 33.9868 551.729 42.6012 556.702C51.2157 561.674 51.2157 569.738 42.6012 574.703Z" fill="#E0E6F9"/>
</g>
<path d="M29.2789 476.302C29.4434 477.104 26.4169 479.2 22.7751 477.139L22.6248 474.199L22.3029 467.745C23.3332 469.884 25.9375 471.687 28.4775 472.195C28.5205 472.417 28.5634 472.639 28.6063 472.882C28.871 474.27 29.1859 475.873 29.2646 476.302H29.2789Z" fill="white" stroke="#263994" stroke-miterlimit="10"/>
<path d="M31.2751 472.145C30.4165 472.389 29.4577 472.389 28.4847 472.195C25.9447 471.694 23.3403 469.884 22.31 467.745C22.2599 467.652 22.217 467.545 22.1812 467.452C23.0899 466.886 24.3992 465.641 24.5853 465.062C24.8428 464.253 24.5567 461.263 24.5567 461.263C24.5567 461.263 26.8748 462.357 29.5794 462.357C30.4451 462.357 31.182 462.064 31.7187 461.592C31.7187 461.592 34.8096 471.165 31.2822 472.152L31.2751 472.145Z" fill="white" stroke="#263994" stroke-miterlimit="10"/>
<path d="M31.7116 461.592C31.175 462.064 30.438 462.358 29.5723 462.358C26.8677 462.358 24.5496 461.263 24.5496 461.263C24.5496 461.263 24.8358 464.254 24.5782 465.062C24.3922 465.642 23.09 466.894 22.1741 467.452C21.8307 467.666 21.5374 467.781 21.3871 467.731C20.8433 467.538 20.0348 466.286 19.8703 462.443C19.7057 458.608 21.7091 456.183 25.6371 455.968C26.5672 455.918 29.9515 455.489 31.8189 457.485C33.0925 458.844 32.8421 460.597 31.7044 461.585L31.7116 461.592Z" fill="#263994" stroke="#263994" stroke-miterlimit="10"/>
<path d="M32.1194 562.49C31.9906 562.583 31.8618 562.669 31.7259 562.74C28.7852 564.472 24.8357 562.941 24.8357 562.941C20.7789 548.767 22.5176 539.616 22.5176 539.616C22.5176 539.616 20.5786 534.522 18.8113 529.749C17.8669 527.195 16.9725 524.734 16.4574 523.181C14.9763 518.738 15.4485 514.037 15.4485 514.037C18.6682 515.769 26.5887 518.559 35.0314 510.388C35.0314 510.388 35.611 523.696 30.1947 533.921C30.3664 536.539 30.4738 539.108 30.438 541.219C30.3092 548.889 32.1122 562.483 32.1122 562.483L32.1194 562.49Z" fill="#80C1FF" stroke="#263994" stroke-miterlimit="10"/>
<path d="M22.5175 539.608L11.0483 550.627H11.0411L6.61222 546.506C6.52637 546.298 6.46197 546.084 6.41189 545.862C6.41189 545.862 14.5971 532.64 18.8184 529.749C20.5785 534.521 22.5247 539.616 22.5247 539.616L22.5175 539.608Z" fill="#80C1FF" stroke="#263994" stroke-miterlimit="10"/>
<path d="M38.151 575.118C36.5626 575.977 31.1964 575.247 28.9641 572.328C26.7318 569.409 24.6712 568.85 24.2777 568.185C23.8913 567.513 24.8357 562.941 24.8357 562.941C24.8357 562.941 28.7852 564.479 31.7259 562.74C31.7259 562.74 33.0424 565.881 36.3909 569.745C39.7393 573.608 39.7393 574.252 38.151 575.111V575.118Z" fill="white" stroke="#263994" stroke-miterlimit="10"/>
<path d="M11.1771 564.293C8.21503 564.808 5.37455 558.025 4.83078 555.056C4.28701 552.087 2.71292 550.291 3.05636 549.647C3.39979 549.003 6.60517 546.506 6.60517 546.506C9.04498 548.774 10.6262 550.219 11.034 550.627H11.0412C11.0412 550.627 11.17 553.725 11.5134 555.099C11.8569 556.473 14.1321 563.778 11.17 564.286L11.1771 564.293Z" fill="white" stroke="#263994" stroke-miterlimit="10"/>
<path d="M55.4228 507.648C53.9632 511.283 50.3071 509.573 50.3071 509.573C48.1535 508.449 47.2377 504.543 47.2377 504.543L49.5988 501.545C49.5988 501.545 56.8753 504.013 55.4228 507.648Z" fill="white" stroke="#263994" stroke-miterlimit="10"/>
<path d="M5.23136 515.411C1.35341 515.969 1.00282 511.948 1.00282 511.948C0.8955 509.515 3.82185 506.775 3.82185 506.775L7.77849 508.556C8.02176 510.724 8.11477 514.996 5.23136 515.404V515.411Z" fill="white" stroke="#263994" stroke-miterlimit="10"/>
<path d="M15.2697 478.198C17.7739 475.83 20.5142 475.229 22.6249 474.199L22.7751 477.139C26.4169 479.2 29.4435 477.104 29.2789 476.302C29.193 475.866 28.8854 474.27 28.6207 472.882C28.9784 472.882 29.3505 472.897 29.7368 472.918C30.9531 472.99 31.8976 473.541 32.6274 474.428C38.3155 479.422 41.0344 490.762 42.3222 492.766C43.4885 494.569 49.6059 501.545 49.6059 501.545L47.2448 504.543C47.2448 504.543 39.1383 500.285 37.2924 498.053C36.5196 497.109 35.0243 495.084 34.4376 492.129C34.4376 491.285 34.4733 490.526 34.5449 489.897C34.9313 486.477 35.3319 482.355 33.9582 478.499C35.3319 482.363 34.9313 486.477 34.5449 489.897C34.4733 490.533 34.4376 491.285 34.4376 492.129C34.4376 498.361 36.1762 509.222 36.1762 509.222C35.797 509.637 35.4106 510.023 35.0314 510.395C26.5887 518.566 18.6682 515.776 15.4485 514.044C14.4755 513.522 13.9317 513.093 13.9317 513.093C15.4271 509.308 16.0639 500.7 15.2697 494.719C14.6114 495.527 14.1177 496.15 13.9388 496.515C12.8441 498.704 7.78567 508.564 7.78567 508.564L3.82903 506.782C3.82903 506.782 6.01126 497.509 8.25789 491.342C12.05 480.953 15.2768 478.206 15.2768 478.206L15.2697 478.198Z" fill="#3795FC"/>
<path d="M34.4376 492.129C35.0243 495.084 36.5196 497.109 37.2924 498.053C39.1383 500.285 47.2448 504.543 47.2448 504.543L49.6059 501.545C49.6059 501.545 43.4885 494.569 42.3222 492.766C41.0344 490.762 38.3155 479.422 32.6274 474.428C31.8976 473.541 30.9531 472.99 29.7368 472.918C29.3505 472.897 28.9784 472.882 28.6207 472.882C28.8854 474.27 29.193 475.866 29.2789 476.302C29.4435 477.104 26.4169 479.2 22.7751 477.139L22.6249 474.199C20.5142 475.229 17.7739 475.83 15.2697 478.198L15.2768 478.206C15.2768 478.206 12.05 480.953 8.25789 491.342C6.01126 497.509 3.82902 506.782 3.82902 506.782L7.78567 508.564C7.78567 508.564 12.8441 498.704 13.9388 496.515C14.1177 496.15 14.6114 495.527 15.2697 494.719C16.0639 500.7 15.4271 509.308 13.9317 513.093C13.9317 513.093 14.4755 513.522 15.4485 514.044C18.6682 515.776 26.5887 518.566 35.0314 510.395C35.4106 510.023 35.797 509.637 36.1762 509.222C36.1762 509.222 34.4376 498.361 34.4376 492.129ZM34.4376 492.129C34.4376 491.285 34.4733 490.526 34.5449 489.897M34.4376 492.129C34.4376 491.285 34.4733 490.533 34.5449 489.897M34.5449 489.897C34.9313 486.477 35.3319 482.355 33.9582 478.499C35.3319 482.363 34.9313 486.477 34.5449 489.897Z" stroke="#263994" stroke-miterlimit="10"/>
<path d="M33.4845 460.053L23.8039 465.648V454.465L33.4845 448.877V460.053Z" fill="#80C1FF"/>
<path d="M43.165 454.515L33.4845 460.103V448.927L43.165 443.339V454.515Z" fill="#E0E7F7"/>
<path d="M52.8456 448.977L43.1651 454.565V443.389L52.8456 437.794V448.977Z" fill="#3795FC"/>
<path d="M33.4845 471.279L23.8039 476.867V465.684L33.4845 460.096V471.279Z" fill="#E0E7F7"/>
<path d="M43.165 465.734L33.4845 471.321V460.146L43.165 454.558V465.734Z" fill="white"/>
<path d="M52.8456 460.196L43.1651 465.784V454.608L52.8456 449.02V460.196Z" fill="#E0E7F7"/>
<path d="M33.4845 482.498L23.8039 488.085V476.91L33.4845 471.314V482.498Z" fill="#3795FC"/>
<path d="M43.165 476.953L33.4845 482.541V471.365L43.165 465.777V476.953Z" fill="#80C1FF"/>
<path d="M52.8456 471.415L43.1651 477.003V465.827L52.8456 460.239V471.415Z" fill="white"/>
<path d="M23.8039 454.465L52.8456 437.794V471.415L23.8039 488.086V454.465Z" stroke="#263994" stroke-miterlimit="10"/>
<path d="M32.5616 446.194L21.035 452.848V466.163" stroke="#263994" stroke-miterlimit="10"/>
<path d="M21.035 479.521V492.879L32.5616 486.225" stroke="#263994" stroke-miterlimit="10"/>
<path d="M44.0881 479.628L55.6146 473.031V459.673" stroke="#263994" stroke-miterlimit="10"/>
<path d="M55.6146 446.308V433L44.0881 439.597" stroke="#263994" stroke-miterlimit="10"/>
<g style="mix-blend-mode:multiply">
<path d="M420.461 406.612C429.075 411.584 443.034 411.584 451.649 406.612C460.263 401.639 460.263 393.575 451.649 388.61C443.034 383.637 429.075 383.637 420.461 388.61C411.846 393.582 411.846 401.646 420.461 406.612Z" fill="#E0E6F9"/>
</g>
<path d="M432.996 304.834C433.561 305.284 434.305 305.492 435.121 305.535C435.529 305.563 435.958 305.542 436.395 305.492C439.049 305.213 441.904 303.846 441.904 303.846C441.818 303.41 441.732 303.152 441.732 303.152C444.086 302.508 445.417 300.627 443.922 299.124C442.419 297.629 440.795 300.347 440.795 300.347C437.325 298.666 434.742 296.47 433.712 294.853C432.86 297.192 430.95 303.181 433.003 304.834H432.996Z" fill="white" stroke="#263994" stroke-miterlimit="10"/>
<path d="M428.889 403.478C429.233 404.53 430.22 404.336 432.281 404.336C434.341 404.336 437.439 401.267 438.04 400.709C438.641 400.151 441.482 399.271 441.482 397.704C441.482 396.137 440.115 393.439 440.115 393.439H435.858C435.858 393.439 434.721 394.935 434.356 396.416C433.991 397.897 428.553 402.433 428.896 403.485L428.889 403.478Z" fill="white" stroke="#263994" stroke-miterlimit="10"/>
<path d="M433.704 294.86C434.742 296.484 437.325 298.68 440.788 300.355C440.788 300.355 442.412 297.636 443.914 299.131C445.41 300.634 444.079 302.515 441.725 303.159C441.725 303.159 441.811 303.417 441.897 303.853C442.14 305.027 442.419 307.495 441.067 309.506C440.487 310.371 439.936 311.044 439.436 311.681C438.348 313.076 437.497 314.307 437.117 317.018C437.117 317.018 438.534 315.516 441.024 314.013C441.904 313.484 443.256 312.511 444.251 310.858C444.637 310.214 444.973 309.456 445.202 308.59L445.589 311.659C445.989 311.953 446.419 312.318 446.819 312.783C447.8 312.933 448.579 313.591 449.202 314.564C449.195 314.378 449.016 311.259 448.465 309.57C447.9 307.831 447.241 302.916 447.005 299.403C446.955 297.536 446.834 295.618 445.202 293.636C444.952 293.328 442.97 291.318 440.208 290.953C439.421 290.846 436.266 290.595 433.84 292.47C433.576 292.677 433.44 292.885 433.318 293.078C433.068 293.472 433.211 294.108 433.697 294.86H433.704Z" fill="#263994" stroke="#263994" stroke-miterlimit="10"/>
<path d="M418.186 339.198C420.039 342.647 423.48 340.551 423.48 340.551C425.498 339.191 425.97 335.213 425.97 335.213L423.294 332.494C423.294 332.494 416.332 335.75 418.178 339.198H418.186Z" fill="white" stroke="#263994" stroke-miterlimit="10"/>
<path d="M425.577 361.335C426.056 364.426 435.844 373.534 435.844 373.534C436.123 381.548 435.844 393.418 435.844 393.418H440.101C441.925 386.914 442.777 381.705 443.099 377.67C443.728 369.814 442.376 366.401 442.376 366.401C442.376 366.401 442.455 366.172 442.598 365.75C443.321 363.596 445.653 356.527 446.862 351.147C445.904 351.877 444.337 352.499 442.476 351.061C439.385 348.657 444.415 342.854 444.415 342.854C444.83 341.445 445.138 339.763 445.381 338.061C444.737 336.83 444.093 335.735 443.686 334.719C443.686 334.719 435.779 337.209 430.37 331.192C430.37 331.192 424.832 355.49 425.569 361.328L425.577 361.335Z" fill="#80C1FF" stroke="#263994" stroke-miterlimit="10"/>
<path d="M436.395 305.499L436.881 310.085C436.881 310.085 437.74 311.695 439.436 311.688C439.936 311.051 440.487 310.378 441.067 309.513C442.419 307.502 442.14 305.034 441.897 303.86C441.897 303.86 439.042 305.234 436.388 305.506L436.395 305.499Z" fill="white" stroke="#263994" stroke-miterlimit="10"/>
<path d="M442.484 351.068C444.344 352.507 445.911 351.884 446.869 351.154C447.506 350.675 447.871 350.145 447.871 350.145C449.166 348.085 447.971 344.25 447.971 344.25L447.521 344.078L444.422 342.862C444.422 342.862 439.393 348.664 442.484 351.068Z" fill="white" stroke="#263994" stroke-miterlimit="10"/>
<path d="M423.301 332.494L423.316 332.473C423.623 331.994 428.718 324.159 429.927 320.574C429.211 319.973 428.295 318.929 428.295 317.498C428.295 315.144 431.866 311.309 432.288 309.22C432.696 307.18 434.992 305.628 435.121 305.542C435.529 305.571 435.958 305.549 436.395 305.499L436.881 310.085C436.881 310.085 437.74 311.695 439.436 311.688C438.348 313.083 437.497 314.314 437.117 317.026C437.117 317.026 438.534 315.523 441.024 314.02C441.904 313.491 443.256 312.518 444.251 310.865C444.637 310.221 444.973 309.463 445.202 308.597L445.589 311.667C445.989 311.96 446.419 312.325 446.819 312.79C447.8 312.94 448.579 313.598 449.202 314.571C451.391 318.013 451.613 325.468 451.542 329.446C451.456 334.555 447.957 344.257 447.957 344.257L447.506 344.085L444.408 342.869C444.823 341.459 445.131 339.778 445.374 338.075C445.989 333.625 446.068 329.074 446.068 329.074C446.068 329.074 445.574 327.314 445.016 325.211C443.886 328.581 443.02 332.087 443.686 334.741C443.686 334.741 435.779 337.231 430.37 331.214C430.37 331.214 430.37 330.935 430.37 330.462L425.963 335.22L423.287 332.502L423.301 332.494Z" fill="#3795FC" stroke="#263994" stroke-miterlimit="10"/>
<path d="M447.463 392.201C450.01 392.33 451.563 385.927 451.656 383.215C451.756 380.496 452.851 378.7 452.486 378.164C452.121 377.627 449.138 375.752 449.138 375.752L445.911 379.96C445.911 379.96 446.183 382.743 446.061 384.016C445.946 385.29 444.923 392.087 447.463 392.209V392.201Z" fill="white" stroke="#263994" stroke-miterlimit="10"/>
<path d="M443.106 377.67L445.911 379.952L449.138 375.745C449.138 375.745 446.698 370.308 442.605 365.75C442.462 366.172 442.383 366.401 442.383 366.401C442.383 366.401 443.736 369.814 443.106 377.663V377.67Z" fill="#80C1FF" stroke="#263994" stroke-miterlimit="10"/>
<path d="M435.079 299.394L442.733 303.813V294.974L435.079 290.555V299.394Z" fill="#80C1FF"/>
<path d="M427.422 295.011L435.079 299.431V290.591L427.422 286.172V295.011Z" fill="#E0E7F7"/>
<path d="M419.767 290.631L427.422 295.051V286.212L419.767 281.792V290.631Z" fill="#3795FC"/>
<path d="M435.079 308.267L442.733 312.686V303.847L435.079 299.428V308.267Z" fill="#E0E7F7"/>
<path d="M427.422 303.884L435.079 308.306V299.464L427.422 295.044V303.884Z" fill="white"/>
<path d="M419.767 299.504L427.422 303.923V295.084L419.767 290.665V299.504Z" fill="#E0E7F7"/>
<path d="M435.079 317.139L442.733 321.559V312.72L435.079 308.3V317.139Z" fill="#3795FC"/>
<path d="M427.422 312.757L435.079 317.179V308.337L427.422 303.917V312.757Z" fill="#80C1FF"/>
<path d="M419.767 308.376L427.422 312.796V303.957L419.767 299.537V308.376Z" fill="white"/>
<path d="M442.733 294.975L419.767 281.792V308.376L442.733 321.559V294.975Z" stroke="#263994" stroke-miterlimit="10"/>
<path d="M435.807 288.432L444.923 293.695V304.222" stroke="#263994" stroke-miterlimit="10"/>
<path d="M444.923 314.785V325.351L435.807 320.088" stroke="#263994" stroke-miterlimit="10"/>
<path d="M426.694 314.87L417.577 309.656V299.089" stroke="#263994" stroke-miterlimit="10"/>
<path d="M417.577 288.524V278L426.694 283.218" stroke="#263994" stroke-miterlimit="10"/>
<path d="M693.012 75.8747C693.012 68.1175 686.723 61.8339 678.971 61.8339C677.127 61.8339 675.371 62.194 673.758 62.8372C669.562 59.2178 663.98 57.0049 657.84 57.0049C647.784 57.0049 639.205 62.9428 635.821 71.2953C628.851 72.1161 623.441 78.0444 623.441 85.2352C623.441 86.2433 623.552 87.2273 623.753 88.173C617.297 89.4354 612.42 95.1237 612.42 101.95C612.42 109.707 618.708 115.99 626.461 115.99C631.885 115.99 636.589 112.913 638.927 108.411C642.647 111.065 647.193 112.63 652.109 112.63C660.475 112.63 667.781 108.108 671.727 101.374C678.62 100.922 684.15 95.4982 684.774 88.653C689.632 86.4449 693.012 81.5534 693.012 75.8651V75.8747Z" fill="white"/>
<path d="M622.208 89.3106C622.208 89.3106 625.669 88.0865 629.341 88.8498C629.341 88.8498 626.739 87.2273 623.34 87.6257L622.208 89.3106Z" fill="#E0E7F7"/>
<path d="M631.208 73.4168C633.599 72.1592 638.956 72.2216 641.221 74.1513C641.221 74.1513 639.844 72.1016 636.383 70.7239L631.208 73.4168Z" fill="#E0E7F7"/>
<path d="M672.817 62.9618C673.777 63.7875 674.535 64.8435 675.001 66.0196C676.407 63.8835 679.047 62.6594 681.606 62.7794C680.852 61.973 679.811 61.6562 678.707 61.6274C677.603 61.5986 676.518 61.8674 675.442 62.1314C674.521 62.357 673.743 62.7362 672.817 62.9666V62.9618Z" fill="#E0E7F7"/>
<path d="M692.258 80.4302C691 84.0928 688.269 87.0737 684.774 88.6626C684.15 95.5078 678.615 100.927 671.727 101.383C667.777 108.113 660.475 112.635 652.104 112.635C647.188 112.635 642.642 111.07 638.917 108.42C636.58 112.923 631.875 116 626.451 116C625.102 116 623.801 115.808 622.568 115.453C625.241 114.488 628.126 113.005 630.867 110.715C634.871 107.379 637.064 103.601 638.212 101.162C638.893 101.575 646.871 106.265 655.118 102.391C660.288 99.9576 662.621 95.5414 663.322 94.0629C664.383 94.2453 669.375 94.975 673.978 91.7348C677.161 89.4931 678.515 86.5121 679 85.2448C679.993 85.5281 683.137 86.2865 686.718 84.88C689.925 83.6127 691.648 81.3326 692.253 80.435H692.258V80.4302Z" fill="#E0E7F7"/>
<path d="M690.088 84.4431C690.112 84.4095 690.141 84.3759 690.165 84.3423C690.357 84.0927 690.539 83.8334 690.712 83.5694C690.88 83.315 691.039 83.051 691.187 82.7822C691.211 82.739 691.235 82.7006 691.259 82.6574C691.562 82.1054 691.831 81.5341 692.061 80.9437C692.075 80.9101 692.085 80.8813 692.095 80.8477C692.147 80.7085 692.205 80.5693 692.253 80.4253H692.248C692.248 80.4253 692.239 80.4397 692.234 80.4445C692.728 79.0092 693.007 77.4731 693.007 75.8698C693.007 68.1126 686.718 61.8291 678.966 61.8291C677.123 61.8291 675.366 62.1891 673.753 62.8323C669.557 59.2129 663.975 57 657.835 57C647.779 57 639.201 62.9379 635.816 71.2904C628.846 72.1112 623.437 78.0395 623.437 85.2303C623.437 86.2384 623.547 87.2224 623.749 88.1681C617.292 89.4306 612.415 95.1189 612.415 101.945C612.415 108.353 616.711 113.753 622.577 115.438C622.592 115.438 622.601 115.443 622.616 115.448C622.894 115.525 623.177 115.597 623.461 115.659C623.485 115.664 623.509 115.669 623.533 115.678C623.825 115.741 624.123 115.794 624.421 115.837C624.478 115.846 624.541 115.851 624.598 115.861C624.833 115.894 625.073 115.918 625.313 115.938C625.395 115.942 625.477 115.952 625.558 115.957C625.856 115.976 626.149 115.99 626.451 115.99C631.875 115.99 636.575 112.913 638.917 108.411C639.657 108.939 640.429 109.419 641.226 109.856C644.457 111.622 648.158 112.63 652.099 112.63C656.04 112.63 659.943 111.565 663.235 109.707C666.744 107.729 669.682 104.849 671.718 101.378C672.87 101.302 673.983 101.086 675.044 100.745C679.921 99.1943 683.646 95.0517 684.592 89.9346C684.669 89.517 684.726 89.0897 684.769 88.6577C684.789 88.6481 684.813 88.6385 684.832 88.6289C685.077 88.5137 685.321 88.3937 685.562 88.2641C685.643 88.2209 685.72 88.1777 685.802 88.1345C686.003 88.0241 686.2 87.9041 686.392 87.7841C686.454 87.7457 686.512 87.7121 686.574 87.6737C686.824 87.5152 687.064 87.3472 687.304 87.1696C687.347 87.1408 687.386 87.1072 687.429 87.0736C687.63 86.92 687.827 86.7616 688.019 86.6032C688.072 86.5552 688.13 86.512 688.182 86.464C688.638 86.0656 689.07 85.6383 689.474 85.1871C689.507 85.1487 689.546 85.1055 689.579 85.0671C689.757 84.8655 689.925 84.6543 690.088 84.4431Z" stroke="#263994" stroke-linecap="round" stroke-linejoin="round"/>
<g style="mix-blend-mode:multiply">
<path d="M227.05 288.629C236.45 294.059 251.69 294.059 261.09 288.629C270.49 283.199 270.49 274.409 261.09 268.979C251.69 263.549 236.45 263.549 227.05 268.979C217.65 274.409 217.65 283.199 227.05 288.629Z" fill="#E0E6F9"/>
</g>
<path d="M232.06 264.969C232.27 265.599 232.63 266.229 233.13 266.829C233.73 267.529 234.53 268.189 235.54 268.769C240.49 271.629 248.5 271.629 253.45 268.769C254.46 268.179 255.27 267.519 255.86 266.829C256.39 266.199 256.76 265.539 256.96 264.869C257.09 264.449 257.15 264.019 257.15 263.599C257.15 261.729 255.92 259.859 253.44 258.439C248.49 255.579 240.48 255.579 235.53 258.439C232.46 260.209 231.3 262.669 232.05 264.969H232.06Z" stroke="#263994" stroke-linecap="round" stroke-linejoin="round"/>
<path d="M233.13 266.829C233.73 267.529 234.53 268.189 235.54 268.769C240.49 271.629 248.5 271.629 253.45 268.769C254.46 268.179 255.27 267.519 255.86 266.829C255.42 265.599 254.37 264.419 252.71 263.459C248.18 260.839 240.82 260.839 236.27 263.459C234.61 264.419 233.56 265.589 233.12 266.829H233.13Z" fill="#3795FC" stroke="#263994" stroke-linecap="round" stroke-linejoin="round"/>
<path d="M232.06 264.969L234.93 278.659C235.08 279.949 236.01 281.219 237.72 282.209C241.47 284.369 247.54 284.369 251.29 282.209C252.85 281.309 253.76 280.169 254.02 278.999L254.06 278.819L256.98 264.879C256.55 266.309 255.38 267.679 253.47 268.779C248.53 271.639 240.51 271.639 235.56 268.779C233.69 267.699 232.53 266.369 232.07 264.969H232.06Z" fill="#E0E7F7" stroke="#263994" stroke-linecap="round" stroke-linejoin="round"/>
<path d="M258.03 249.309C250.89 254.919 234.79 254.269 229.2 246.919C228.69 246.249 228.27 245.529 227.95 244.749C225.8 239.489 229.14 234.899 233.36 231.279C235.36 229.559 236.74 227.509 236.05 225.019C235.42 222.749 233.13 221.039 232.19 218.859C231.14 216.429 231.47 213.869 232.82 211.579C234.03 209.549 235.85 207.849 236.08 205.489C236.33 202.949 235.47 200.529 236.82 198.079C237.88 196.159 239.67 194.999 241.95 194.439C242.96 193.929 244.25 193.809 245.66 194.369C248.79 195.629 250.27 198.079 250.16 200.929C250.05 203.979 249.03 205.949 252.25 208.089C254.68 209.699 256.87 211.199 257.66 213.829C258.52 216.689 257.32 219.219 256.25 221.889C253.91 227.739 258.48 231.079 261.21 236.039C261.41 236.399 261.58 236.759 261.73 237.129C263.55 241.479 262.13 246.099 258.04 249.309H258.03Z" fill="#80C1FF"/>
<path d="M258.03 249.309C250.89 254.919 234.79 254.269 229.2 246.919C228.69 246.249 228.27 245.529 227.95 244.749C225.8 239.489 229.14 234.899 233.36 231.279C235.36 229.559 236.74 227.509 236.05 225.019C235.42 222.749 233.13 221.039 232.19 218.859C231.14 216.429 231.47 213.869 232.82 211.579C234.03 209.549 235.85 207.849 236.08 205.489C236.33 202.949 235.47 200.529 236.82 198.079C237.88 196.159 239.67 194.999 241.95 194.439C242.96 193.929 244.25 193.809 245.66 194.369C248.79 195.629 250.27 198.079 250.16 200.929C250.05 203.979 249.03 205.949 252.25 208.089C254.68 209.699 256.87 211.199 257.66 213.829C258.52 216.689 257.32 219.219 256.25 221.889C253.91 227.739 258.48 231.079 261.21 236.039C261.41 236.399 261.58 236.759 261.73 237.129C263.55 241.479 262.13 246.099 258.04 249.309H258.03Z" stroke="#263994" stroke-linecap="round" stroke-linejoin="round"/>
<path d="M244.37 267.659C244.37 267.659 243.74 260.189 245.36 247.619C246.98 235.049 246.83 233.989 243.83 222.509C240.83 211.029 243.14 202.669 243.14 202.669" stroke="#263994" stroke-linecap="round" stroke-linejoin="round"/>
<path d="M243.56 221.419C243.56 221.419 246.6 217.469 251.4 216.409" stroke="#263994" stroke-miterlimit="10"/>
<path d="M246.11 241.329C246.11 241.329 248.33 238.309 252.56 236.489" stroke="#263994" stroke-miterlimit="10"/>
<path d="M246.39 236.489C246.39 236.489 242.47 234.569 237.48 233.899" stroke="#263994" stroke-miterlimit="10"/>
<g style="mix-blend-mode:multiply">
<path d="M244.627 314.149C236.017 319.119 222.067 319.119 213.457 314.149C204.847 309.179 204.847 301.119 213.457 296.159C222.067 291.189 236.017 291.189 244.627 296.159C253.237 301.129 253.237 309.189 244.627 314.149Z" fill="#E0E6F9"/>
</g>
<path d="M240.037 292.489C239.847 293.069 239.517 293.639 239.057 294.189C238.507 294.829 237.777 295.439 236.847 295.969C232.317 298.589 224.977 298.589 220.447 295.969C219.517 295.429 218.777 294.829 218.237 294.189C217.747 293.619 217.417 293.009 217.227 292.399C217.107 292.009 217.057 291.619 217.057 291.229C217.057 289.519 218.187 287.809 220.447 286.499C224.977 283.879 232.317 283.879 236.847 286.499C239.657 288.129 240.727 290.379 240.037 292.479V292.489Z" stroke="#263994" stroke-linecap="round" stroke-linejoin="round"/>
<path d="M239.057 294.189C238.507 294.829 237.777 295.439 236.847 295.969C232.317 298.589 224.977 298.589 220.447 295.969C219.517 295.429 218.777 294.829 218.237 294.189C218.637 293.059 219.597 291.979 221.127 291.099C225.277 288.699 232.017 288.699 236.177 291.099C237.697 291.979 238.667 293.049 239.067 294.189H239.057Z" fill="#3795FC" stroke="#263994" stroke-linecap="round" stroke-linejoin="round"/>
<path d="M240.037 292.479L237.407 305.009C237.277 306.189 236.417 307.359 234.857 308.259C231.427 310.239 225.867 310.239 222.427 308.259C220.997 307.439 220.167 306.399 219.927 305.319L219.897 305.159L217.227 292.389C217.617 293.699 218.697 294.949 220.447 295.959C224.977 298.579 232.317 298.579 236.847 295.959C238.557 294.969 239.627 293.749 240.037 292.469V292.479Z" fill="#E0E7F7" stroke="#263994" stroke-linecap="round" stroke-linejoin="round"/>
<path d="M233.617 279.539C227.687 281.029 220.007 281.879 214.397 278.749C213.387 278.189 212.447 277.499 211.597 276.659C207.467 272.039 210.327 265.529 214.327 261.859C213.897 261.409 213.497 260.959 213.147 260.499C200.557 244.529 231.127 227.279 238.247 249.779C238.937 249.779 239.607 249.829 240.267 249.919C244.747 251.169 247.117 254.129 247.847 257.739C249.507 265.849 242.927 277.199 233.607 279.549L233.617 279.539Z" fill="#80C1FF"/>
<path d="M233.617 279.539C227.687 281.029 220.007 281.879 214.397 278.749C213.387 278.189 212.447 277.499 211.597 276.659C207.467 272.039 210.327 265.529 214.327 261.859C213.897 261.409 213.497 260.959 213.147 260.499C200.557 244.529 231.127 227.279 238.247 249.779C238.937 249.779 239.607 249.829 240.267 249.919C244.747 251.169 247.117 254.129 247.847 257.739C249.507 265.849 242.927 277.199 233.607 279.549L233.617 279.539Z" stroke="#263994" stroke-linecap="round" stroke-linejoin="round"/>
<path d="M228.628 293.218C228.628 293.218 229.808 290.298 229.918 279.588C229.918 279.588 230.178 266.558 225.078 252.648" stroke="#263994" stroke-miterlimit="10"/>
<path d="M229.477 288.479L237.227 278.119" stroke="#263994" stroke-miterlimit="10"/>
<path d="M229.477 288.479L223.188 280.879" stroke="#263994" stroke-miterlimit="10"/>
<path d="M227.907 262.359C227.907 262.359 234.797 256.629 236.037 254.529" stroke="#263994" stroke-miterlimit="10"/>
<path d="M229.287 270.229C229.287 270.229 222.827 270.539 218.237 268.119" stroke="#263994" stroke-miterlimit="10"/>
<path d="M574.203 292.53C570.532 290.41 567.371 293.65 559.122 295.046C554.573 295.816 537.8 295.33 526.826 293.794L515.431 287.21L494 299.588L502.198 304.325L505.39 306.168L505.437 306.141C505.437 306.141 508.288 308.486 512.27 311.667C519.655 317.57 530.928 326.363 535.097 328.42C541.518 331.589 547.977 327.802 546.861 325.659C548.712 326.616 551.38 326.818 553.511 326.168C555.432 325.577 556.618 324.391 556.579 323.108C558.384 323.831 560.736 323.858 562.486 323.19C564.742 322.322 564.769 320.763 564.761 320.596V320.584C564.761 320.584 568.203 321.121 570.528 319.779C571.765 319.063 572.372 318.266 572.407 317.418V317.232C572.325 315.707 570.458 314.027 567.18 312.371C566.993 312.277 566.799 312.176 566.601 312.075C561.242 309.33 552.161 304.294 552.161 304.294C552.161 304.294 566.294 303.846 571.197 300.98C571.256 300.949 571.31 300.918 571.365 300.883C574.308 299.051 576.109 297.088 576.163 295.361V295.202C576.136 294.21 575.518 293.296 574.2 292.538L574.203 292.53Z" fill="#E0E7F7"/>
<path d="M505.441 284.927V294.4L505.394 294.427L494 287.843V278.374L502.198 283.111H502.202L505.394 284.954L505.441 284.927Z" fill="#3795FC" stroke="#263994" stroke-miterlimit="10"/>
<path d="M576.167 273.984V274.143C576.113 275.87 574.316 277.834 571.368 279.665C571.314 279.7 571.26 279.731 571.201 279.763C566.297 282.629 552.165 283.076 552.165 283.076C552.165 283.076 561.246 288.116 566.605 290.857C566.803 290.959 566.997 291.06 567.184 291.153C570.458 292.81 572.329 294.49 572.411 296.014V296.201C572.376 297.048 571.769 297.846 570.532 298.561C568.207 299.903 564.765 299.366 564.765 299.366V299.378C564.773 299.549 564.746 301.105 562.49 301.972C560.74 302.641 558.388 302.613 556.583 301.89C556.626 303.173 555.44 304.359 553.515 304.951C551.38 305.6 548.712 305.398 546.865 304.441C547.981 306.584 541.522 310.372 535.101 307.202C530.932 305.145 519.659 296.352 512.274 290.449C508.295 287.268 505.441 284.923 505.441 284.923L518.624 277.309L526.822 272.576C537.796 274.112 554.569 274.598 559.119 273.828C567.367 272.432 570.528 269.193 574.2 271.312C575.518 272.07 576.136 272.984 576.163 273.976L576.167 273.984Z" fill="white" stroke="#263994" stroke-linejoin="round"/>
<path d="M526.826 272.58L518.628 277.313H518.624L505.441 284.927L505.394 284.954L502.202 283.111H502.198L494 278.374L515.431 266L526.826 272.58Z" fill="#80C1FF" stroke="#263994" stroke-miterlimit="10"/>
<path d="M572.407 296.204V305.678C572.372 306.525 571.765 307.323 570.528 308.038C568.203 309.38 564.761 308.843 564.761 308.843C564.769 308.944 564.796 310.562 562.486 311.445C560.736 312.118 558.384 312.09 556.579 311.363C556.622 312.646 555.436 313.836 553.511 314.424C551.376 315.077 548.708 314.875 546.861 313.914C547.977 316.061 541.518 319.849 535.097 316.679C528.681 313.51 505.437 294.4 505.437 294.4V284.927C505.437 284.927 508.288 287.272 512.27 290.453C519.655 296.356 530.928 305.149 535.097 307.206C541.518 310.375 547.977 306.588 546.861 304.445C548.712 305.401 551.38 305.604 553.511 304.954C555.432 304.363 556.618 303.177 556.579 301.894C558.384 302.617 560.736 302.644 562.486 301.975C564.742 301.108 564.769 299.549 564.761 299.382V299.37C564.761 299.37 568.203 299.907 570.528 298.565C571.765 297.849 572.372 297.052 572.407 296.204Z" fill="#E0E7F7" stroke="#263994" stroke-linejoin="round"/>
<path d="M576.167 274.143V283.616C576.113 285.343 574.316 287.307 571.368 289.138C570.229 289.85 568.53 290.41 566.605 290.861C561.246 288.116 552.165 283.08 552.165 283.08C552.165 283.08 566.297 282.632 571.201 279.766C571.26 279.735 571.314 279.704 571.368 279.669C574.312 277.837 576.113 275.874 576.167 274.147V274.143Z" fill="#E0E7F7" stroke="#263994" stroke-miterlimit="10"/>
<path d="M564.765 299.378V308.839" stroke="#263994" stroke-miterlimit="10"/>
<path d="M556.583 301.894V311.363" stroke="#263994" stroke-miterlimit="10"/>
<path d="M546.865 304.445V313.914" stroke="#263994" stroke-miterlimit="10"/>
<g style="mix-blend-mode:multiply">
<path d="M675.936 355.254L628.913 327.819C627.561 327.04 627.73 325.676 629.292 324.777L634.964 321.504C636.522 320.606 638.884 320.507 640.232 321.286L687.254 348.721C688.606 349.5 688.437 350.865 686.875 351.763L681.203 355.036C679.645 355.935 677.284 356.033 675.936 355.254Z" fill="#E0E6F9"/>
</g>
<path d="M689.657 283.553L653.401 262.622C652.643 262.185 651.884 261.856 651.138 261.625C649.143 261.007 647.247 261.122 645.693 261.88L644.964 262.301H644.955C643.591 263.224 642.573 264.708 642.128 266.687L633.756 303.722C632.585 308.891 635.743 315.445 640.805 318.367L648.562 322.844L654.683 335.572C655.709 337.703 657.865 338.944 659.506 338.354L669.303 334.818L677.061 339.298C680.012 341.001 682.959 341.091 685.136 339.842L685.309 339.743C686.776 338.837 687.869 337.303 688.334 335.23L688.371 335.069L696.702 298.199C697.872 293.03 694.715 286.472 689.657 283.549V283.553ZM685.358 306.809C685.045 308.887 684.212 310.544 683.025 311.718C682.498 312.242 681.9 312.667 681.245 312.992L665.569 321.508C663.619 322.567 661.142 322.077 659.019 320.552C657.655 319.571 656.435 318.165 655.602 316.463C655.45 316.158 655.31 315.836 655.186 315.515L646.534 292.96C645.784 291.105 645.363 289.163 645.363 287.292C645.363 287.247 645.363 287.197 645.363 287.152C645.376 286.068 645.528 285.008 645.837 284.003C645.986 283.52 646.171 283.063 646.386 282.643C647.973 279.485 651.245 278.051 654.881 278.813C655.755 278.995 656.649 279.304 657.548 279.745C662.189 282.032 665.573 287.012 666.381 291.933C668.974 288.978 673.566 288.599 678.046 291.583C683.017 294.889 686.158 301.443 685.354 306.818L685.358 306.809Z" fill="white" stroke="#263994" stroke-linecap="round" stroke-linejoin="round"/>
<path d="M685.358 306.809C685.045 308.887 684.213 310.544 683.025 311.719C682.498 312.242 681.9 312.667 681.245 312.992L665.569 321.508C663.619 322.567 661.142 322.077 659.019 320.552C657.655 319.571 656.435 318.165 655.602 316.463C655.45 316.158 655.31 315.836 655.186 315.515L646.534 292.96C645.784 291.105 645.363 289.163 645.363 287.292C645.363 287.247 645.363 287.197 645.363 287.152C645.376 286.068 645.528 285.009 645.837 284.003C645.986 283.521 646.171 283.063 646.386 282.643C647.973 279.485 651.245 278.051 654.881 278.813C655.755 278.995 656.649 279.304 657.548 279.745C662.189 282.033 665.573 287.012 666.381 291.933C668.974 288.978 673.566 288.599 678.046 291.583C683.017 294.889 686.158 301.443 685.354 306.818L685.358 306.809Z" fill="#FF70AB" stroke="#263994" stroke-miterlimit="10"/>
<path d="M705.758 292.972L697.386 330.003C696.875 332.262 695.626 333.882 693.953 334.748L685.305 339.743C686.772 338.836 687.864 337.303 688.33 335.23L688.367 335.069L696.698 298.199C697.868 293.03 694.711 286.472 689.653 283.549L653.397 262.618C652.639 262.181 651.88 261.852 651.134 261.621C649.139 261.002 647.243 261.118 645.689 261.876L654.069 257.033L654.098 257.017C656.299 255.594 659.374 255.615 662.453 257.392L698.709 278.323C703.767 281.245 706.924 287.803 705.758 292.972Z" fill="white" stroke="#263994" stroke-linecap="round" stroke-linejoin="round"/>
<g style="mix-blend-mode:multiply">
<path d="M549.623 417.372C541.243 422.209 527.664 422.209 519.285 417.372C510.905 412.535 510.905 404.691 519.285 399.861C527.664 395.024 541.243 395.024 549.623 399.861C558.003 404.698 558.003 412.542 549.623 417.372Z" fill="#E0E6F9"/>
</g>
<path d="M543.658 375.55C542.405 384.995 540.401 393.187 540.735 406.223C540.735 406.223 540.512 406.57 540.06 406.995H540.053C539.037 407.949 536.879 409.299 533.469 408.178C533.469 408.178 533.288 405.694 533.114 402.29C530.636 402.708 528.166 403.125 525.695 403.543C525.695 403.543 523.948 393.681 524.616 387.243C525.521 378.508 528.465 372.189 526.446 366.349C526.196 365.619 525.382 363.496 525.409 360.601C525.437 358.276 526.001 356.39 526.446 355.2C529.864 357.559 540.171 363.969 544.34 358.777C544.361 359.062 544.897 366.28 543.665 375.536L543.658 375.55Z" fill="#80C1FF" stroke="#263994" stroke-miterlimit="10"/>
<path d="M539.03 320.672C538.995 320.971 538.939 321.222 538.849 321.403C538.285 322.621 533.031 320.832 532.425 319.704C532.3 319.468 532.307 319.002 532.404 318.396C532.509 317.742 532.703 316.948 532.933 316.127C532.968 316.141 533.003 316.155 533.037 316.169C533.789 316.447 534.61 316.106 535.383 315.542C535.487 315.612 537.179 316.753 538.988 317.248C539.072 318.319 539.141 319.725 539.016 320.672H539.03Z" fill="white" stroke="#263994" stroke-miterlimit="10"/>
<path d="M543.408 314.672C542.962 317.588 540.916 317.776 539.009 317.247C537.199 316.746 535.501 315.612 535.404 315.542C535.961 315.132 536.497 314.61 536.977 314.109C537.645 313.406 538.195 312.758 538.522 312.536C539.399 311.951 540.317 312.285 540.317 312.285C540.317 312.285 541.243 309.606 540.234 307.9C540.234 307.9 541.083 307.309 541.8 306.383C541.897 306.327 542.002 306.279 542.099 306.23C542.099 306.23 544.285 308.903 543.408 314.672Z" fill="white" stroke="#263994" stroke-miterlimit="10"/>
<path d="M541.793 306.383C541.076 307.309 540.227 307.9 540.227 307.9C541.229 309.613 540.311 312.285 540.311 312.285C540.311 312.285 539.392 311.951 538.515 312.536C538.195 312.751 537.638 313.406 536.97 314.109C536.49 314.61 535.954 315.132 535.397 315.542C534.617 316.113 533.796 316.447 533.051 316.169C533.017 316.155 532.982 316.141 532.947 316.127C530.922 315.222 528.604 309.543 530.455 305.597C532.335 301.588 540.206 299.792 541.946 301.873C543.359 303.564 542.684 305.228 541.8 306.376L541.793 306.383Z" fill="#263994" stroke="#263994" stroke-miterlimit="10"/>
<path d="M570.537 331.766C568.923 333.492 565.018 333.318 565.018 333.318L562.833 330.325C562.833 330.325 567.05 324.158 570.078 326.476C573.098 328.794 570.544 331.772 570.544 331.772L570.537 331.766Z" fill="white" stroke="#263994" stroke-miterlimit="10"/>
<path d="M562.826 330.325C562.826 330.325 557.529 332.093 553.305 335.608C553.305 335.608 547.082 325.495 543.053 323.087C543.053 323.087 543.053 323.087 543.046 323.087C542.03 322.279 540.603 321.437 539.023 320.686C538.988 320.985 538.932 321.235 538.842 321.416C538.278 322.634 533.024 320.846 532.418 319.718C532.293 319.482 532.3 319.008 532.397 318.41C530.936 318.145 529.669 318.124 528.855 318.479C523.795 320.7 526.112 327.026 526.746 334.487C527.372 341.948 525.305 350.717 525.305 354.42C525.305 354.42 525.716 354.733 526.426 355.227C529.843 357.587 540.15 363.997 544.319 358.805C544.598 358.457 544.848 358.053 545.071 357.594C545.071 357.594 543.575 346.194 544.319 341.906C544.5 340.848 544.723 339.436 544.918 337.863C547.507 340.695 550.423 343.444 551.794 343.521C554.091 343.646 565.004 333.339 565.004 333.339L562.819 330.346L562.826 330.325Z" fill="#3795FC" stroke="#263994" stroke-miterlimit="10"/>
<path d="M533.462 408.185C533.462 408.185 527.261 411.192 526.036 409.312C525.354 408.268 525.688 403.55 525.688 403.55C528.159 403.132 530.629 402.714 533.107 402.297C533.281 405.7 533.462 408.185 533.462 408.185Z" fill="white" stroke="#263994" stroke-miterlimit="10"/>
<path d="M542.197 413.12C540.777 413.203 536.476 416.335 534.931 415.249C533.379 414.164 532.961 411.533 533.462 408.185C536.872 409.306 539.037 407.956 540.046 407.002C540.046 407.002 540.046 407.002 540.053 407.002C540.359 406.905 547.396 404.643 548.426 406.765C549.052 408.081 546.797 412.66 542.197 413.12Z" fill="white" stroke="#263994" stroke-miterlimit="10"/>
<path d="M533.1 402.297C533.1 402.297 531.938 387.619 532.801 383.297C533.664 378.982 534.165 368.257 533.928 367.394C533.692 366.53 531.332 365.981 530.782 364.408" fill="#80C1FF"/>
<path d="M533.1 402.297C533.1 402.297 531.938 387.619 532.801 383.297C533.664 378.982 534.165 368.257 533.928 367.394C533.692 366.53 531.332 365.981 530.782 364.408" stroke="#263994" stroke-miterlimit="10"/>
<path d="M892.78 418.66L773 351.29L851.84 305.33L952.76 362.29L902.56 394.27L917.03 402.82L892.78 418.66Z" fill="#E0E7F7"/>
<path d="M815.61 236.35L773 211.74L852.8 165.67L895.41 190.27L815.61 236.35Z" fill="white" stroke="#263994" stroke-linecap="round" stroke-linejoin="round"/>
<path d="M815.61 179.43L773 154.83L807.38 135L849.99 159.6L815.61 179.43Z" fill="white" stroke="#263994" stroke-linecap="round" stroke-linejoin="round"/>
<path d="M815.61 236.35V179.43L773 154.83V211.74V350.8L815.61 375.4V236.35Z" fill="white" stroke="#263994" stroke-linecap="round" stroke-linejoin="round"/>
<path d="M895.41 190.27L849.99 216.51V159.6L815.61 179.43V236.35V375.4L895.41 329.33V190.27Z" fill="#E0E7F7" stroke="#263994" stroke-linejoin="round"/>
<path d="M914.911 619.08L757.625 530.758L810.188 500.868L964.533 587.992L914.911 619.08Z" fill="#E0E7F7"/>
<path d="M790.259 243.22L757 224.015L808.997 194L842.256 213.205L790.259 243.22Z" fill="white" stroke="#263994" stroke-linecap="round" stroke-linejoin="round"/>
<path d="M757 224.015V529.936L790.265 549.141L790.259 243.22L757 224.015Z" fill="white" stroke="#263994" stroke-linecap="round" stroke-linejoin="round"/>
<path d="M842.256 213.205L790.259 243.22L790.265 549.141L842.256 519.12V213.205Z" fill="#E0E7F7" stroke="#263994" stroke-linejoin="round"/>
<path d="M808.523 215.232L796.976 208.567L808.734 201.783L820.28 208.448L808.523 215.232Z" fill="white" stroke="#263994" stroke-linecap="round" stroke-linejoin="round"/>
<path d="M796.976 208.567V214.87L808.523 221.535V215.232L796.976 208.567Z" fill="white" stroke="#263994" stroke-linecap="round" stroke-linejoin="round"/>
<path d="M822.445 216.087L810.694 222.87L808.523 221.535L820.28 214.745L822.445 216.087Z" fill="#E0E7F7"/>
<path d="M820.28 208.448L808.523 215.232V221.535L820.28 214.745V208.448Z" fill="#E0E7F7" stroke="#263994" stroke-linejoin="round"/>
<path d="M395.409 218.863L272 146.591L372.711 89.9998L497 160.227L395.409 218.863Z" fill="#E0E7F7"/>
<path d="M273.364 129.233L394.898 199.062L495.239 142.102L373.705 72.2725L273.364 129.233Z" fill="white" stroke="#263994" stroke-miterlimit="10"/>
<path d="M374.614 93.4072C373.08 93.4072 371.46 93.5209 369.813 93.7765C366.063 94.3447 362.426 95.5663 359.528 97.1856C352.625 101.106 352.057 106.078 358.25 108.322C361.261 109.402 365.494 109.657 369.869 108.975C373.619 108.407 377.284 107.186 380.154 105.566C387.057 101.646 387.625 96.6743 381.432 94.43C379.557 93.7481 377.171 93.4072 374.585 93.4072H374.614Z" fill="#FECC09" stroke="#263994" stroke-miterlimit="10"/>
<path d="M275.807 130.113L393.307 125.027L388.222 139.118L435.978 136.306L439.387 173.834L394.927 199.09L275.807 130.113Z" fill="#FECC09" stroke="#263994" stroke-miterlimit="10"/>
<path d="M376.77 96.8094L403.108 112.014L376.769 127.221L350.431 112.016L376.77 96.8094Z" fill="#80C1FF"/>
<path d="M350.536 81.5313L376.879 96.7454L350.54 111.952L324.197 96.7382L350.536 81.5313Z" fill="#E0E7F7"/>
<path d="M324.316 66.2586L350.654 81.4636L324.315 96.6705L297.977 81.4655L324.316 66.2586Z" fill="#3795FC"/>
<path d="M403.209 81.5443L429.547 96.7493L403.208 111.956L376.87 96.7511L403.209 81.5443Z" fill="#E0E7F7"/>
<path d="M376.974 66.2676L403.327 81.4764L376.979 96.6886L350.635 81.4745L376.974 66.2676Z" fill="white"/>
<path d="M350.755 50.9937L377.093 66.1987L350.754 81.4056L324.416 66.2006L350.755 50.9937Z" fill="#E0E7F7"/>
<path d="M429.648 66.2801L455.986 81.4851L429.647 96.692L403.309 81.487L429.648 66.2801Z" fill="#3795FC"/>
<path d="M403.413 51.0025L429.766 66.2113L403.417 81.4234L377.074 66.2093L403.413 51.0025Z" fill="#80C1FF"/>
<path d="M377.193 35.7301L403.531 50.9351L377.192 66.1419L350.854 50.9369L377.193 35.7301Z" fill="white"/>
<path d="M376.769 127.221L297.976 81.4658L377.193 35.7299L455.985 81.485L376.769 127.221Z" stroke="#263994" stroke-miterlimit="10"/>
<path d="M345.357 117.836L376.724 135.946L408.092 117.836" stroke="#263994" stroke-miterlimit="10"/>
<path d="M439.568 99.6638L471.053 81.4858L439.686 63.3758" stroke="#263994" stroke-miterlimit="10"/>
<path d="M408.46 45.1966L377.238 27.0027L345.752 45.1807" stroke="#263994" stroke-miterlimit="10"/>
<path d="M314.267 63.3583L282.909 81.463L314.14 99.6516" stroke="#263994" stroke-miterlimit="10"/>
</svg>
