<svg width="100" height="101" viewBox="0 0 100 101" fill="none" xmlns="http://www.w3.org/2000/svg">
<path d="M50 100.142C77.6142 100.142 100 77.7563 100 50.1421C100 22.5279 77.6142 0.14209 50 0.14209C22.3858 0.14209 0 22.5279 0 50.1421C0 77.7563 22.3858 100.142 50 100.142Z" fill="#80C1FF"/>
<g style="mix-blend-mode:multiply">
<path d="M50.8565 93.454L36.7765 85.4462C35.9626 84.9827 35.9591 84.229 36.7659 83.7619L44.5154 79.2891C45.3151 78.8291 46.6067 78.8256 47.4099 79.2821L61.4899 87.2898C62.3038 87.7534 62.3073 88.5071 61.5005 88.9742L53.751 93.4469C52.9513 93.907 51.6597 93.9105 50.8565 93.454Z" fill="#E0E6F9"/>
</g>
<path d="M52.187 81.7876C52.187 83.8966 51.504 85.4252 50.3788 86.2356C50.2903 86.2993 50.1983 86.3594 50.1028 86.4125L50.032 86.4514C49.9435 86.501 49.8551 86.5434 49.7595 86.5859C48.4963 87.145 46.8367 86.968 45.0178 85.9206C41.0617 83.6347 37.8522 78.0792 37.8522 73.5109C37.8522 71.3134 38.5918 69.7458 39.802 68.9638L39.8126 68.9567L40.0709 68.8081H40.078C41.3625 68.1322 43.1035 68.2702 45.0143 69.3743C45.8636 69.8626 46.681 70.5066 47.4382 71.2568C49.4446 73.249 51.0369 76.0091 51.7588 78.7444C52.0313 79.7741 52.1799 80.8039 52.1799 81.784L52.187 81.7876Z" fill="white" stroke="#263994" stroke-miterlimit="10"/>
<path d="M61.3554 76.4971C61.3554 78.9069 60.4636 80.5629 59.0376 81.2494H59.0341L50.1063 86.4157C50.2018 86.3627 50.2938 86.3025 50.3823 86.2388C51.5075 85.4285 52.1905 83.8998 52.1905 81.7908C52.1905 80.8106 52.0419 79.7809 51.7694 78.7512C51.0475 76.0159 49.4552 73.2593 47.4488 71.2636C46.6915 70.5134 45.8741 69.8694 45.0249 69.3811C43.1105 68.277 41.3731 68.139 40.0886 68.8114L48.9668 63.6875C50.2726 62.8312 52.1303 62.8984 54.1933 64.0909C58.1494 66.3768 61.3589 71.9324 61.3589 76.5007L61.3554 76.4971Z" fill="#E0E7F7" stroke="#263994" stroke-linejoin="round"/>
<path d="M59.8798 45.4781C59.8798 52.6932 57.4276 55.8673 54.0553 58.1851C53.659 58.4576 53.2486 58.7194 52.8275 58.9742C50.1594 60.5878 50.0992 66.4866 50.0992 66.4866L39.7524 60.5135C39.7524 60.5135 38.7263 53.316 42.2259 50.4781C45.7291 47.6401 49.6144 45.9133 49.8409 42.8171C50.0674 39.7208 48.652 34.9721 44.6675 32.672C40.6831 30.3719 38.9173 32.0952 38.1141 33.8574L30.9485 25.8284C30.9485 25.8284 32.0313 23.178 34.5543 21.5397L35.3009 21.1079C36.5996 20.4462 38.2167 20.0818 40.1877 20.379C41.6102 20.5913 43.2167 21.1504 45.0214 22.1907C47.0136 23.3408 48.8289 24.7279 50.4566 26.2707C54.3632 29.9721 57.1658 34.5581 58.652 38.8786C59.4587 41.2176 59.8798 43.4788 59.8798 45.4781Z" fill="white" stroke="#263994" stroke-miterlimit="10"/>
<path d="M69.0483 40.1844C69.0483 48.2559 65.9804 51.2672 61.9959 53.6805C59.3279 55.2976 59.2677 61.1929 59.2677 61.1929L58.2698 61.7697L50.0993 66.4866C50.0993 66.4866 50.163 60.5878 52.8275 58.9742C53.2486 58.7194 53.6591 58.4576 54.0554 58.1851C57.4276 55.8709 59.8799 52.6968 59.8799 45.4781C59.8799 43.4788 59.4588 41.2177 58.652 38.8787C57.1658 34.5581 54.3632 29.9686 50.4567 26.2708C48.8325 24.7279 47.0136 23.3408 45.0214 22.1908C43.2167 21.1469 41.6102 20.5878 40.1877 20.379C38.2167 20.0818 36.5996 20.4463 35.301 21.108L42.6895 16.8369H42.693C42.693 16.8369 42.6966 16.8334 42.7001 16.8334L43.8148 16.1894C46.0688 14.7633 49.4482 14.1653 54.1899 16.9042C63.5564 22.3111 69.0518 32.9587 69.0518 40.1915L69.0483 40.1844Z" fill="#E0E7F7" stroke="#263994" stroke-linejoin="round"/>
</svg>
