<svg width="394" height="50" viewBox="0 0 394 50" fill="none" xmlns="http://www.w3.org/2000/svg">
<path d="M227.874 43.5999C219.824 43.5999 213.924 37.4 213.924 29.75V29.65C213.924 22 219.774 15.7 227.974 15.7C233.024 15.7 236.174 17.4 238.674 20.2L234.024 25.2C232.324 23.3999 230.624 22.2499 227.924 22.2499C224.124 22.2499 221.424 25.6 221.424 29.55V29.65C221.424 33.75 224.074 37.0499 228.224 37.0499C230.774 37.0499 232.524 35.95 234.374 34.2L238.824 38.7C236.224 41.55 233.224 43.5999 227.874 43.5999Z" fill="black"/>
<path d="M201.786 13.25V6.5H209.786V13.25H201.786ZM201.986 43V16.2H209.586V43H201.986Z" fill="black"/>
<path d="M182.238 43.0001V16.2001H189.838V21.6001C191.388 17.9001 193.888 15.5001 198.388 15.7001V23.6501H197.988C192.938 23.6501 189.838 26.7001 189.838 33.1001V43.0001H182.238Z" fill="black"/>
<path d="M165.948 43.5C161.898 43.5 159.398 41.65 157.598 39.5V43H149.998V6.5H157.598V20.05C159.448 17.55 161.998 15.7 165.948 15.7C172.198 15.7 178.148 20.6 178.148 29.55V29.65C178.148 38.6 172.298 43.5 165.948 43.5ZM163.998 37.05C167.548 37.05 170.548 34.15 170.548 29.65V29.55C170.548 25.1 167.548 22.15 163.998 22.15C160.448 22.15 157.498 25.1 157.498 29.55V29.65C157.498 34.1 160.448 37.05 163.998 37.05Z" fill="black"/>
<path d="M128.757 43.5C122.507 43.5 116.557 38.6 116.557 29.65V29.55C116.557 20.6 122.407 15.7 128.757 15.7C132.807 15.7 135.307 17.55 137.107 19.7V6.5H144.707V43H137.107V39.15C135.257 41.65 132.707 43.5 128.757 43.5ZM130.707 37.05C134.257 37.05 137.207 34.1 137.207 29.65V29.55C137.207 25.1 134.257 22.15 130.707 22.15C127.157 22.15 124.157 25.05 124.157 29.55V29.65C124.157 34.1 127.157 37.05 130.707 37.05Z" fill="black"/>
<path d="M97.005 43.5C91.255 43.5 87.905 39.7 87.905 33.55V16.2H95.505V31.15C95.505 34.75 97.205 36.6 100.105 36.6C103.005 36.6 104.855 34.75 104.855 31.15V16.2H112.455V43H104.855V39.2C103.105 41.45 100.855 43.5 97.005 43.5Z" fill="black"/>
<path d="M69.5518 43.5999C61.2518 43.5999 55.1018 37.45 55.1018 29.75V29.65C55.1018 21.95 61.3018 15.7 69.6518 15.7C77.9518 15.7 84.1018 21.85 84.1018 29.55V29.65C84.1018 37.35 77.9018 43.5999 69.5518 43.5999ZM69.6518 37.0499C74.0018 37.0499 76.6018 33.7 76.6018 29.75V29.65C76.6018 25.7 73.7518 22.2499 69.5518 22.2499C65.2018 22.2499 62.6018 25.6 62.6018 29.55V29.65C62.6018 33.6 65.4518 37.0499 69.6518 37.0499Z" fill="black"/>
<path d="M43.1641 43V6.5H50.7641V43H43.1641Z" fill="black"/>
<path d="M24.5999 43.5999C14.2999 43.5999 6.6499 35.6499 6.6499 25.5999V25.4999C6.6499 15.5499 14.1499 7.3999 24.8999 7.3999C31.4999 7.3999 35.4499 9.5999 38.6999 12.7999L33.7999 18.4499C31.0999 15.9999 28.3499 14.4999 24.8499 14.4999C18.9499 14.4999 14.6999 19.3999 14.6999 25.3999V25.4999C14.6999 31.4999 18.8499 36.4999 24.8499 36.4999C28.8499 36.4999 31.2999 34.8999 34.0499 32.3999L38.9499 37.3499C35.3499 41.1999 31.3499 43.5999 24.5999 43.5999Z" fill="black"/>
<path d="M373.14 43.5749C368.19 43.5749 363.74 40.7249 363.74 35.4249V35.3249C363.74 29.6249 368.24 26.8249 374.69 26.8249C377.64 26.8249 379.74 27.2749 381.79 27.9249V27.2749C381.79 23.5249 379.49 21.5249 375.24 21.5249C372.29 21.5249 370.09 22.1749 367.69 23.1749L366.04 18.4249C368.99 17.1249 371.84 16.2749 376.04 16.2749C379.99 16.2749 382.94 17.3249 384.79 19.2249C386.74 21.1249 387.64 23.9249 387.64 27.3749V43.0249H381.74V39.7249C379.94 41.8749 377.19 43.5749 373.14 43.5749ZM374.84 39.1749C378.84 39.1749 381.89 36.8749 381.89 33.5249V31.7249C380.34 31.1249 378.29 30.6749 375.89 30.6749C371.99 30.6749 369.69 32.3249 369.69 35.0749V35.1749C369.69 37.7249 371.94 39.1749 374.84 39.1749Z" fill="black"/>
<path d="M341.377 43.0249V6.5249H347.477V28.3249L358.427 16.6249H365.777L355.277 27.3749L366.127 43.0249H359.027L351.227 31.5749L347.477 35.4749V43.0249H341.377Z" fill="black"/>
<path d="M329.928 43.5248C326.178 43.5248 322.028 42.2248 318.728 39.5748L321.428 35.4748C324.328 37.6248 327.378 38.7248 330.078 38.7248C332.678 38.7248 334.178 37.6248 334.178 35.8748V35.7748C334.178 33.7248 331.378 33.0248 328.278 32.0748C324.378 30.9748 320.028 29.3748 320.028 24.3748V24.2748C320.028 19.2248 324.178 16.1748 329.428 16.1748C332.728 16.1748 336.328 17.3248 339.128 19.1748L336.728 23.4748C334.178 21.9248 331.478 20.9748 329.278 20.9748C326.928 20.9748 325.578 22.1248 325.578 23.5748V23.6748C325.578 25.6248 328.428 26.4248 331.528 27.4248C335.378 28.6248 339.728 30.3748 339.728 35.1248V35.2248C339.728 40.7748 335.428 43.5248 329.928 43.5248Z" fill="black"/>
<path d="M303.632 43.5749C298.682 43.5749 294.232 40.7249 294.232 35.4249V35.3249C294.232 29.6249 298.732 26.8249 305.182 26.8249C308.132 26.8249 310.232 27.2749 312.282 27.9249V27.2749C312.282 23.5249 309.982 21.5249 305.732 21.5249C302.782 21.5249 300.582 22.1749 298.182 23.1749L296.532 18.4249C299.482 17.1249 302.332 16.2749 306.532 16.2749C310.482 16.2749 313.432 17.3249 315.282 19.2249C317.232 21.1249 318.132 23.9249 318.132 27.3749V43.0249H312.232V39.7249C310.432 41.8749 307.682 43.5749 303.632 43.5749ZM305.332 39.1749C309.332 39.1749 312.382 36.8749 312.382 33.5249V31.7249C310.832 31.1249 308.782 30.6749 306.382 30.6749C302.482 30.6749 300.182 32.3249 300.182 35.0749V35.1749C300.182 37.7249 302.432 39.1749 305.332 39.1749Z" fill="black"/>
<path d="M257.824 43.0249V8.0249H264.374L275.024 24.5749L285.674 8.0249H292.224V43.0249H286.074V17.9249L275.024 34.4249H274.824L263.874 18.0249V43.0249H257.824Z" fill="black"/>
</svg>
