<svg width="31" height="33" viewBox="0 0 31 33" fill="none" xmlns="http://www.w3.org/2000/svg">
<path d="M30.9999 16.8795C30.9999 15.8114 30.8965 14.7089 30.7243 13.6753H15.8057V19.7737H24.3503C24.0057 21.7375 22.8687 23.4602 21.1805 24.5628L26.2797 28.525C29.2772 25.7342 30.9999 21.6686 30.9999 16.8795Z" fill="#4280EF"/>
<path d="M15.8058 32.3149C20.0781 32.3149 23.6614 30.9023 26.2799 28.4905L21.1807 24.5627C19.768 25.5274 17.942 26.0787 15.8058 26.0787C11.6714 26.0787 8.1915 23.2879 6.9167 19.5669L1.67969 23.598C4.3671 28.9384 9.81084 32.3149 15.8058 32.3149Z" fill="#34A353"/>
<path d="M6.91664 19.5323C6.26202 17.5684 6.26202 15.4323 6.91664 13.4684L1.67963 9.40283C-0.559878 13.8819 -0.559878 19.1533 1.67963 23.5979L6.91664 19.5323Z" fill="#F6B704"/>
<path d="M15.8058 6.95678C18.0453 6.92232 20.2504 7.78368 21.8697 9.33411L26.3832 4.78618C23.5235 2.09876 19.7336 0.651694 15.8058 0.686148C9.81083 0.686148 4.3671 4.06264 1.67969 9.40301L6.9167 13.4686C8.1915 9.7131 11.6714 6.95678 15.8058 6.95678Z" fill="#E54335"/>
</svg>
