<svg width="180" height="199" viewBox="0 0 180 199" fill="none" xmlns="http://www.w3.org/2000/svg">
<circle cx="90" cy="109" r="89.5" fill="#263994" stroke="#263994"/>
<g style="mix-blend-mode:multiply">
<path d="M83.9359 195.804L40.3162 170.618C36.8861 168.64 37.3163 165.179 41.2765 162.894L82.9756 138.818C86.9358 136.532 92.9241 136.283 96.3542 138.265L139.974 163.447C143.404 165.425 142.974 168.886 139.014 171.171L97.3145 195.248C93.3543 197.533 87.366 197.783 83.9359 195.801V195.804Z" fill="#E0E6F9"/>
</g>
<path d="M135.91 149.108V150.771L96.3542 127.932C92.9241 125.954 86.9358 126.2 82.9756 128.485L44.3801 150.771V149.216H38V156.702H38.0115C37.9117 158.042 38.6684 159.333 40.3162 160.286L83.9359 185.472C87.366 187.45 93.3543 187.204 97.3144 184.919L139.014 160.843C141.069 159.656 142.171 158.15 142.279 156.702H142.29V149.104H135.91V149.108Z" fill="#E0E7F7" stroke="#263994" stroke-miterlimit="10"/>
<path d="M83.9359 177.874L40.3163 152.692C36.8862 150.713 37.3164 147.253 41.2765 144.967L82.9757 120.891C86.9358 118.606 92.9241 118.356 96.3542 120.338L139.974 145.52C143.404 147.498 142.974 150.959 139.014 153.245L97.3145 177.321C93.3543 179.606 87.366 179.856 83.9359 177.874Z" fill="white" stroke="#263994" stroke-miterlimit="10"/>
<path d="M135.299 147.279C135.172 147.187 135.034 147.095 134.888 147.01L93.7768 123.272C91.7679 122.112 88.5145 122.112 86.5094 123.272L45.4018 147.007C45.2981 147.064 45.2021 147.129 45.1099 147.191H43.8961V149.104C43.8961 149.864 44.3993 150.621 45.4018 151.201L86.5094 174.935C88.5183 176.095 91.7717 176.095 93.7768 174.935L134.884 151.201C135.837 150.652 136.336 149.937 136.386 149.219H136.39V147.275H135.295L135.299 147.279ZM130.079 150.202L92.0406 172.162C90.992 172.769 89.2904 172.769 88.2418 172.162L50.2032 150.202C49.1546 149.595 49.1546 148.616 50.2032 148.009L88.2418 126.049C89.2904 125.443 90.992 125.443 92.0406 126.049L130.079 148.009C131.128 148.616 131.128 149.595 130.079 150.202Z" fill="#E0E7F7" stroke="#263994" stroke-miterlimit="10"/>
<path d="M134.888 145.178L93.7768 121.444C91.7679 120.284 88.5145 120.284 86.5094 121.444L45.4018 145.178C43.3929 146.338 43.3929 148.217 45.4018 149.377L86.5094 173.111C88.5183 174.271 91.7717 174.271 93.7768 173.111L134.884 149.377C136.893 148.217 136.893 146.338 134.884 145.178H134.888ZM92.0444 170.338C90.9958 170.945 89.2942 170.945 88.2456 170.338L50.207 148.378C49.1584 147.771 49.1584 146.792 50.207 146.185L88.2456 124.221C89.2942 123.614 90.9958 123.614 92.0444 124.221L130.083 146.181C131.132 146.788 131.132 147.767 130.083 148.374L92.0444 170.334V170.338Z" fill="#80C1FF" stroke="#263994" stroke-miterlimit="10"/>
<g style="mix-blend-mode:multiply">
<path d="M131.767 173.299L25 111.633L48.2845 98.1865L155.052 159.861L131.767 173.299Z" fill="#E0E7F7"/>
</g>
<path d="M92.6139 95.7892L87.4792 76.1213L79.1425 44.3094L75.6918 31.1449L72.7221 19.764L69.4704 17.881L58.5208 11.5518L26.0701 98.3607L37.451 104.939L44.3609 108.929L49.9021 91.6499L61.5651 98.3856L81.3076 109.791L83.9537 120.973L86.8736 133.474L92.6388 136.776L105.289 144.117L92.6388 95.7892H92.6139ZM66.1357 84.3335L65.5551 84.0017L54.5557 77.6477L65.5551 43.4467L71.0714 66.7976L75.6171 85.9511L76.6872 90.3973L66.144 84.3253L66.1357 84.3335Z" fill="#80C1FF" stroke="#263994" stroke-linejoin="round"/>
<path d="M131.684 138.808V53.7906L114.438 43.8364V102.624V138.501V149.376L122.792 154.204L131.767 159.388V138.858L131.684 138.808Z" fill="#80C1FF" stroke="#263994" stroke-linejoin="round"/>
<path d="M71.2289 67.4608L54.5474 77.6556L65.5633 43.4629L71.063 66.7972L71.2289 67.4608Z" fill="#263994" stroke="#263994" stroke-linejoin="round"/>
<path d="M76.6789 90.4054L66.1357 84.325L65.5633 84.0098L54.5474 77.6557L71.2289 67.4609L75.6088 85.9509L76.6789 90.4054Z" fill="white" stroke="#263994" stroke-linejoin="round"/>
<path d="M72.7221 19.7803L89.9677 9.20392L75.7913 1L58.5125 11.568L69.4621 17.8973L72.7221 19.7803Z" fill="white" stroke="#263994" stroke-linejoin="round"/>
<path d="M131.767 138.857V53.8486L131.684 53.7905V138.808L131.767 138.857Z" fill="#DAE0E7" stroke="#263994" stroke-linejoin="round"/>
<path d="M114.438 43.8361L131.684 53.7903L131.767 53.8484L149.038 43.2803L131.684 33.2681L114.438 43.8361Z" fill="white" stroke="#263994" stroke-linejoin="round"/>
<path d="M131.767 138.857V159.388L149.038 148.82V43.2803L131.767 53.8483V138.857Z" fill="white" stroke="#263994" stroke-linejoin="round"/>
<path d="M92.9457 20.5851L89.9678 9.2041L72.7221 19.7804L75.6918 31.1614L79.1426 44.3175L87.4792 76.1295L92.6139 95.7891H92.6388L105.289 144.117L114.439 138.501V102.624L92.9457 20.5851Z" fill="white" stroke="#263994" stroke-linejoin="round"/>
<path d="M44.3609 108.928L61.5651 98.3851L49.9021 91.6494L44.3609 108.928Z" fill="#263994" stroke="#263994" stroke-linejoin="round"/>
</svg>
