<svg width="196" height="201" viewBox="0 0 196 201" fill="none" xmlns="http://www.w3.org/2000/svg">
<circle cx="105.818" cy="111" r="89.5" fill="#263994" stroke="#263994"/>
<mask id="mask0_9_71" style="mask-type:alpha" maskUnits="userSpaceOnUse" x="15" y="21" width="181" height="180">
<circle cx="105.818" cy="111" r="89.5" fill="#263994" stroke="#263994"/>
</mask>
<g mask="url(#mask0_9_71)">
<path d="M117.664 193.481L-7.75125 120.303C-11.3524 118.219 -10.9012 114.593 -6.74228 112.19L8.38401 103.454C12.5429 101.05 18.8346 100.788 22.4357 102.871L147.851 176.05C151.452 178.134 151.001 181.759 146.842 184.163L131.716 192.899C127.557 195.302 121.265 195.565 117.664 193.481Z" fill="#25328B"/>
</g>
<path d="M125.097 35.3435L109.293 41.0468L129.317 55.9079L156.891 71.82L162.092 76.7041L140.507 157.547L131.883 166.45L130.298 174.541L133.645 177.099L142.254 175.314L147.578 169.634L150.948 162.826L172.184 68.8988L171.721 62.2526L168.877 57.5231L125.097 35.3435Z" fill="#FCBE37" stroke="#263994" stroke-linejoin="round"/>
<path d="M166.079 69.8801L158.351 72.67L136.396 169.804L144.124 167.014L166.079 69.8801Z" fill="white" stroke="#263994" stroke-linejoin="round"/>
<path d="M46.7811 1L166.079 69.8803L158.351 72.6701L39.0453 3.78983L46.7811 1Z" fill="white" stroke="#263994" stroke-linejoin="round"/>
<path d="M39.0453 3.78979L158.351 72.67L136.396 169.804L17.0898 100.932L39.0453 3.78979Z" fill="#E0E7F7" stroke="#263994" stroke-linejoin="round"/>
<path d="M128.737 178.297L1 104.549L22.8086 8.0791L131.45 66.3951L146.775 77.0212L149.688 89.3088L128.737 178.297Z" fill="#FFD969" stroke="#263994" stroke-linejoin="round"/>
<path d="M137.478 180.098C133.003 181.234 126.195 178.359 127.377 173.135L145.329 93.698C147.238 85.2358 145.067 78.721 139.216 75.3361L22.7545 8.09423L29.447 5.59033L143.861 71.6498C150.275 75.3516 152.656 82.4923 150.561 91.7583L132.609 171.195C131.805 174.758 134.641 176.396 138.938 174.85C143.235 173.305 147.377 169.139 148.189 165.577L169.58 70.9543C170.863 65.2819 169.402 60.9156 165.476 58.6435L125.113 35.3434L132.323 32.9477L170.546 55.0113C175.028 57.6002 176.69 62.5925 175.229 69.0609L153.838 163.683C152.656 168.908 149.703 177.092 137.485 180.09L137.478 180.098Z" fill="#FFF1C7" stroke="#263994" stroke-linejoin="round"/>
<path d="M84.3937 87.8246L101.913 97.7938L106.419 77.8476L88.9068 67.8784L84.3937 87.8246Z" fill="#80C1FF"/>
<path d="M66.8586 77.9403L84.3782 87.9095L88.8836 67.9633L71.3641 57.9941L66.8586 77.9403Z" fill="#E0E7F7"/>
<path d="M49.3236 68.0562L66.8354 78.0255L71.3486 58.0793L53.8291 48.1101L49.3236 68.0562Z" fill="#3795FC"/>
<path d="M79.8727 107.84L97.3845 117.809L101.898 97.871L84.3782 87.894L79.8727 107.84Z" fill="#E0E7F7"/>
<path d="M62.33 97.9559L79.8495 107.925L84.3549 87.9867L66.8431 78.0098L62.33 97.9559Z" fill="white"/>
<path d="M44.795 88.0719L62.3146 98.0411L66.82 78.0949L49.3082 68.1257L44.795 88.0719Z" fill="#E0E7F7"/>
<path d="M75.344 127.856L92.8635 137.825L97.369 117.887L79.8495 107.91L75.344 127.856Z" fill="#3795FC"/>
<path d="M57.8091 117.972L75.3286 127.941L79.8341 108.002L62.3146 98.0254L57.8091 117.972Z" fill="#80C1FF"/>
<path d="M40.274 108.088L57.7859 118.057L62.299 98.1183L44.7795 88.1414L40.274 108.088Z" fill="white"/>
<path d="M106.419 77.8477L53.8291 48.1101L40.274 108.088L92.8635 137.825L106.419 77.8477Z" stroke="#263994" stroke-miterlimit="10"/>
<path d="M91.8667 63.0947L112.725 74.965L107.361 98.7134" stroke="#263994" stroke-miterlimit="10"/>
<path d="M101.975 122.547L96.5807 146.38L75.7227 134.51" stroke="#263994" stroke-miterlimit="10"/>
<path d="M54.8491 122.74L33.9679 110.97L39.3543 87.1367" stroke="#263994" stroke-miterlimit="10"/>
<path d="M44.741 63.3035L50.112 39.5552L70.9855 51.325" stroke="#263994" stroke-miterlimit="10"/>
</svg>
