<svg width="203" height="190" viewBox="0 0 203 190" fill="none" xmlns="http://www.w3.org/2000/svg">
<circle cx="113" cy="100" r="89.5" fill="#263994" stroke="#263994"/>
<g style="mix-blend-mode:multiply">
<path d="M177.593 148.515C178.653 149.125 178.653 150.655 177.593 151.265L177.134 151.532L176.771 151.74L141.851 172.423C140.645 173.12 138.821 173.196 137.777 172.593L87.5923 143.619L86.277 142.859C85.815 142.59 85.5827 142.235 85.5723 141.862V141.815C85.5827 141.361 85.9194 140.881 86.5693 140.508L124.694 117.974L177.59 148.515H177.593Z" fill="#E0E6F9"/>
</g>
<path d="M188.155 100.436L187.542 103.155L178.337 143.871C178.139 144.756 177.577 145.518 176.789 145.972L175.581 146.669L141.775 166.186C140.578 166.877 138.766 166.953 137.73 166.353L86.5979 136.83C86.1386 136.564 85.9063 136.212 85.8985 135.838V132.164C85.9063 132.534 86.1386 132.887 86.5979 133.153L87.9029 133.907L137.73 162.675C138.766 163.273 140.578 163.197 141.775 162.508L177.162 142.079L186.339 101.48C186.615 100.256 185.999 98.7811 184.961 98.1808L134.564 69.0862L133.831 68.6634C133.293 68.3528 132.745 68.3397 132.307 68.5694L134.037 67.5698L134.048 67.5646C134.499 67.2906 135.079 67.288 135.647 67.6168L186.78 97.1369C187.816 97.7345 188.432 99.2117 188.158 100.436H188.155Z" fill="#E0E7F7" stroke="#263994" stroke-miterlimit="10"/>
<path d="M186.341 101.482L185.728 104.202L182.776 117.259L177.165 142.081L152.259 127.704L122.277 110.392L124.125 102.218L126.928 89.8216L131.456 69.7936C131.576 69.2559 131.853 68.8566 132.21 68.6296L132.309 68.5721C132.748 68.3399 133.296 68.3529 133.834 68.6661L134.567 69.0889L184.966 98.1861C186.002 98.7838 186.618 100.261 186.344 101.485L186.341 101.482Z" fill="#80C1FF" stroke="#263994" stroke-miterlimit="10"/>
<path d="M177.162 142.081L174.341 143.71L173.981 143.918L141.778 162.511C140.58 163.203 138.769 163.278 137.733 162.678L87.9029 133.91L86.5979 133.155C86.1386 132.889 85.9063 132.537 85.8985 132.166V132.119C85.9089 131.668 86.243 131.193 86.8876 130.82L122.275 110.39L152.257 127.701L177.162 142.081Z" fill="white" stroke="#263994" stroke-miterlimit="10"/>
<path d="M134.637 144.824C134.572 144.887 134.494 144.944 134.403 144.996L125.25 150.281C124.697 150.6 123.861 150.636 123.384 150.36L108.009 141.484C107.973 141.463 107.939 141.439 107.91 141.416C107.545 141.134 107.636 140.701 108.145 140.406L117.298 135.121C117.848 134.802 118.683 134.766 119.164 135.043L134.538 143.919C134.938 144.148 134.961 144.521 134.64 144.824H134.637Z" fill="#E0E7F7" stroke="#263994" stroke-miterlimit="10"/>
<path d="M134.638 144.824C134.572 144.887 134.494 144.944 134.403 144.997L125.25 150.282C124.697 150.6 123.861 150.637 123.384 150.36L108.009 141.484C107.973 141.463 107.939 141.439 107.91 141.416C107.975 141.353 108.054 141.296 108.145 141.244L117.298 135.959C117.848 135.64 118.683 135.604 119.164 135.88L134.538 144.757C134.575 144.777 134.609 144.801 134.64 144.824H134.638Z" fill="#80C1FF" stroke="#263994" stroke-miterlimit="10"/>
<path d="M133.557 21.1353H9.38971V101.676H133.557V21.1353Z" fill="#E0E7F7" stroke="#263994" stroke-miterlimit="10" stroke-dasharray="2 2"/>
<path d="M1 29.525V12.7456H17.7794" stroke="#263994"/>
<path d="M17.7794 110.066L1 110.066L0.999999 93.287" stroke="#263994"/>
<path d="M141.947 93.287L141.947 110.066L125.168 110.066" stroke="#263994"/>
<path d="M125.168 12.7456L141.947 12.7456L141.947 29.525" stroke="#263994"/>
<path d="M153.693 1H29.525V81.5412H153.693V1Z" fill="white" stroke="#263994" stroke-miterlimit="10"/>
<path d="M32.8809 81.5411L80.0441 43.4274L94.9648 54.694L124.421 29.5249L153.693 54.4811V81.5411H32.8809Z" fill="#FFD969" stroke="#263994" stroke-miterlimit="10"/>
<path d="M49.943 31.768C55.6593 31.768 60.2933 27.134 60.2933 21.4177C60.2933 15.7014 55.6593 11.0674 49.943 11.0674C44.2267 11.0674 39.5927 15.7014 39.5927 21.4177C39.5927 27.134 44.2267 31.768 49.943 31.768Z" fill="#FFD969" stroke="#263994" stroke-miterlimit="10"/>
<path d="M95.0127 54.6938L79.8633 67.499" stroke="#263994" stroke-miterlimit="10"/>
</svg>
