<svg width="180" height="235" viewBox="0 0 180 235" fill="none" xmlns="http://www.w3.org/2000/svg">
<circle cx="90" cy="144" r="89.5" fill="#263994" stroke="#263994"/>
<mask id="mask0_9_2" style="mask-type:alpha" maskUnits="userSpaceOnUse" x="0" y="0" width="180" height="234">
<path fill-rule="evenodd" clip-rule="evenodd" d="M180 0H0V144V182H8.39198C22.7182 212.714 53.8733 234 90 234C126.127 234 157.282 212.714 171.608 182H180V144V0Z" fill="#D9D9D9"/>
</mask>
<g mask="url(#mask0_9_2)">
<path d="M100.037 240.641C112.416 247.787 132.475 247.787 144.854 240.641C157.233 233.496 157.233 221.908 144.854 214.773C132.475 207.627 112.416 207.627 100.037 214.773C87.6581 221.918 87.6581 233.506 100.037 240.641Z" fill="#25328B"/>
<path d="M119.181 99.2391C118.945 100.391 123.294 103.403 128.527 100.442L128.743 96.2163L129.206 86.9424C127.725 90.0166 123.983 92.6075 120.333 93.3375C120.271 93.6562 120.21 93.975 120.148 94.3245C119.767 96.3192 119.315 98.6222 119.202 99.2391H119.181Z" fill="white" stroke="#263994" stroke-miterlimit="10"/>
<path d="M116.313 93.2652C117.547 93.6147 118.924 93.6147 120.323 93.3371C123.972 92.6174 127.715 90.0162 129.195 86.942C129.267 86.8084 129.329 86.6541 129.381 86.5205C128.075 85.7082 126.193 83.9193 125.926 83.0864C125.556 81.9246 125.967 77.627 125.967 77.627C125.967 77.627 122.636 79.2 118.749 79.2C117.505 79.2 116.446 78.7785 115.675 78.0999C115.675 78.0999 111.234 91.8566 116.302 93.2755L116.313 93.2652Z" fill="white" stroke="#263994" stroke-miterlimit="10"/>
<path d="M115.686 78.1003C116.457 78.7789 117.516 79.2005 118.76 79.2005C122.646 79.2005 125.977 77.6274 125.977 77.6274C125.977 77.6274 125.566 81.9251 125.936 83.0869C126.204 83.9197 128.075 85.719 129.391 86.5209C129.884 86.8294 130.306 86.9939 130.522 86.9219C131.303 86.6443 132.465 84.845 132.702 79.3238C132.938 73.8129 130.059 70.3275 124.415 70.019C123.078 69.9471 118.215 69.3302 115.531 72.1987C113.701 74.1522 114.061 76.6712 115.696 78.09L115.686 78.1003Z" fill="#263994" stroke="#263994" stroke-miterlimit="10"/>
<path d="M115.099 223.09C115.285 223.224 115.47 223.347 115.665 223.45C119.891 225.938 125.566 223.738 125.566 223.738C131.396 203.37 128.897 190.22 128.897 190.22C128.897 190.22 131.684 182.9 134.223 176.042C135.58 172.372 136.865 168.835 137.606 166.604C139.734 160.219 139.055 153.464 139.055 153.464C134.429 155.952 123.047 159.962 110.915 148.22C110.915 148.22 110.082 167.344 117.865 182.036C117.618 185.799 117.464 189.49 117.516 192.523C117.701 203.545 115.11 223.08 115.11 223.08L115.099 223.09Z" fill="#80C1FF" stroke="#263994" stroke-miterlimit="10"/>
<path d="M128.897 190.21L145.379 206.043H145.389L151.753 200.121C151.877 199.823 151.969 199.515 152.041 199.196C152.041 199.196 140.279 180.195 134.213 176.042C131.684 182.9 128.887 190.22 128.887 190.22L128.897 190.21Z" fill="#80C1FF" stroke="#263994" stroke-miterlimit="10"/>
<path d="M106.432 241.237C108.715 242.471 116.426 241.422 119.634 237.227C122.841 233.032 125.803 232.23 126.368 231.274C126.923 230.308 125.566 223.738 125.566 223.738C125.566 223.738 119.891 225.948 115.665 223.45C115.665 223.45 113.773 227.964 108.961 233.516C104.15 239.068 104.15 239.993 106.432 241.227V241.237Z" fill="white" stroke="#263994" stroke-miterlimit="10"/>
<path d="M145.193 225.681C149.45 226.422 153.532 216.675 154.313 212.408C155.095 208.141 157.357 205.56 156.863 204.635C156.369 203.71 151.763 200.121 151.763 200.121C148.257 203.381 145.985 205.457 145.399 206.044H145.389C145.389 206.044 145.204 210.495 144.71 212.469C144.217 214.444 140.947 224.941 145.204 225.671L145.193 225.681Z" fill="white" stroke="#263994" stroke-miterlimit="10"/>
<path d="M81.6125 144.283C83.7099 149.506 88.9638 147.049 88.9638 147.049C92.0585 145.434 93.3746 139.821 93.3746 139.821L89.9817 135.513C89.9817 135.513 79.5253 139.06 81.6125 144.283Z" fill="white" stroke="#263994" stroke-miterlimit="10"/>
<path d="M153.738 155.438C159.31 156.24 159.814 150.462 159.814 150.462C159.968 146.966 155.763 143.028 155.763 143.028L150.077 145.588C149.728 148.703 149.594 154.842 153.738 155.428V155.438Z" fill="white" stroke="#263994" stroke-miterlimit="10"/>
<path d="M139.313 101.964C135.714 98.5605 131.776 97.6968 128.743 96.2163L128.527 100.442C123.294 103.403 118.945 100.391 119.181 99.239C119.305 98.6119 119.747 96.3191 120.127 94.3245C119.613 94.3245 119.079 94.345 118.523 94.3759C116.775 94.4787 115.418 95.2704 114.37 96.5453C106.196 103.722 102.289 120.018 100.438 122.897C98.7622 125.488 89.9715 135.512 89.9715 135.512L93.3644 139.82C93.3644 139.82 105.013 133.703 107.666 130.495C108.776 129.138 110.925 126.228 111.768 121.982C111.768 120.769 111.717 119.679 111.614 118.774C111.059 113.859 110.483 107.937 112.457 102.395C110.483 107.948 111.059 113.859 111.614 118.774C111.717 119.689 111.768 120.769 111.768 121.982C111.768 130.937 109.27 146.544 109.27 146.544C109.815 147.141 110.37 147.696 110.915 148.231C123.047 159.972 134.429 155.962 139.056 153.474C140.454 152.724 141.235 152.107 141.235 152.107C139.086 146.668 138.171 134.299 139.313 125.704C140.259 126.866 140.968 127.76 141.225 128.284C142.798 131.431 150.067 145.599 150.067 145.599L155.753 143.038C155.753 143.038 152.617 129.714 149.389 120.851C143.939 105.922 139.302 101.974 139.302 101.974L139.313 101.964Z" fill="#3795FC"/>
<path d="M111.768 121.982C110.925 126.228 108.776 129.138 107.666 130.495C105.013 133.703 93.3644 139.82 93.3644 139.82L89.9715 135.512C89.9715 135.512 98.7622 125.488 100.438 122.897C102.289 120.018 106.196 103.722 114.37 96.5453C115.418 95.2704 116.775 94.4787 118.523 94.3759C119.079 94.345 119.613 94.3245 120.127 94.3245C119.747 96.3191 119.305 98.6119 119.181 99.239C118.945 100.391 123.294 103.403 128.527 100.442L128.743 96.2163C131.776 97.6968 135.714 98.5605 139.313 101.964L139.302 101.974C139.302 101.974 143.939 105.922 149.389 120.851C152.617 129.714 155.753 143.038 155.753 143.038L150.067 145.599C150.067 145.599 142.798 131.431 141.225 128.284C140.968 127.76 140.259 126.866 139.313 125.704C138.171 134.299 139.086 146.668 141.235 152.107C141.235 152.107 140.454 152.724 139.056 153.474C134.429 155.962 123.047 159.972 110.915 148.231C110.37 147.696 109.815 147.141 109.27 146.544C109.27 146.544 111.768 130.937 111.768 121.982ZM111.768 121.982C111.768 120.769 111.717 119.679 111.614 118.774M111.768 121.982C111.768 120.769 111.717 119.689 111.614 118.774M111.614 118.774C111.059 113.859 110.483 107.937 112.457 102.395C110.483 107.948 111.059 113.859 111.614 118.774Z" stroke="#263994" stroke-miterlimit="10"/>
<path d="M113.138 75.8881L127.049 83.9283V67.8583L113.138 59.8284V75.8881Z" fill="#80C1FF"/>
<path d="M99.2267 67.9299L113.138 75.9598V59.9L99.2267 51.8701V67.9299Z" fill="#E0E7F7"/>
<path d="M85.3159 59.9722L99.2268 68.002V51.9423L85.3159 43.9021V59.9722Z" fill="#3795FC"/>
<path d="M113.138 92.0195L127.049 100.049V83.9793L113.138 75.9495V92.0195Z" fill="#E0E7F7"/>
<path d="M99.2267 84.0512L113.138 92.0811V76.0213L99.2267 67.9915V84.0512Z" fill="white"/>
<path d="M85.3159 76.0937L99.2268 84.1236V68.0638L85.3159 60.0339V76.0937Z" fill="#E0E7F7"/>
<path d="M113.138 108.141L127.049 116.171V100.111L113.138 92.071V108.141Z" fill="#3795FC"/>
<path d="M99.2267 100.173L113.138 108.203V92.1434L99.2267 84.1135V100.173Z" fill="#80C1FF"/>
<path d="M85.3159 92.215L99.2268 100.245V84.1852L85.3159 76.1553V92.215Z" fill="white"/>
<path d="M127.049 67.8581L85.3159 43.9021V92.2151L127.049 116.171V67.8581Z" stroke="#263994" stroke-miterlimit="10"/>
<path d="M114.464 55.9727L131.028 65.5345V84.6684" stroke="#263994" stroke-miterlimit="10"/>
<path d="M131.028 103.864V123.06L114.464 113.498" stroke="#263994" stroke-miterlimit="10"/>
<path d="M97.9005 104.018L81.3369 94.5386V75.343" stroke="#263994" stroke-miterlimit="10"/>
<path d="M81.3369 56.1368V37.0132L97.9004 46.4928" stroke="#263994" stroke-miterlimit="10"/>
<path d="M17.2843 187.227C29.6632 194.373 49.7225 194.373 62.1015 187.227C74.4805 180.082 74.4805 168.494 62.1015 161.359C49.7225 154.213 29.6632 154.213 17.2843 161.359C4.90528 168.505 4.90528 180.092 17.2843 187.227Z" fill="#25328B"/>
<path d="M23.2973 38.5603C24.1095 39.208 25.1788 39.5062 26.3509 39.5679C26.937 39.609 27.5538 39.5782 28.181 39.5062C31.9955 39.1052 36.0978 37.1414 36.0978 37.1414C35.9744 36.5143 35.8511 36.1441 35.8511 36.1441C39.2337 35.2188 41.146 32.5147 38.9972 30.3556C36.8381 28.2068 34.5042 32.1138 34.5042 32.1138C29.5176 29.6976 25.806 26.5412 24.3254 24.2175C23.1019 27.5796 20.3568 36.1852 23.3076 38.5603H23.2973Z" fill="white" stroke="#263994" stroke-miterlimit="10"/>
<path d="M17.3958 180.311C17.8893 181.823 19.3081 181.545 22.2692 181.545C25.2303 181.545 29.6822 177.134 30.5458 176.333C31.4095 175.531 35.4913 174.266 35.4913 172.014C35.4913 169.763 33.5275 165.886 33.5275 165.886H27.41C27.41 165.886 25.7752 168.035 25.2509 170.164C24.7265 172.292 16.9125 178.81 17.406 180.322L17.3958 180.311Z" fill="white" stroke="#263994" stroke-miterlimit="10"/>
<path d="M24.315 24.2274C25.8058 26.5613 29.5175 29.7177 34.4937 32.1236C34.4937 32.1236 36.8277 28.2166 38.9868 30.3654C41.1356 32.5246 39.2233 35.2286 35.8406 36.154C35.8406 36.154 35.964 36.5241 36.0874 37.1513C36.437 38.8374 36.8379 42.3846 34.8947 45.2737C34.0619 46.5178 33.2702 47.4842 32.5505 48.3993C30.9877 50.4042 29.7642 52.1726 29.2193 56.0693C29.2193 56.0693 31.2551 53.9102 34.833 51.7511C36.0977 50.9902 38.0409 49.5919 39.47 47.2169C40.0252 46.2916 40.5084 45.2017 40.8375 43.9576L41.3927 48.3684C41.9684 48.79 42.5853 49.3143 43.1611 49.9826C44.5697 50.1985 45.6903 51.1444 46.5848 52.5427C46.5746 52.2754 46.3175 47.7927 45.5258 45.3662C44.7136 42.8678 43.7677 35.8044 43.4284 30.7561C43.3564 28.0727 43.1816 25.3172 40.8375 22.4692C40.4776 22.0271 37.6296 19.138 33.6609 18.6136C32.53 18.4594 27.9958 18.0996 24.5104 20.7933C24.1299 21.0915 23.9346 21.3897 23.7598 21.6673C23.4 22.2327 23.6056 23.1478 24.3047 24.2274H24.315Z" fill="#263994" stroke="#263994" stroke-miterlimit="10"/>
<path d="M2.01455 87.9419C4.67747 92.8976 9.62289 89.8851 9.62289 89.8851C12.5223 87.9316 13.2009 82.2151 13.2009 82.2151L9.35557 78.3081C9.35557 78.3081 -0.648369 82.9862 2.00427 87.9419H2.01455Z" fill="white" stroke="#263994" stroke-miterlimit="10"/>
<path d="M12.6353 119.753C13.3241 124.195 27.3893 137.283 27.3893 137.283C27.7902 148.798 27.3893 165.855 27.3893 165.855H33.5068C36.1286 156.509 37.3521 149.024 37.8147 143.226C38.7195 131.937 36.7763 127.032 36.7763 127.032C36.7763 127.032 36.8894 126.703 37.095 126.097C38.1335 123.002 41.4853 112.844 43.2228 105.112C41.8451 106.161 39.5935 107.055 36.9203 104.989C32.4786 101.534 39.7066 93.1957 39.7066 93.1957C40.3029 91.1702 40.745 88.7541 41.0946 86.307C40.1692 84.5386 39.2439 82.9655 38.6578 81.5056C38.6578 81.5056 27.2967 85.0835 19.5239 76.4368C19.5239 76.4368 11.566 111.353 12.625 119.743L12.6353 119.753Z" fill="#80C1FF" stroke="#263994" stroke-miterlimit="10"/>
<path d="M28.1811 39.5161L28.8803 46.1066C28.8803 46.1066 30.1141 48.4199 32.5508 48.4096C33.2705 47.4946 34.0622 46.5281 34.895 45.284C36.8382 42.3949 36.4372 38.8478 36.0877 37.1616C36.0877 37.1616 31.9853 39.1357 28.1709 39.5264L28.1811 39.5161Z" fill="white" stroke="#263994" stroke-miterlimit="10"/>
<path d="M36.9305 104.999C39.6037 107.066 41.8554 106.172 43.2331 105.123C44.1481 104.434 44.6725 103.673 44.6725 103.673C46.5335 100.712 44.8164 95.2012 44.8164 95.2012L44.1687 94.9544L39.7168 93.2065C39.7168 93.2065 32.4889 101.545 36.9305 104.999Z" fill="white" stroke="#263994" stroke-miterlimit="10"/>
<path d="M9.36569 78.3086L9.38626 78.2778C9.82836 77.5889 17.1488 66.3306 18.8864 61.1796C17.8582 60.3159 16.5422 58.8148 16.5422 56.7585C16.5422 53.3759 21.6727 47.865 22.2793 44.8628C22.8654 41.9325 26.1657 39.7014 26.3508 39.578C26.9368 39.6192 27.5537 39.5883 28.1809 39.5164L28.8801 46.1068C28.8801 46.1068 30.1138 48.4202 32.5506 48.4099C30.9878 50.4148 29.7643 52.1832 29.2194 56.0799C29.2194 56.0799 31.2551 53.9208 34.8331 51.7617C36.0977 51.0008 38.0409 49.6026 39.47 47.2275C40.0253 46.3022 40.5085 45.2123 40.8375 43.9683L41.3927 48.379C41.9685 48.8006 42.5854 49.325 43.1611 49.9933C44.5697 50.2092 45.6904 51.1551 46.5849 52.5534C49.731 57.4988 50.0498 68.2121 49.9469 73.9287C49.8236 81.2697 44.7959 95.2115 44.7959 95.2115L44.1482 94.9647L39.6962 93.2169C40.2926 91.1914 40.7347 88.7752 41.0843 86.3282C41.9685 79.9331 42.0816 73.394 42.0816 73.394C42.0816 73.394 41.3721 70.8648 40.5702 67.842C38.9457 72.6846 37.7016 77.7226 38.6578 81.537C38.6578 81.537 27.2967 85.115 19.5239 76.4682C19.5239 76.4682 19.5239 76.0672 19.5239 75.3887L13.1904 82.2259L9.34513 78.3189L9.36569 78.3086Z" fill="#3795FC" stroke="#263994" stroke-miterlimit="10"/>
<path d="M44.0864 164.107C47.7466 164.293 49.9777 155.091 50.1114 151.194C50.2553 147.287 51.8284 144.706 51.304 143.935C50.7797 143.164 46.4923 140.47 46.4923 140.47L41.8553 146.516C41.8553 146.516 42.246 150.515 42.0712 152.345C41.9067 154.176 40.4365 163.943 44.0864 164.118V164.107Z" fill="white" stroke="#263994" stroke-miterlimit="10"/>
<path d="M37.825 143.226L41.8554 146.506L46.4924 140.46C46.4924 140.46 42.9864 132.646 37.1053 126.097C36.8997 126.704 36.7866 127.033 36.7866 127.033C36.7866 127.033 38.7298 131.937 37.825 143.216V143.226Z" fill="#80C1FF" stroke="#263994" stroke-miterlimit="10"/>
<path d="M26.2907 30.7431L37.2899 37.094V24.3922L26.2907 18.0413V30.7431Z" fill="#80C1FF"/>
<path d="M15.2871 24.4448L26.2907 30.7957V18.0938L15.2871 11.7429V24.4448Z" fill="#E0E7F7"/>
<path d="M4.2879 18.1508L15.2871 24.5017V11.7999L4.2879 5.44897V18.1508Z" fill="#3795FC"/>
<path d="M26.2907 43.4936L37.2899 49.8445V37.1427L26.2907 30.7917V43.4936Z" fill="#E0E7F7"/>
<path d="M15.2871 37.1948L26.2907 43.5501V30.8438L15.2871 24.4929V37.1948Z" fill="white"/>
<path d="M4.2879 30.9011L15.2871 37.252V24.5501L4.2879 18.1992V30.9011Z" fill="#E0E7F7"/>
<path d="M26.2907 56.2433L37.2899 62.5942V49.8924L26.2907 43.5415V56.2433Z" fill="#3795FC"/>
<path d="M15.2871 49.9452L26.2907 56.3005V43.5943L15.2871 37.2434V49.9452Z" fill="#80C1FF"/>
<path d="M4.2879 43.6508L15.2871 50.0017V37.2999L4.2879 30.949V43.6508Z" fill="white"/>
<path d="M37.2899 24.3924L4.28785 5.4491V43.6509L37.2899 62.5942V24.3924Z" stroke="#263994" stroke-miterlimit="10"/>
<path d="M27.3366 14.9912L40.4368 22.5545V37.6812" stroke="#263994" stroke-miterlimit="10"/>
<path d="M40.4368 52.8604V68.0439L27.3366 60.4806" stroke="#263994" stroke-miterlimit="10"/>
<path d="M14.2408 52.9823L1.14072 45.489V30.3054" stroke="#263994" stroke-miterlimit="10"/>
<path d="M1.14072 15.1223V0L14.2408 7.49764" stroke="#263994" stroke-miterlimit="10"/>
</g>
<path d="M179 145C179 194.153 139.153 234 90 234C40.8467 234 1 194.153 1 145" stroke="#263994"/>
</svg>
