<svg width="1200" height="675" viewBox="0 0 1200 675" fill="none" xmlns="http://www.w3.org/2000/svg">
<rect x="0.5" y="0.5" width="1199" height="674" fill="white" stroke="#263994"/>
<rect x="524" y="316" width="153" height="44" rx="21" fill="#263994"/>
<path d="M552.922 333.613C552.902 336.719 554.699 339.883 557.316 341.152L556.164 342.637C554.26 341.65 552.785 339.688 552.023 337.344C551.232 339.844 549.699 341.934 547.707 342.969L546.555 341.465C549.25 340.176 551.066 336.816 551.066 333.613V330.625H552.922V333.613ZM560.48 329.16V336.133H563.293V337.715H560.48V346.66H558.625V329.16H560.48ZM570.617 332.812C570.617 335.078 572.297 337.207 574.992 338.066L574.035 339.512C572.023 338.848 570.5 337.471 569.719 335.723C568.928 337.627 567.375 339.131 565.285 339.863L564.328 338.398C567.043 337.48 568.723 335.215 568.742 332.812V332.051H564.816V330.547H574.465V332.051H570.617V332.812ZM578.645 329.18V341.953H576.789V329.18H578.645ZM579.172 344.785V346.289H567.199V340.742H569.074V344.785H579.172ZM595.48 330.84V342.344H587.277V330.84H595.48ZM589.113 332.305V340.84H593.684V332.305H589.113ZM600.793 329.16V346.699H598.938V329.16H600.793ZM618.117 329.16V346.699H616.262V329.16H618.117ZM612.766 330.742V337.129H606.477V340.957C609.309 340.947 611.789 340.82 614.719 340.332L614.895 341.855C611.789 342.383 609.152 342.5 606.066 342.5H604.582V335.645H610.871V332.246H604.562V330.742H612.766ZM636.887 342.949V344.492H620.871V342.949H627.922V339.355H622.707V330.352H624.562V333.359H633.156V330.352H634.992V339.355H629.758V342.949H636.887ZM624.562 337.852H633.156V334.863H624.562V337.852ZM652.707 329.16V346.66H650.832V329.16H652.707ZM647.492 331.035C647.492 336.152 645.305 340.605 639.309 343.477L638.332 341.973C642.99 339.756 645.256 336.602 645.617 332.52H639.172V331.035H647.492Z" fill="white"/>
</svg>
