<svg width="1200" height="819" viewBox="0 0 1200 819" fill="none" xmlns="http://www.w3.org/2000/svg">
<rect x="0.5" y="0.5" width="1199" height="674" fill="white" stroke="#263994"/>
<rect y="703" width="1200" height="4" rx="2" fill="#D8DDED"/>
<rect y="703" width="811" height="4" rx="2" fill="#263994"/>
<circle cx="811" cy="705" r="10" fill="#263994"/>
<path d="M5.36133 748.176C2.53125 748.176 0.914062 745.803 0.914062 741.637C0.914062 737.506 2.56641 735.098 5.36133 735.098C8.15625 735.098 9.80859 737.506 9.80859 741.637C9.80859 745.803 8.17383 748.176 5.36133 748.176ZM5.36133 746.77C7.18945 746.77 8.26172 744.924 8.26172 741.637C8.26172 738.35 7.18945 736.469 5.36133 736.469C3.5332 736.469 2.44336 738.35 2.44336 741.637C2.44336 744.924 3.51562 746.77 5.36133 746.77ZM16.084 748.176C13.2539 748.176 11.6367 745.803 11.6367 741.637C11.6367 737.506 13.2891 735.098 16.084 735.098C18.8789 735.098 20.5312 737.506 20.5312 741.637C20.5312 745.803 18.8965 748.176 16.084 748.176ZM16.084 746.77C17.9121 746.77 18.9844 744.924 18.9844 741.637C18.9844 738.35 17.9121 736.469 16.084 736.469C14.2559 736.469 13.166 738.35 13.166 741.637C13.166 744.924 14.2383 746.77 16.084 746.77ZM23.7305 746.312C23.1152 746.312 22.5879 745.803 22.6055 745.17C22.5879 744.555 23.1152 744.045 23.7305 744.045C24.3457 744.045 24.8555 744.555 24.8555 745.17C24.8555 745.803 24.3457 746.312 23.7305 746.312ZM23.7305 739.246C23.1152 739.246 22.5879 738.736 22.6055 738.104C22.5879 737.488 23.1152 736.979 23.7305 736.979C24.3457 736.979 24.8555 737.488 24.8555 738.104C24.8555 738.736 24.3457 739.246 23.7305 739.246ZM31.6055 748.176C29.0742 748.176 27.2637 746.822 27.1758 744.801H28.7754C28.8633 746.014 30.0762 746.77 31.5879 746.77C33.2578 746.77 34.4883 745.855 34.4883 744.537C34.4883 743.148 33.3809 742.164 31.3945 742.164H30.3574V740.775H31.3945C32.9414 740.775 34.0137 739.914 34.0137 738.596C34.0137 737.33 33.082 736.469 31.6406 736.469C30.2871 736.469 29.0391 737.225 28.9688 738.473H27.4395C27.5273 736.451 29.3906 735.098 31.6582 735.098C34.084 735.098 35.5605 736.68 35.543 738.508C35.5605 739.949 34.7168 741.021 33.3809 741.391V741.479C35.0332 741.742 36.0527 742.92 36.0352 744.537C36.0527 746.629 34.1367 748.176 31.6055 748.176ZM42.8203 735.273V748H41.2207V736.926H41.1504L38.0566 738.982V737.383L41.2207 735.273H42.8203ZM47.3027 746.312C46.6875 746.312 46.1602 745.803 46.1777 745.17C46.1602 744.555 46.6875 744.045 47.3027 744.045C47.918 744.045 48.4277 744.555 48.4277 745.17C48.4277 745.803 47.918 746.312 47.3027 746.312ZM47.3027 739.246C46.6875 739.246 46.1602 738.736 46.1777 738.104C46.1602 737.488 46.6875 736.979 47.3027 736.979C47.918 736.979 48.4277 737.488 48.4277 738.104C48.4277 738.736 47.918 739.246 47.3027 739.246ZM54.9492 748.176C52.1191 748.176 50.502 745.803 50.502 741.637C50.502 737.506 52.1543 735.098 54.9492 735.098C57.7441 735.098 59.3965 737.506 59.3965 741.637C59.3965 745.803 57.7617 748.176 54.9492 748.176ZM54.9492 746.77C56.7773 746.77 57.8496 744.924 57.8496 741.637C57.8496 738.35 56.7773 736.469 54.9492 736.469C53.1211 736.469 52.0312 738.35 52.0312 741.637C52.0312 744.924 53.1035 746.77 54.9492 746.77ZM65.6719 748.176C62.8418 748.176 61.2246 745.803 61.2246 741.637C61.2246 737.506 62.877 735.098 65.6719 735.098C68.4668 735.098 70.1191 737.506 70.1191 741.637C70.1191 745.803 68.4844 748.176 65.6719 748.176ZM65.6719 746.77C67.5 746.77 68.5723 744.924 68.5723 741.637C68.5723 738.35 67.5 736.469 65.6719 736.469C63.8438 736.469 62.7539 738.35 62.7539 741.637C62.7539 744.924 63.8262 746.77 65.6719 746.77Z" fill="black"/>
<path d="M1130.99 748.176C1128.16 748.176 1126.54 745.803 1126.54 741.637C1126.54 737.506 1128.19 735.098 1130.99 735.098C1133.78 735.098 1135.44 737.506 1135.44 741.637C1135.44 745.803 1133.8 748.176 1130.99 748.176ZM1130.99 746.77C1132.82 746.77 1133.89 744.924 1133.89 741.637C1133.89 738.35 1132.82 736.469 1130.99 736.469C1129.16 736.469 1128.07 738.35 1128.07 741.637C1128.07 744.924 1129.14 746.77 1130.99 746.77ZM1141.71 748.176C1138.88 748.176 1137.26 745.803 1137.26 741.637C1137.26 737.506 1138.92 735.098 1141.71 735.098C1144.51 735.098 1146.16 737.506 1146.16 741.637C1146.16 745.803 1144.52 748.176 1141.71 748.176ZM1141.71 746.77C1143.54 746.77 1144.61 744.924 1144.61 741.637C1144.61 738.35 1143.54 736.469 1141.71 736.469C1139.88 736.469 1138.79 738.35 1138.79 741.637C1138.79 744.924 1139.87 746.77 1141.71 746.77ZM1149.36 746.312C1148.74 746.312 1148.21 745.803 1148.23 745.17C1148.21 744.555 1148.74 744.045 1149.36 744.045C1149.97 744.045 1150.48 744.555 1150.48 745.17C1150.48 745.803 1149.97 746.312 1149.36 746.312ZM1149.36 739.246C1148.74 739.246 1148.21 738.736 1148.23 738.104C1148.21 737.488 1148.74 736.979 1149.36 736.979C1149.97 736.979 1150.48 737.488 1150.48 738.104C1150.48 738.736 1149.97 739.246 1149.36 739.246ZM1152.52 745.398V744.098L1158.25 735.273H1160.2V744.01H1161.98V745.398H1160.2V748H1158.69V745.398H1152.52ZM1154.23 744.01H1158.69V737.277H1158.53L1154.23 743.904V744.01ZM1168.46 748.176C1165.93 748.176 1164.12 746.822 1164.04 744.801H1165.63C1165.72 746.014 1166.94 746.77 1168.45 746.77C1170.12 746.77 1171.35 745.855 1171.35 744.537C1171.35 743.148 1170.24 742.164 1168.25 742.164H1167.22V740.775H1168.25C1169.8 740.775 1170.87 739.914 1170.87 738.596C1170.87 737.33 1169.94 736.469 1168.5 736.469C1167.15 736.469 1165.9 737.225 1165.83 738.473H1164.3C1164.39 736.451 1166.25 735.098 1168.52 735.098C1170.94 735.098 1172.42 736.68 1172.4 738.508C1172.42 739.949 1171.58 741.021 1170.24 741.391V741.479C1171.89 741.742 1172.91 742.92 1172.89 744.537C1172.91 746.629 1171 748.176 1168.46 748.176ZM1176.27 746.312C1175.65 746.312 1175.13 745.803 1175.14 745.17C1175.13 744.555 1175.65 744.045 1176.27 744.045C1176.88 744.045 1177.39 744.555 1177.39 745.17C1177.39 745.803 1176.88 746.312 1176.27 746.312ZM1176.27 739.246C1175.65 739.246 1175.13 738.736 1175.14 738.104C1175.13 737.488 1175.65 736.979 1176.27 736.979C1176.88 736.979 1177.39 737.488 1177.39 738.104C1177.39 738.736 1176.88 739.246 1176.27 739.246ZM1183.92 748.176C1181.09 748.176 1179.47 745.803 1179.47 741.637C1179.47 737.506 1181.12 735.098 1183.92 735.098C1186.71 735.098 1188.36 737.506 1188.36 741.637C1188.36 745.803 1186.73 748.176 1183.92 748.176ZM1183.92 746.77C1185.74 746.77 1186.82 744.924 1186.82 741.637C1186.82 738.35 1185.74 736.469 1183.92 736.469C1182.09 736.469 1181 738.35 1181 741.637C1181 744.924 1182.07 746.77 1183.92 746.77ZM1194.64 748.176C1191.81 748.176 1190.19 745.803 1190.19 741.637C1190.19 737.506 1191.84 735.098 1194.64 735.098C1197.43 735.098 1199.09 737.506 1199.09 741.637C1199.09 745.803 1197.45 748.176 1194.64 748.176ZM1194.64 746.77C1196.47 746.77 1197.54 744.924 1197.54 741.637C1197.54 738.35 1196.47 736.469 1194.64 736.469C1192.81 736.469 1191.72 738.35 1191.72 741.637C1191.72 744.924 1192.79 746.77 1194.64 746.77Z" fill="black"/>
<path d="M609.444 749.268C610.778 750.038 610.778 751.962 609.444 752.732L594.111 761.585C592.778 762.355 591.111 761.392 591.111 759.853L591.111 742.147C591.111 740.608 592.778 739.645 594.111 740.415L609.444 749.268Z" stroke="black" stroke-width="2" stroke-linejoin="round"/>
<path d="M552.222 758.39L552.222 743.61C552.222 741.421 549.852 740.052 547.955 741.147L543.689 743.61L543.689 758.39L547.956 760.854C549.852 761.949 552.222 760.58 552.222 758.39Z" stroke="black" stroke-width="2" stroke-linejoin="round"/>
<path d="M525.355 752.732C524.022 751.962 524.022 750.038 525.355 749.268L540.689 740.415C542.022 739.645 543.689 740.608 543.689 742.147L543.689 759.853C543.689 761.392 542.022 762.355 540.689 761.585L525.355 752.732Z" stroke="black" stroke-width="2" stroke-linejoin="round"/>
<path d="M524 740L524 762" stroke="black" stroke-width="2" stroke-linecap="round"/>
<path d="M647.778 743.61V758.39C647.778 760.579 650.148 761.948 652.045 760.853L656.311 758.39L656.311 743.61L652.044 741.146C650.148 740.051 647.778 741.42 647.778 743.61Z" stroke="black" stroke-width="2" stroke-linejoin="round"/>
<path d="M674.645 749.268C675.978 750.038 675.978 751.962 674.645 752.732L659.311 761.585C657.978 762.355 656.311 761.392 656.311 759.853L656.311 742.147C656.311 740.608 657.978 739.645 659.311 740.415L674.645 749.268Z" stroke="black" stroke-width="2" stroke-linejoin="round"/>
<path d="M676 762L676 740" stroke="black" stroke-width="2" stroke-linecap="round"/>
<path d="M588.444 793.444C588.444 792.34 589.34 791.444 590.444 791.444H594.698C595.803 791.444 596.698 792.34 596.698 793.444V812.555C596.698 813.66 595.803 814.555 594.698 814.555H590.444C589.34 814.555 588.444 813.66 588.444 812.555V793.444Z" stroke="black" stroke-width="2" stroke-linejoin="round"/>
<path d="M603.302 793.444C603.302 792.34 604.197 791.444 605.302 791.444H609.556C610.66 791.444 611.556 792.34 611.556 793.444V812.555C611.556 813.66 610.66 814.555 609.556 814.555H605.302C604.197 814.555 603.302 813.66 603.302 812.555V793.444Z" stroke="black" stroke-width="2" stroke-linejoin="round"/>
<rect x="515" y="316" width="170" height="44" rx="21" fill="#263994"/>
<path d="M553.682 337.676V339.16H537.705V337.676H544.795V335.82H539.697V329.961H551.709V331.426H541.533V334.336H551.826V335.82H546.592V337.676H553.682ZM545.674 340.293C549.443 340.293 551.709 341.445 551.709 343.477C551.709 345.508 549.443 346.641 545.674 346.66C541.885 346.641 539.6 345.508 539.6 343.477C539.6 341.445 541.885 340.293 545.674 340.293ZM545.674 341.738C542.998 341.738 541.475 342.363 541.475 343.477C541.475 344.59 542.998 345.215 545.674 345.195C548.311 345.215 549.854 344.59 549.854 343.477C549.854 342.363 548.311 341.738 545.674 341.738ZM559.834 330.176C561.289 330.166 562.529 330.713 563.35 331.621H567.725V329.16H569.58V339.492H567.725V337.129H563.33C562.52 338.027 561.279 338.564 559.834 338.555C557.197 338.574 555.244 336.816 555.244 334.375C555.244 331.914 557.197 330.156 559.834 330.176ZM559.834 331.777C558.193 331.758 557.021 332.812 557.021 334.375C557.021 335.898 558.193 336.992 559.834 336.973C561.436 336.992 562.607 335.898 562.607 334.375C562.607 332.812 561.436 331.758 559.834 331.777ZM563.721 339.883C567.354 339.883 569.639 341.113 569.639 343.262C569.639 345.391 567.354 346.641 563.721 346.621C560.068 346.641 557.783 345.391 557.803 343.262C557.783 341.113 560.068 339.883 563.721 339.883ZM563.721 341.309C561.162 341.309 559.6 342.012 559.619 343.262C559.6 344.473 561.162 345.156 563.721 345.156C566.299 345.156 567.822 344.473 567.822 343.262C567.822 342.012 566.299 341.309 563.721 341.309ZM564.189 333.105C564.316 333.496 564.385 333.926 564.385 334.375C564.385 334.805 564.316 335.225 564.209 335.605H567.725V333.105H564.189ZM578.311 331.953C578.311 334.258 579.912 336.387 582.529 337.246L581.533 338.711C579.619 338.037 578.184 336.67 577.432 334.941C576.66 336.904 575.176 338.438 573.135 339.199L572.139 337.715C574.873 336.738 576.455 334.414 576.475 331.797V330.078H578.311V331.953ZM586.025 329.16V333.555H588.564V335.117H586.025V339.727H584.17V329.16H586.025ZM580.381 340.137C583.975 340.137 586.182 341.328 586.182 343.379C586.182 345.449 583.975 346.641 580.381 346.621C576.748 346.641 574.502 345.449 574.502 343.379C574.502 341.328 576.748 340.137 580.381 340.137ZM580.381 341.602C577.842 341.602 576.338 342.266 576.357 343.379C576.338 344.531 577.842 345.156 580.381 345.176C582.9 345.156 584.365 344.531 584.365 343.379C584.365 342.266 582.9 341.602 580.381 341.602ZM603.623 330.84V342.344H595.42V330.84H603.623ZM597.256 332.305V340.84H601.826V332.305H597.256ZM608.936 329.16V346.699H607.08V329.16H608.936ZM626.26 329.16V346.699H624.404V329.16H626.26ZM620.908 330.742V337.129H614.619V340.957C617.451 340.947 619.932 340.82 622.861 340.332L623.037 341.855C619.932 342.383 617.295 342.5 614.209 342.5H612.725V335.645H619.014V332.246H612.705V330.742H620.908ZM645.029 342.949V344.492H629.014V342.949H636.064V339.355H630.85V330.352H632.705V333.359H641.299V330.352H643.135V339.355H637.9V342.949H645.029ZM632.705 337.852H641.299V334.863H632.705V337.852ZM660.85 329.16V346.66H658.975V329.16H660.85ZM655.635 331.035C655.635 336.152 653.447 340.605 647.451 343.477L646.475 341.973C651.133 339.756 653.398 336.602 653.76 332.52H647.314V331.035H655.635Z" fill="white"/>
</svg>
