<svg width="1200" height="829" viewBox="0 0 1200 829" fill="none" xmlns="http://www.w3.org/2000/svg">
<rect x="0.5" y="5.5" width="1199" height="674" fill="white" stroke="#263994"/>
<rect y="708" width="1200" height="4" rx="2" fill="#D8DDED"/>
<rect y="708" width="811" height="4" rx="2" fill="#263994"/>
<circle cx="811" cy="710" r="10" fill="#263994"/>
<path d="M5.36133 753.176C2.53125 753.176 0.914062 750.803 0.914062 746.637C0.914062 742.506 2.56641 740.098 5.36133 740.098C8.15625 740.098 9.80859 742.506 9.80859 746.637C9.80859 750.803 8.17383 753.176 5.36133 753.176ZM5.36133 751.77C7.18945 751.77 8.26172 749.924 8.26172 746.637C8.26172 743.35 7.18945 741.469 5.36133 741.469C3.5332 741.469 2.44336 743.35 2.44336 746.637C2.44336 749.924 3.51562 751.77 5.36133 751.77ZM16.084 753.176C13.2539 753.176 11.6367 750.803 11.6367 746.637C11.6367 742.506 13.2891 740.098 16.084 740.098C18.8789 740.098 20.5312 742.506 20.5312 746.637C20.5312 750.803 18.8965 753.176 16.084 753.176ZM16.084 751.77C17.9121 751.77 18.9844 749.924 18.9844 746.637C18.9844 743.35 17.9121 741.469 16.084 741.469C14.2559 741.469 13.166 743.35 13.166 746.637C13.166 749.924 14.2383 751.77 16.084 751.77ZM23.7305 751.312C23.1152 751.312 22.5879 750.803 22.6055 750.17C22.5879 749.555 23.1152 749.045 23.7305 749.045C24.3457 749.045 24.8555 749.555 24.8555 750.17C24.8555 750.803 24.3457 751.312 23.7305 751.312ZM23.7305 744.246C23.1152 744.246 22.5879 743.736 22.6055 743.104C22.5879 742.488 23.1152 741.979 23.7305 741.979C24.3457 741.979 24.8555 742.488 24.8555 743.104C24.8555 743.736 24.3457 744.246 23.7305 744.246ZM31.6055 753.176C29.0742 753.176 27.2637 751.822 27.1758 749.801H28.7754C28.8633 751.014 30.0762 751.77 31.5879 751.77C33.2578 751.77 34.4883 750.855 34.4883 749.537C34.4883 748.148 33.3809 747.164 31.3945 747.164H30.3574V745.775H31.3945C32.9414 745.775 34.0137 744.914 34.0137 743.596C34.0137 742.33 33.082 741.469 31.6406 741.469C30.2871 741.469 29.0391 742.225 28.9688 743.473H27.4395C27.5273 741.451 29.3906 740.098 31.6582 740.098C34.084 740.098 35.5605 741.68 35.543 743.508C35.5605 744.949 34.7168 746.021 33.3809 746.391V746.479C35.0332 746.742 36.0527 747.92 36.0352 749.537C36.0527 751.629 34.1367 753.176 31.6055 753.176ZM42.8203 740.273V753H41.2207V741.926H41.1504L38.0566 743.982V742.383L41.2207 740.273H42.8203ZM47.3027 751.312C46.6875 751.312 46.1602 750.803 46.1777 750.17C46.1602 749.555 46.6875 749.045 47.3027 749.045C47.918 749.045 48.4277 749.555 48.4277 750.17C48.4277 750.803 47.918 751.312 47.3027 751.312ZM47.3027 744.246C46.6875 744.246 46.1602 743.736 46.1777 743.104C46.1602 742.488 46.6875 741.979 47.3027 741.979C47.918 741.979 48.4277 742.488 48.4277 743.104C48.4277 743.736 47.918 744.246 47.3027 744.246ZM54.9492 753.176C52.1191 753.176 50.502 750.803 50.502 746.637C50.502 742.506 52.1543 740.098 54.9492 740.098C57.7441 740.098 59.3965 742.506 59.3965 746.637C59.3965 750.803 57.7617 753.176 54.9492 753.176ZM54.9492 751.77C56.7773 751.77 57.8496 749.924 57.8496 746.637C57.8496 743.35 56.7773 741.469 54.9492 741.469C53.1211 741.469 52.0312 743.35 52.0312 746.637C52.0312 749.924 53.1035 751.77 54.9492 751.77ZM65.6719 753.176C62.8418 753.176 61.2246 750.803 61.2246 746.637C61.2246 742.506 62.877 740.098 65.6719 740.098C68.4668 740.098 70.1191 742.506 70.1191 746.637C70.1191 750.803 68.4844 753.176 65.6719 753.176ZM65.6719 751.77C67.5 751.77 68.5723 749.924 68.5723 746.637C68.5723 743.35 67.5 741.469 65.6719 741.469C63.8438 741.469 62.7539 743.35 62.7539 746.637C62.7539 749.924 63.8262 751.77 65.6719 751.77Z" fill="black"/>
<path d="M1130.99 753.176C1128.16 753.176 1126.54 750.803 1126.54 746.637C1126.54 742.506 1128.19 740.098 1130.99 740.098C1133.78 740.098 1135.44 742.506 1135.44 746.637C1135.44 750.803 1133.8 753.176 1130.99 753.176ZM1130.99 751.77C1132.82 751.77 1133.89 749.924 1133.89 746.637C1133.89 743.35 1132.82 741.469 1130.99 741.469C1129.16 741.469 1128.07 743.35 1128.07 746.637C1128.07 749.924 1129.14 751.77 1130.99 751.77ZM1141.71 753.176C1138.88 753.176 1137.26 750.803 1137.26 746.637C1137.26 742.506 1138.92 740.098 1141.71 740.098C1144.51 740.098 1146.16 742.506 1146.16 746.637C1146.16 750.803 1144.52 753.176 1141.71 753.176ZM1141.71 751.77C1143.54 751.77 1144.61 749.924 1144.61 746.637C1144.61 743.35 1143.54 741.469 1141.71 741.469C1139.88 741.469 1138.79 743.35 1138.79 746.637C1138.79 749.924 1139.87 751.77 1141.71 751.77ZM1149.36 751.312C1148.74 751.312 1148.21 750.803 1148.23 750.17C1148.21 749.555 1148.74 749.045 1149.36 749.045C1149.97 749.045 1150.48 749.555 1150.48 750.17C1150.48 750.803 1149.97 751.312 1149.36 751.312ZM1149.36 744.246C1148.74 744.246 1148.21 743.736 1148.23 743.104C1148.21 742.488 1148.74 741.979 1149.36 741.979C1149.97 741.979 1150.48 742.488 1150.48 743.104C1150.48 743.736 1149.97 744.246 1149.36 744.246ZM1152.52 750.398V749.098L1158.25 740.273H1160.2V749.01H1161.98V750.398H1160.2V753H1158.69V750.398H1152.52ZM1154.23 749.01H1158.69V742.277H1158.53L1154.23 748.904V749.01ZM1168.46 753.176C1165.93 753.176 1164.12 751.822 1164.04 749.801H1165.63C1165.72 751.014 1166.94 751.77 1168.45 751.77C1170.12 751.77 1171.35 750.855 1171.35 749.537C1171.35 748.148 1170.24 747.164 1168.25 747.164H1167.22V745.775H1168.25C1169.8 745.775 1170.87 744.914 1170.87 743.596C1170.87 742.33 1169.94 741.469 1168.5 741.469C1167.15 741.469 1165.9 742.225 1165.83 743.473H1164.3C1164.39 741.451 1166.25 740.098 1168.52 740.098C1170.94 740.098 1172.42 741.68 1172.4 743.508C1172.42 744.949 1171.58 746.021 1170.24 746.391V746.479C1171.89 746.742 1172.91 747.92 1172.89 749.537C1172.91 751.629 1171 753.176 1168.46 753.176ZM1176.27 751.312C1175.65 751.312 1175.13 750.803 1175.14 750.17C1175.13 749.555 1175.65 749.045 1176.27 749.045C1176.88 749.045 1177.39 749.555 1177.39 750.17C1177.39 750.803 1176.88 751.312 1176.27 751.312ZM1176.27 744.246C1175.65 744.246 1175.13 743.736 1175.14 743.104C1175.13 742.488 1175.65 741.979 1176.27 741.979C1176.88 741.979 1177.39 742.488 1177.39 743.104C1177.39 743.736 1176.88 744.246 1176.27 744.246ZM1183.92 753.176C1181.09 753.176 1179.47 750.803 1179.47 746.637C1179.47 742.506 1181.12 740.098 1183.92 740.098C1186.71 740.098 1188.36 742.506 1188.36 746.637C1188.36 750.803 1186.73 753.176 1183.92 753.176ZM1183.92 751.77C1185.74 751.77 1186.82 749.924 1186.82 746.637C1186.82 743.35 1185.74 741.469 1183.92 741.469C1182.09 741.469 1181 743.35 1181 746.637C1181 749.924 1182.07 751.77 1183.92 751.77ZM1194.64 753.176C1191.81 753.176 1190.19 750.803 1190.19 746.637C1190.19 742.506 1191.84 740.098 1194.64 740.098C1197.43 740.098 1199.09 742.506 1199.09 746.637C1199.09 750.803 1197.45 753.176 1194.64 753.176ZM1194.64 751.77C1196.47 751.77 1197.54 749.924 1197.54 746.637C1197.54 743.35 1196.47 741.469 1194.64 741.469C1192.81 741.469 1191.72 743.35 1191.72 746.637C1191.72 749.924 1192.79 751.77 1194.64 751.77Z" fill="black"/>
<path d="M609.444 754.268C610.778 755.038 610.778 756.962 609.444 757.732L594.111 766.585C592.778 767.355 591.111 766.392 591.111 764.853L591.111 747.147C591.111 745.608 592.778 744.645 594.111 745.415L609.444 754.268Z" stroke="black" stroke-width="2" stroke-linejoin="round"/>
<path d="M647.778 748.61V763.39C647.778 765.579 650.148 766.948 652.045 765.853L656.311 763.39L656.311 748.61L652.044 746.146C650.148 745.051 647.778 746.42 647.778 748.61Z" stroke="black" stroke-width="2" stroke-linejoin="round"/>
<path d="M674.645 754.268C675.978 755.038 675.978 756.962 674.645 757.732L659.311 766.585C657.978 767.355 656.311 766.392 656.311 764.853L656.311 747.147C656.311 745.608 657.978 744.645 659.311 745.415L674.645 754.268Z" stroke="black" stroke-width="2" stroke-linejoin="round"/>
<path d="M552.222 763.39L552.222 748.61C552.222 746.421 549.852 745.052 547.955 746.147L543.689 748.61L543.689 763.39L547.956 765.854C549.852 766.949 552.222 765.58 552.222 763.39Z" stroke="black" stroke-width="2" stroke-linejoin="round"/>
<path d="M525.355 757.732C524.022 756.962 524.022 755.038 525.355 754.268L540.689 745.415C542.022 744.645 543.689 745.608 543.689 747.147L543.689 764.853C543.689 766.392 542.022 767.355 540.689 766.585L525.355 757.732Z" stroke="black" stroke-width="2" stroke-linejoin="round"/>
<path d="M588.444 798.444C588.444 797.34 589.34 796.444 590.444 796.444H594.698C595.803 796.444 596.698 797.34 596.698 798.444V817.555C596.698 818.66 595.803 819.555 594.698 819.555H590.444C589.34 819.555 588.444 818.66 588.444 817.555V798.444Z" stroke="black" stroke-width="2" stroke-linejoin="round"/>
<path d="M603.302 798.444C603.302 797.34 604.197 796.444 605.302 796.444H609.556C610.66 796.444 611.556 797.34 611.556 798.444V817.555C611.556 818.66 610.66 819.555 609.556 819.555H605.302C604.197 819.555 603.302 818.66 603.302 817.555V798.444Z" stroke="black" stroke-width="2" stroke-linejoin="round"/>
<rect x="515" y="321" width="170" height="44" rx="21" fill="#263994"/>
<path d="M553.682 342.676V344.16H537.705V342.676H544.795V340.82H539.697V334.961H551.709V336.426H541.533V339.336H551.826V340.82H546.592V342.676H553.682ZM545.674 345.293C549.443 345.293 551.709 346.445 551.709 348.477C551.709 350.508 549.443 351.641 545.674 351.66C541.885 351.641 539.6 350.508 539.6 348.477C539.6 346.445 541.885 345.293 545.674 345.293ZM545.674 346.738C542.998 346.738 541.475 347.363 541.475 348.477C541.475 349.59 542.998 350.215 545.674 350.195C548.311 350.215 549.854 349.59 549.854 348.477C549.854 347.363 548.311 346.738 545.674 346.738ZM559.834 335.176C561.289 335.166 562.529 335.713 563.35 336.621H567.725V334.16H569.58V344.492H567.725V342.129H563.33C562.52 343.027 561.279 343.564 559.834 343.555C557.197 343.574 555.244 341.816 555.244 339.375C555.244 336.914 557.197 335.156 559.834 335.176ZM559.834 336.777C558.193 336.758 557.021 337.812 557.021 339.375C557.021 340.898 558.193 341.992 559.834 341.973C561.436 341.992 562.607 340.898 562.607 339.375C562.607 337.812 561.436 336.758 559.834 336.777ZM563.721 344.883C567.354 344.883 569.639 346.113 569.639 348.262C569.639 350.391 567.354 351.641 563.721 351.621C560.068 351.641 557.783 350.391 557.803 348.262C557.783 346.113 560.068 344.883 563.721 344.883ZM563.721 346.309C561.162 346.309 559.6 347.012 559.619 348.262C559.6 349.473 561.162 350.156 563.721 350.156C566.299 350.156 567.822 349.473 567.822 348.262C567.822 347.012 566.299 346.309 563.721 346.309ZM564.189 338.105C564.316 338.496 564.385 338.926 564.385 339.375C564.385 339.805 564.316 340.225 564.209 340.605H567.725V338.105H564.189ZM578.311 336.953C578.311 339.258 579.912 341.387 582.529 342.246L581.533 343.711C579.619 343.037 578.184 341.67 577.432 339.941C576.66 341.904 575.176 343.438 573.135 344.199L572.139 342.715C574.873 341.738 576.455 339.414 576.475 336.797V335.078H578.311V336.953ZM586.025 334.16V338.555H588.564V340.117H586.025V344.727H584.17V334.16H586.025ZM580.381 345.137C583.975 345.137 586.182 346.328 586.182 348.379C586.182 350.449 583.975 351.641 580.381 351.621C576.748 351.641 574.502 350.449 574.502 348.379C574.502 346.328 576.748 345.137 580.381 345.137ZM580.381 346.602C577.842 346.602 576.338 347.266 576.357 348.379C576.338 349.531 577.842 350.156 580.381 350.176C582.9 350.156 584.365 349.531 584.365 348.379C584.365 347.266 582.9 346.602 580.381 346.602ZM603.623 335.84V347.344H595.42V335.84H603.623ZM597.256 337.305V345.84H601.826V337.305H597.256ZM608.936 334.16V351.699H607.08V334.16H608.936ZM626.26 334.16V351.699H624.404V334.16H626.26ZM620.908 335.742V342.129H614.619V345.957C617.451 345.947 619.932 345.82 622.861 345.332L623.037 346.855C619.932 347.383 617.295 347.5 614.209 347.5H612.725V340.645H619.014V337.246H612.705V335.742H620.908ZM645.029 347.949V349.492H629.014V347.949H636.064V344.355H630.85V335.352H632.705V338.359H641.299V335.352H643.135V344.355H637.9V347.949H645.029ZM632.705 342.852H641.299V339.863H632.705V342.852ZM660.85 334.16V351.66H658.975V334.16H660.85ZM655.635 336.035C655.635 341.152 653.447 345.605 647.451 348.477L646.475 346.973C651.133 344.756 653.398 341.602 653.76 337.52H647.314V336.035H655.635Z" fill="white"/>
</svg>
